<?xml version="1.0" encoding="UTF-8" standalone="no"?>
<!DOCTYPE svg PUBLIC "-//W3C//DTD SVG 1.1//EN"
 "http://www.w3.org/Graphics/SVG/1.1/DTD/svg11.dtd">
<!-- Generated by graphviz version 6.0.1 (20220911.1526)
 -->
<!-- Title: G Pages: 1 -->
<svg width="2051pt" height="807pt"
 viewBox="0.00 0.00 2051.20 807.20" xmlns="http://www.w3.org/2000/svg" xmlns:xlink="http://www.w3.org/1999/xlink">
<g id="graph0" class="graph" transform="scale(1 1) rotate(0) translate(21.6 785.6)">
<title>G</title>
<polygon fill="#111111" stroke="none" points="-21.6,21.6 -21.6,-785.6 2029.6,-785.6 2029.6,21.6 -21.6,21.6"/>
<!-- application/errors.ts -->
<g id="node1" class="node">
<title>application/errors.ts</title>
<path fill="none" stroke="#cfffac" d="M1888.83,-265C1888.83,-265 1770.17,-265 1770.17,-265 1766.33,-265 1762.5,-261.17 1762.5,-257.33 1762.5,-257.33 1762.5,-249.67 1762.5,-249.67 1762.5,-245.83 1766.33,-242 1770.17,-242 1770.17,-242 1888.83,-242 1888.83,-242 1892.67,-242 1896.5,-245.83 1896.5,-249.67 1896.5,-249.67 1896.5,-257.33 1896.5,-257.33 1896.5,-261.17 1892.67,-265 1888.83,-265"/>
<text text-anchor="middle" x="1829.5" y="-249.8" font-family="Arial" font-size="14.00" fill="#cfffac">application/errors.ts</text>
</g>
<!-- application/getParser.ts -->
<g id="node2" class="node">
<title>application/getParser.ts</title>
<path fill="none" stroke="#c6c5fe" d="M836.83,-626C836.83,-626 695.17,-626 695.17,-626 691.33,-626 687.5,-622.17 687.5,-618.33 687.5,-618.33 687.5,-610.67 687.5,-610.67 687.5,-606.83 691.33,-603 695.17,-603 695.17,-603 836.83,-603 836.83,-603 840.67,-603 844.5,-606.83 844.5,-610.67 844.5,-610.67 844.5,-618.33 844.5,-618.33 844.5,-622.17 840.67,-626 836.83,-626"/>
<text text-anchor="middle" x="766" y="-610.8" font-family="Arial" font-size="14.00" fill="#c6c5fe">application/getParser.ts</text>
</g>
<!-- application/getParser.ts&#45;&gt;application/errors.ts -->
<g id="edge1" class="edge">
<title>application/getParser.ts&#45;&gt;application/errors.ts</title>
<path fill="none" stroke="#757575" d="M844.89,-615.47C872.42,-618.15 902.97,-623.88 929,-635.5 948.28,-644.11 945.21,-659.15 965,-666.5 1097.92,-715.84 1149.62,-711.7 1284,-666.5 1528.77,-584.17 1750.92,-343.3 1811.98,-272.98"/>
<polygon fill="#757575" stroke="#757575" points="1814.75,-275.14 1818.62,-265.28 1809.44,-270.57 1814.75,-275.14"/>
</g>
<!-- domain/services/GitHubParser.ts -->
<g id="node3" class="node">
<title>domain/services/GitHubParser.ts</title>
<path fill="none" stroke="#c6c5fe" d="M1567.33,-306C1567.33,-306 1367.67,-306 1367.67,-306 1363.83,-306 1360,-302.17 1360,-298.33 1360,-298.33 1360,-290.67 1360,-290.67 1360,-286.83 1363.83,-283 1367.67,-283 1367.67,-283 1567.33,-283 1567.33,-283 1571.17,-283 1575,-286.83 1575,-290.67 1575,-290.67 1575,-298.33 1575,-298.33 1575,-302.17 1571.17,-306 1567.33,-306"/>
<text text-anchor="middle" x="1467.5" y="-290.8" font-family="Arial" font-size="14.00" fill="#c6c5fe">domain/services/GitHubParser.ts</text>
</g>
<!-- application/getParser.ts&#45;&gt;domain/services/GitHubParser.ts -->
<g id="edge2" class="edge">
<title>application/getParser.ts&#45;&gt;domain/services/GitHubParser.ts</title>
<path fill="none" stroke="#757575" d="M844.9,-624.68C881.31,-628.95 925.3,-633.4 965,-635.5 1106.58,-642.99 1162.37,-708.36 1284,-635.5 1405.18,-562.91 1450.44,-379.35 1462.72,-316.22"/>
<polygon fill="#757575" stroke="#757575" points="1466.2,-316.67 1464.59,-306.2 1459.32,-315.39 1466.2,-316.67"/>
</g>
<!-- domain/services/Result.ts -->
<g id="node4" class="node">
<title>domain/services/Result.ts</title>
<path fill="none" stroke="#c6c5fe" d="M1202.33,-626C1202.33,-626 1046.67,-626 1046.67,-626 1042.83,-626 1039,-622.17 1039,-618.33 1039,-618.33 1039,-610.67 1039,-610.67 1039,-606.83 1042.83,-603 1046.67,-603 1046.67,-603 1202.33,-603 1202.33,-603 1206.17,-603 1210,-606.83 1210,-610.67 1210,-610.67 1210,-618.33 1210,-618.33 1210,-622.17 1206.17,-626 1202.33,-626"/>
<text text-anchor="middle" x="1124.5" y="-610.8" font-family="Arial" font-size="14.00" fill="#c6c5fe">domain/services/Result.ts</text>
</g>
<!-- application/getParser.ts&#45;&gt;domain/services/Result.ts -->
<g id="edge3" class="edge">
<title>application/getParser.ts&#45;&gt;domain/services/Result.ts</title>
<path fill="none" stroke="#757575" d="M844.79,-614.5C898.81,-614.5 971.11,-614.5 1028.53,-614.5"/>
<polygon fill="#757575" stroke="#757575" points="1028.71,-618 1038.71,-614.5 1028.71,-611 1028.71,-618"/>
</g>
<!-- domain/services/GitHubParser.ts&#45;&gt;application/errors.ts -->
<g id="edge14" class="edge">
<title>domain/services/GitHubParser.ts&#45;&gt;application/errors.ts</title>
<path fill="none" stroke="#757575" d="M1569.74,-282.97C1627.67,-276.37 1699.15,-268.23 1752.3,-262.18"/>
<polygon fill="#757575" stroke="#757575" points="1752.8,-265.64 1762.34,-261.04 1752.01,-258.69 1752.8,-265.64"/>
</g>
<!-- infrastructure/frameworks/time.ts -->
<g id="node16" class="node">
<title>infrastructure/frameworks/time.ts</title>
<path fill="none" stroke="#cfffac" d="M1928.83,-184C1928.83,-184 1730.17,-184 1730.17,-184 1726.33,-184 1722.5,-180.17 1722.5,-176.33 1722.5,-176.33 1722.5,-168.67 1722.5,-168.67 1722.5,-164.83 1726.33,-161 1730.17,-161 1730.17,-161 1928.83,-161 1928.83,-161 1932.67,-161 1936.5,-164.83 1936.5,-168.67 1936.5,-168.67 1936.5,-176.33 1936.5,-176.33 1936.5,-180.17 1932.67,-184 1928.83,-184"/>
<text text-anchor="middle" x="1829.5" y="-168.8" font-family="Arial" font-size="14.00" fill="#cfffac">infrastructure/frameworks/time.ts</text>
</g>
<!-- domain/services/GitHubParser.ts&#45;&gt;infrastructure/frameworks/time.ts -->
<g id="edge15" class="edge">
<title>domain/services/GitHubParser.ts&#45;&gt;infrastructure/frameworks/time.ts</title>
<path fill="none" stroke="#757575" d="M1575.02,-288.34C1588.98,-284.95 1602.69,-280.17 1615,-273.5 1636.32,-261.95 1630.82,-245.95 1651,-232.5 1683.88,-210.57 1725.54,-195.94 1760.23,-186.62"/>
<polygon fill="#757575" stroke="#757575" points="1761.48,-189.92 1770.29,-184.02 1759.73,-183.14 1761.48,-189.92"/>
</g>
<!-- infrastructure/frameworks/date.ts -->
<g id="node18" class="node">
<title>infrastructure/frameworks/date.ts</title>
<path fill="none" stroke="#c6c5fe" d="M1566.83,-265C1566.83,-265 1368.17,-265 1368.17,-265 1364.33,-265 1360.5,-261.17 1360.5,-257.33 1360.5,-257.33 1360.5,-249.67 1360.5,-249.67 1360.5,-245.83 1364.33,-242 1368.17,-242 1368.17,-242 1566.83,-242 1566.83,-242 1570.67,-242 1574.5,-245.83 1574.5,-249.67 1574.5,-249.67 1574.5,-257.33 1574.5,-257.33 1574.5,-261.17 1570.67,-265 1566.83,-265"/>
<text text-anchor="middle" x="1467.5" y="-249.8" font-family="Arial" font-size="14.00" fill="#c6c5fe">infrastructure/frameworks/date.ts</text>
</g>
<!-- domain/services/Result.ts&#45;&gt;infrastructure/frameworks/date.ts -->
<g id="edge17" class="edge">
<title>domain/services/Result.ts&#45;&gt;infrastructure/frameworks/date.ts</title>
<path fill="none" stroke="#757575" d="M1210.29,-623.16C1237.21,-621.32 1264.91,-613.85 1284,-594.5 1384.81,-492.29 1219.71,-376.22 1320,-273.5 1328.62,-264.67 1339.16,-258.46 1350.6,-254.18"/>
<polygon fill="#757575" stroke="#757575" points="1351.95,-257.42 1360.4,-251.03 1349.81,-250.76 1351.95,-257.42"/>
</g>
<!-- application/mapResultToUsecase.ts -->
<g id="node5" class="node">
<title>application/mapResultToUsecase.ts</title>
<path fill="none" stroke="#c6c5fe" d="M873.83,-400C873.83,-400 658.17,-400 658.17,-400 654.33,-400 650.5,-396.17 650.5,-392.33 650.5,-392.33 650.5,-384.67 650.5,-384.67 650.5,-380.83 654.33,-377 658.17,-377 658.17,-377 873.83,-377 873.83,-377 877.67,-377 881.5,-380.83 881.5,-384.67 881.5,-384.67 881.5,-392.33 881.5,-392.33 881.5,-396.17 877.67,-400 873.83,-400"/>
<text text-anchor="middle" x="766" y="-384.8" font-family="Arial" font-size="14.00" fill="#c6c5fe">application/mapResultToUsecase.ts</text>
</g>
<!-- usecases/approved.ts -->
<g id="node6" class="node">
<title>usecases/approved.ts</title>
<path fill="none" stroke="#cfffac" d="M1190.83,-421C1190.83,-421 1058.17,-421 1058.17,-421 1054.33,-421 1050.5,-417.17 1050.5,-413.33 1050.5,-413.33 1050.5,-405.67 1050.5,-405.67 1050.5,-401.83 1054.33,-398 1058.17,-398 1058.17,-398 1190.83,-398 1190.83,-398 1194.67,-398 1198.5,-401.83 1198.5,-405.67 1198.5,-405.67 1198.5,-413.33 1198.5,-413.33 1198.5,-417.17 1194.67,-421 1190.83,-421"/>
<text text-anchor="middle" x="1124.5" y="-405.8" font-family="Arial" font-size="14.00" fill="#cfffac">usecases/approved.ts</text>
</g>
<!-- application/mapResultToUsecase.ts&#45;&gt;usecases/approved.ts -->
<g id="edge4" class="edge">
<title>application/mapResultToUsecase.ts&#45;&gt;usecases/approved.ts</title>
<path fill="none" stroke="#757575" d="M881.76,-395.26C933.34,-398.3 993.08,-401.82 1040.27,-404.6"/>
<polygon fill="#757575" stroke="#757575" points="1040.25,-408.1 1050.44,-405.2 1040.67,-401.11 1040.25,-408.1"/>
</g>
<!-- usecases/changesRequested.ts -->
<g id="node7" class="node">
<title>usecases/changesRequested.ts</title>
<path fill="none" stroke="#cfffac" d="M1220.83,-380C1220.83,-380 1028.17,-380 1028.17,-380 1024.33,-380 1020.5,-376.17 1020.5,-372.33 1020.5,-372.33 1020.5,-364.67 1020.5,-364.67 1020.5,-360.83 1024.33,-357 1028.17,-357 1028.17,-357 1220.83,-357 1220.83,-357 1224.67,-357 1228.5,-360.83 1228.5,-364.67 1228.5,-364.67 1228.5,-372.33 1228.5,-372.33 1228.5,-376.17 1224.67,-380 1220.83,-380"/>
<text text-anchor="middle" x="1124.5" y="-364.8" font-family="Arial" font-size="14.00" fill="#cfffac">usecases/changesRequested.ts</text>
</g>
<!-- application/mapResultToUsecase.ts&#45;&gt;usecases/changesRequested.ts -->
<g id="edge5" class="edge">
<title>application/mapResultToUsecase.ts&#45;&gt;usecases/changesRequested.ts</title>
<path fill="none" stroke="#757575" d="M881.76,-382.06C922.94,-379.75 969.32,-377.15 1010.37,-374.85"/>
<polygon fill="#757575" stroke="#757575" points="1010.62,-378.34 1020.4,-374.28 1010.22,-371.35 1010.62,-378.34"/>
</g>
<!-- usecases/closed.ts -->
<g id="node8" class="node">
<title>usecases/closed.ts</title>
<path fill="none" stroke="#cfffac" d="M1182.33,-339C1182.33,-339 1066.67,-339 1066.67,-339 1062.83,-339 1059,-335.17 1059,-331.33 1059,-331.33 1059,-323.67 1059,-323.67 1059,-319.83 1062.83,-316 1066.67,-316 1066.67,-316 1182.33,-316 1182.33,-316 1186.17,-316 1190,-319.83 1190,-323.67 1190,-323.67 1190,-331.33 1190,-331.33 1190,-335.17 1186.17,-339 1182.33,-339"/>
<text text-anchor="middle" x="1124.5" y="-323.8" font-family="Arial" font-size="14.00" fill="#cfffac">usecases/closed.ts</text>
</g>
<!-- application/mapResultToUsecase.ts&#45;&gt;usecases/closed.ts -->
<g id="edge6" class="edge">
<title>application/mapResultToUsecase.ts&#45;&gt;usecases/closed.ts</title>
<path fill="none" stroke="#757575" d="M817.25,-376.95C857.15,-368.06 914.44,-355.91 965,-347.5 992.29,-342.96 1022.38,-338.92 1048.94,-335.68"/>
<polygon fill="#757575" stroke="#757575" points="1049.43,-339.15 1058.94,-334.48 1048.59,-332.2 1049.43,-339.15"/>
</g>
<!-- usecases/commented.ts -->
<g id="node9" class="node">
<title>usecases/commented.ts</title>
<path fill="none" stroke="#cfffac" d="M1198.83,-298C1198.83,-298 1050.17,-298 1050.17,-298 1046.33,-298 1042.5,-294.17 1042.5,-290.33 1042.5,-290.33 1042.5,-282.67 1042.5,-282.67 1042.5,-278.83 1046.33,-275 1050.17,-275 1050.17,-275 1198.83,-275 1198.83,-275 1202.67,-275 1206.5,-278.83 1206.5,-282.67 1206.5,-282.67 1206.5,-290.33 1206.5,-290.33 1206.5,-294.17 1202.67,-298 1198.83,-298"/>
<text text-anchor="middle" x="1124.5" y="-282.8" font-family="Arial" font-size="14.00" fill="#cfffac">usecases/commented.ts</text>
</g>
<!-- application/mapResultToUsecase.ts&#45;&gt;usecases/commented.ts -->
<g id="edge7" class="edge">
<title>application/mapResultToUsecase.ts&#45;&gt;usecases/commented.ts</title>
<path fill="none" stroke="#757575" d="M789.18,-377C825.09,-358.92 898.65,-324.09 965,-306.5 986.51,-300.8 1010.1,-296.71 1032.35,-293.78"/>
<polygon fill="#757575" stroke="#757575" points="1032.99,-297.23 1042.47,-292.51 1032.12,-290.28 1032.99,-297.23"/>
</g>
<!-- usecases/merged.ts -->
<g id="node10" class="node">
<title>usecases/merged.ts</title>
<path fill="none" stroke="#cfffac" d="M1185.83,-257C1185.83,-257 1063.17,-257 1063.17,-257 1059.33,-257 1055.5,-253.17 1055.5,-249.33 1055.5,-249.33 1055.5,-241.67 1055.5,-241.67 1055.5,-237.83 1059.33,-234 1063.17,-234 1063.17,-234 1185.83,-234 1185.83,-234 1189.67,-234 1193.5,-237.83 1193.5,-241.67 1193.5,-241.67 1193.5,-249.33 1193.5,-249.33 1193.5,-253.17 1189.67,-257 1185.83,-257"/>
<text text-anchor="middle" x="1124.5" y="-241.8" font-family="Arial" font-size="14.00" fill="#cfffac">usecases/merged.ts</text>
</g>
<!-- application/mapResultToUsecase.ts&#45;&gt;usecases/merged.ts -->
<g id="edge8" class="edge">
<title>application/mapResultToUsecase.ts&#45;&gt;usecases/merged.ts</title>
<path fill="none" stroke="#757575" d="M780.79,-376.92C811.56,-351.81 889.1,-292.41 965,-265.5 990.27,-256.54 1019.06,-251.5 1045.1,-248.69"/>
<polygon fill="#757575" stroke="#757575" points="1045.7,-252.14 1055.31,-247.68 1045.02,-245.18 1045.7,-252.14"/>
</g>
<!-- usecases/opened.ts -->
<g id="node11" class="node">
<title>usecases/opened.ts</title>
<path fill="none" stroke="#cfffac" d="M1185.33,-216C1185.33,-216 1063.67,-216 1063.67,-216 1059.83,-216 1056,-212.17 1056,-208.33 1056,-208.33 1056,-200.67 1056,-200.67 1056,-196.83 1059.83,-193 1063.67,-193 1063.67,-193 1185.33,-193 1185.33,-193 1189.17,-193 1193,-196.83 1193,-200.67 1193,-200.67 1193,-208.33 1193,-208.33 1193,-212.17 1189.17,-216 1185.33,-216"/>
<text text-anchor="middle" x="1124.5" y="-200.8" font-family="Arial" font-size="14.00" fill="#cfffac">usecases/opened.ts</text>
</g>
<!-- application/mapResultToUsecase.ts&#45;&gt;usecases/opened.ts -->
<g id="edge9" class="edge">
<title>application/mapResultToUsecase.ts&#45;&gt;usecases/opened.ts</title>
<path fill="none" stroke="#757575" d="M776.67,-376.81C803.09,-345.78 880.21,-261.21 965,-224.5 990.05,-213.65 1019.27,-208.19 1045.75,-205.57"/>
<polygon fill="#757575" stroke="#757575" points="1046.09,-209.06 1055.75,-204.71 1045.48,-202.08 1046.09,-209.06"/>
</g>
<!-- usecases/pushed.ts -->
<g id="node12" class="node">
<title>usecases/pushed.ts</title>
<path fill="none" stroke="#cfffac" d="M1184.83,-585C1184.83,-585 1064.17,-585 1064.17,-585 1060.33,-585 1056.5,-581.17 1056.5,-577.33 1056.5,-577.33 1056.5,-569.67 1056.5,-569.67 1056.5,-565.83 1060.33,-562 1064.17,-562 1064.17,-562 1184.83,-562 1184.83,-562 1188.67,-562 1192.5,-565.83 1192.5,-569.67 1192.5,-569.67 1192.5,-577.33 1192.5,-577.33 1192.5,-581.17 1188.67,-585 1184.83,-585"/>
<text text-anchor="middle" x="1124.5" y="-569.8" font-family="Arial" font-size="14.00" fill="#cfffac">usecases/pushed.ts</text>
</g>
<!-- application/mapResultToUsecase.ts&#45;&gt;usecases/pushed.ts -->
<g id="edge10" class="edge">
<title>application/mapResultToUsecase.ts&#45;&gt;usecases/pushed.ts</title>
<path fill="none" stroke="#757575" d="M776.65,-400.26C803.03,-431.48 880.06,-516.57 965,-553.5 990.15,-564.43 1019.51,-569.91 1046.09,-572.5"/>
<polygon fill="#757575" stroke="#757575" points="1045.86,-576 1056.12,-573.36 1046.45,-569.02 1045.86,-576"/>
</g>
<!-- usecases/reviewPickedUp.ts -->
<g id="node13" class="node">
<title>usecases/reviewPickedUp.ts</title>
<path fill="none" stroke="#cfffac" d="M1210.83,-544C1210.83,-544 1038.17,-544 1038.17,-544 1034.33,-544 1030.5,-540.17 1030.5,-536.33 1030.5,-536.33 1030.5,-528.67 1030.5,-528.67 1030.5,-524.83 1034.33,-521 1038.17,-521 1038.17,-521 1210.83,-521 1210.83,-521 1214.67,-521 1218.5,-524.83 1218.5,-528.67 1218.5,-528.67 1218.5,-536.33 1218.5,-536.33 1218.5,-540.17 1214.67,-544 1210.83,-544"/>
<text text-anchor="middle" x="1124.5" y="-528.8" font-family="Arial" font-size="14.00" fill="#cfffac">usecases/reviewPickedUp.ts</text>
</g>
<!-- application/mapResultToUsecase.ts&#45;&gt;usecases/reviewPickedUp.ts -->
<g id="edge11" class="edge">
<title>application/mapResultToUsecase.ts&#45;&gt;usecases/reviewPickedUp.ts</title>
<path fill="none" stroke="#757575" d="M780.77,-400.17C811.5,-425.5 888.97,-485.39 965,-512.5 982.38,-518.7 1001.44,-523.03 1020.12,-526.04"/>
<polygon fill="#757575" stroke="#757575" points="1019.74,-529.52 1030.15,-527.53 1020.77,-522.59 1019.74,-529.52"/>
</g>
<!-- usecases/reviewTime.ts -->
<g id="node14" class="node">
<title>usecases/reviewTime.ts</title>
<path fill="none" stroke="#cfffac" d="M1197.33,-503C1197.33,-503 1051.67,-503 1051.67,-503 1047.83,-503 1044,-499.17 1044,-495.33 1044,-495.33 1044,-487.67 1044,-487.67 1044,-483.83 1047.83,-480 1051.67,-480 1051.67,-480 1197.33,-480 1197.33,-480 1201.17,-480 1205,-483.83 1205,-487.67 1205,-487.67 1205,-495.33 1205,-495.33 1205,-499.17 1201.17,-503 1197.33,-503"/>
<text text-anchor="middle" x="1124.5" y="-487.8" font-family="Arial" font-size="14.00" fill="#cfffac">usecases/reviewTime.ts</text>
</g>
<!-- application/mapResultToUsecase.ts&#45;&gt;usecases/reviewTime.ts -->
<g id="edge12" class="edge">
<title>application/mapResultToUsecase.ts&#45;&gt;usecases/reviewTime.ts</title>
<path fill="none" stroke="#757575" d="M788.87,-400C824.65,-418.28 898.38,-453.69 965,-471.5 986.94,-477.37 1011.06,-481.52 1033.72,-484.47"/>
<polygon fill="#757575" stroke="#757575" points="1033.32,-487.95 1043.67,-485.7 1034.18,-481 1033.32,-487.95"/>
</g>
<!-- usecases/reviewed.ts -->
<g id="node15" class="node">
<title>usecases/reviewed.ts</title>
<path fill="none" stroke="#cfffac" d="M1189.83,-462C1189.83,-462 1059.17,-462 1059.17,-462 1055.33,-462 1051.5,-458.17 1051.5,-454.33 1051.5,-454.33 1051.5,-446.67 1051.5,-446.67 1051.5,-442.83 1055.33,-439 1059.17,-439 1059.17,-439 1189.83,-439 1189.83,-439 1193.67,-439 1197.5,-442.83 1197.5,-446.67 1197.5,-446.67 1197.5,-454.33 1197.5,-454.33 1197.5,-458.17 1193.67,-462 1189.83,-462"/>
<text text-anchor="middle" x="1124.5" y="-446.8" font-family="Arial" font-size="14.00" fill="#cfffac">usecases/reviewed.ts</text>
</g>
<!-- application/mapResultToUsecase.ts&#45;&gt;usecases/reviewed.ts -->
<g id="edge13" class="edge">
<title>application/mapResultToUsecase.ts&#45;&gt;usecases/reviewed.ts</title>
<path fill="none" stroke="#757575" d="M817.68,-400.05C857.57,-408.88 914.64,-420.96 965,-429.5 989.65,-433.68 1016.59,-437.52 1041.14,-440.74"/>
<polygon fill="#757575" stroke="#757575" points="1040.77,-444.22 1051.14,-442.03 1041.67,-437.28 1040.77,-444.22"/>
</g>
<!-- domain/services/Metrics.ts -->
<g id="node17" class="node">
<title>domain/services/Metrics.ts</title>
<path fill="none" stroke="#c6c5fe" d="M1548.33,-23C1548.33,-23 1386.67,-23 1386.67,-23 1382.83,-23 1379,-19.17 1379,-15.33 1379,-15.33 1379,-7.67 1379,-7.67 1379,-3.83 1382.83,0 1386.67,0 1386.67,0 1548.33,0 1548.33,0 1552.17,0 1556,-3.83 1556,-7.67 1556,-7.67 1556,-15.33 1556,-15.33 1556,-19.17 1552.17,-23 1548.33,-23"/>
<text text-anchor="middle" x="1467.5" y="-7.8" font-family="Arial" font-size="14.00" fill="#c6c5fe">domain/services/Metrics.ts</text>
</g>
<!-- domain/services/Metrics.ts&#45;&gt;infrastructure/frameworks/time.ts -->
<g id="edge16" class="edge">
<title>domain/services/Metrics.ts&#45;&gt;infrastructure/frameworks/time.ts</title>
<path fill="none" stroke="#757575" d="M1556.08,-16.96C1575.87,-19.96 1596.5,-24.54 1615,-31.5 1693.14,-60.88 1771.61,-123.11 1807.82,-154.13"/>
<polygon fill="#757575" stroke="#757575" points="1805.84,-157.05 1815.69,-160.95 1810.43,-151.76 1805.84,-157.05"/>
</g>
<!-- infrastructure/frameworks/date.ts&#45;&gt;application/errors.ts -->
<g id="edge25" class="edge">
<title>infrastructure/frameworks/date.ts&#45;&gt;application/errors.ts</title>
<path fill="none" stroke="#757575" d="M1574.56,-253.5C1631.63,-253.5 1700.7,-253.5 1752.39,-253.5"/>
<polygon fill="#757575" stroke="#757575" points="1752.49,-257 1762.49,-253.5 1752.49,-250 1752.49,-257"/>
</g>
<!-- infrastructure/frameworks/date.ts&#45;&gt;infrastructure/frameworks/time.ts -->
<g id="edge26" class="edge">
<title>infrastructure/frameworks/date.ts&#45;&gt;infrastructure/frameworks/time.ts</title>
<path fill="none" stroke="#757575" d="M1519.7,-241.98C1584.92,-227.31 1697.51,-201.97 1767.23,-186.29"/>
<polygon fill="#757575" stroke="#757575" points="1768.2,-189.65 1777.19,-184.05 1766.66,-182.83 1768.2,-189.65"/>
</g>
<!-- infrastructure/adapters/web/AddMetrics.ts -->
<g id="node19" class="node">
<title>infrastructure/adapters/web/AddMetrics.ts</title>
<path fill="none" stroke="#c6c5fe" d="M258.33,-237C258.33,-237 7.67,-237 7.67,-237 3.83,-237 0,-233.17 0,-229.33 0,-229.33 0,-221.67 0,-221.67 0,-217.83 3.83,-214 7.67,-214 7.67,-214 258.33,-214 258.33,-214 262.17,-214 266,-217.83 266,-221.67 266,-221.67 266,-229.33 266,-229.33 266,-233.17 262.17,-237 258.33,-237"/>
<text text-anchor="middle" x="133" y="-221.8" font-family="Arial" font-size="14.00" fill="#c6c5fe">infrastructure/adapters/web/AddMetrics.ts</text>
</g>
<!-- infrastructure/frameworks/end.ts -->
<g id="node20" class="node">
<title>infrastructure/frameworks/end.ts</title>
<path fill="none" stroke="#cfffac" d="M863.33,-54C863.33,-54 668.67,-54 668.67,-54 664.83,-54 661,-50.17 661,-46.33 661,-46.33 661,-38.67 661,-38.67 661,-34.83 664.83,-31 668.67,-31 668.67,-31 863.33,-31 863.33,-31 867.17,-31 871,-34.83 871,-38.67 871,-38.67 871,-46.33 871,-46.33 871,-50.17 867.17,-54 863.33,-54"/>
<text text-anchor="middle" x="766" y="-38.8" font-family="Arial" font-size="14.00" fill="#cfffac">infrastructure/frameworks/end.ts</text>
</g>
<!-- infrastructure/adapters/web/AddMetrics.ts&#45;&gt;infrastructure/frameworks/end.ts -->
<g id="edge18" class="edge">
<title>infrastructure/adapters/web/AddMetrics.ts&#45;&gt;infrastructure/frameworks/end.ts</title>
<path fill="none" stroke="#757575" d="M143.03,-213.83C165.95,-185.23 229.71,-111.75 302,-81.5 413.94,-34.66 554.19,-29.4 650.83,-33.03"/>
<polygon fill="#757575" stroke="#757575" points="650.79,-36.53 660.92,-33.44 651.08,-29.53 650.79,-36.53"/>
</g>
<!-- usecases/addMetric.ts -->
<g id="node21" class="node">
<title>usecases/addMetric.ts</title>
<path fill="none" stroke="#c6c5fe" d="M502.83,-400C502.83,-400 366.17,-400 366.17,-400 362.33,-400 358.5,-396.17 358.5,-392.33 358.5,-392.33 358.5,-384.67 358.5,-384.67 358.5,-380.83 362.33,-377 366.17,-377 366.17,-377 502.83,-377 502.83,-377 506.67,-377 510.5,-380.83 510.5,-384.67 510.5,-384.67 510.5,-392.33 510.5,-392.33 510.5,-396.17 506.67,-400 502.83,-400"/>
<text text-anchor="middle" x="434.5" y="-384.8" font-family="Arial" font-size="14.00" fill="#c6c5fe">usecases/addMetric.ts</text>
</g>
<!-- infrastructure/adapters/web/AddMetrics.ts&#45;&gt;usecases/addMetric.ts -->
<g id="edge19" class="edge">
<title>infrastructure/adapters/web/AddMetrics.ts&#45;&gt;usecases/addMetric.ts</title>
<path fill="none" stroke="#757575" d="M155.54,-237.22C207.99,-265.77 342.49,-338.97 403.09,-371.95"/>
<polygon fill="#757575" stroke="#757575" points="401.7,-375.18 412.16,-376.88 405.05,-369.03 401.7,-375.18"/>
</g>
<!-- usecases/addMetric.ts&#45;&gt;application/getParser.ts -->
<g id="edge36" class="edge">
<title>usecases/addMetric.ts&#45;&gt;application/getParser.ts</title>
<path fill="none" stroke="#757575" d="M452.29,-400.02C506.15,-436.96 674.8,-552.63 739.44,-596.97"/>
<polygon fill="#757575" stroke="#757575" points="737.62,-599.96 747.85,-602.73 741.58,-594.19 737.62,-599.96"/>
</g>
<!-- usecases/addMetric.ts&#45;&gt;application/mapResultToUsecase.ts -->
<g id="edge37" class="edge">
<title>usecases/addMetric.ts&#45;&gt;application/mapResultToUsecase.ts</title>
<path fill="none" stroke="#757575" d="M510.68,-388.5C549.01,-388.5 596.62,-388.5 640.26,-388.5"/>
<polygon fill="#757575" stroke="#757575" points="640.38,-392 650.38,-388.5 640.38,-385 640.38,-392"/>
</g>
<!-- infrastructure/frameworks/getRepo.ts -->
<g id="node24" class="node">
<title>infrastructure/frameworks/getRepo.ts</title>
<path fill="none" stroke="#c6c5fe" d="M877.83,-175C877.83,-175 654.17,-175 654.17,-175 650.33,-175 646.5,-171.17 646.5,-167.33 646.5,-167.33 646.5,-159.67 646.5,-159.67 646.5,-155.83 650.33,-152 654.17,-152 654.17,-152 877.83,-152 877.83,-152 881.67,-152 885.5,-155.83 885.5,-159.67 885.5,-159.67 885.5,-167.33 885.5,-167.33 885.5,-171.17 881.67,-175 877.83,-175"/>
<text text-anchor="middle" x="766" y="-159.8" font-family="Arial" font-size="14.00" fill="#c6c5fe">infrastructure/frameworks/getRepo.ts</text>
</g>
<!-- usecases/addMetric.ts&#45;&gt;infrastructure/frameworks/getRepo.ts -->
<g id="edge39" class="edge">
<title>usecases/addMetric.ts&#45;&gt;infrastructure/frameworks/getRepo.ts</title>
<path fill="none" stroke="#757575" d="M452.75,-376.72C507.13,-339.59 675.17,-224.84 739.55,-180.88"/>
<polygon fill="#757575" stroke="#757575" points="741.63,-183.69 747.92,-175.16 737.69,-177.91 741.63,-183.69"/>
</g>
<!-- infrastructure/frameworks/getLowerCaseHeaders.ts -->
<g id="node32" class="node">
<title>infrastructure/frameworks/getLowerCaseHeaders.ts</title>
<path fill="none" stroke="#cfffac" d="M921.33,-667C921.33,-667 610.67,-667 610.67,-667 606.83,-667 603,-663.17 603,-659.33 603,-659.33 603,-651.67 603,-651.67 603,-647.83 606.83,-644 610.67,-644 610.67,-644 921.33,-644 921.33,-644 925.17,-644 929,-647.83 929,-651.67 929,-651.67 929,-659.33 929,-659.33 929,-663.17 925.17,-667 921.33,-667"/>
<text text-anchor="middle" x="766" y="-651.8" font-family="Arial" font-size="14.00" fill="#cfffac">infrastructure/frameworks/getLowerCaseHeaders.ts</text>
</g>
<!-- usecases/addMetric.ts&#45;&gt;infrastructure/frameworks/getLowerCaseHeaders.ts -->
<g id="edge38" class="edge">
<title>usecases/addMetric.ts&#45;&gt;infrastructure/frameworks/getLowerCaseHeaders.ts</title>
<path fill="none" stroke="#757575" d="M439.4,-400.15C453.67,-440.78 507.3,-576.98 603,-635.5 605.36,-636.94 607.77,-638.3 610.22,-639.58"/>
<polygon fill="#757575" stroke="#757575" points="608.79,-642.77 619.32,-643.9 611.79,-636.45 608.79,-642.77"/>
</g>
<!-- infrastructure/adapters/web/GetMetrics.ts -->
<g id="node22" class="node">
<title>infrastructure/adapters/web/GetMetrics.ts</title>
<path fill="none" stroke="#c6c5fe" d="M559.33,-114C559.33,-114 309.67,-114 309.67,-114 305.83,-114 302,-110.17 302,-106.33 302,-106.33 302,-98.67 302,-98.67 302,-94.83 305.83,-91 309.67,-91 309.67,-91 559.33,-91 559.33,-91 563.17,-91 567,-94.83 567,-98.67 567,-98.67 567,-106.33 567,-106.33 567,-110.17 563.17,-114 559.33,-114"/>
<text text-anchor="middle" x="434.5" y="-98.8" font-family="Arial" font-size="14.00" fill="#c6c5fe">infrastructure/adapters/web/GetMetrics.ts</text>
</g>
<!-- infrastructure/adapters/web/GetMetrics.ts&#45;&gt;infrastructure/frameworks/end.ts -->
<g id="edge20" class="edge">
<title>infrastructure/adapters/web/GetMetrics.ts&#45;&gt;infrastructure/frameworks/end.ts</title>
<path fill="none" stroke="#757575" d="M495.46,-90.95C517.92,-86.55 543.66,-81.4 567,-76.5 583.04,-73.13 586.9,-71.58 603,-68.5 626.87,-63.94 652.82,-59.53 676.82,-55.68"/>
<polygon fill="#757575" stroke="#757575" points="677.64,-59.09 686.97,-54.06 676.54,-52.18 677.64,-59.09"/>
</g>
<!-- infrastructure/frameworks/getDTO.ts -->
<g id="node23" class="node">
<title>infrastructure/frameworks/getDTO.ts</title>
<path fill="none" stroke="#cfffac" d="M876.33,-134C876.33,-134 655.67,-134 655.67,-134 651.83,-134 648,-130.17 648,-126.33 648,-126.33 648,-118.67 648,-118.67 648,-114.83 651.83,-111 655.67,-111 655.67,-111 876.33,-111 876.33,-111 880.17,-111 884,-114.83 884,-118.67 884,-118.67 884,-126.33 884,-126.33 884,-130.17 880.17,-134 876.33,-134"/>
<text text-anchor="middle" x="766" y="-118.8" font-family="Arial" font-size="14.00" fill="#cfffac">infrastructure/frameworks/getDTO.ts</text>
</g>
<!-- infrastructure/adapters/web/GetMetrics.ts&#45;&gt;infrastructure/frameworks/getDTO.ts -->
<g id="edge21" class="edge">
<title>infrastructure/adapters/web/GetMetrics.ts&#45;&gt;infrastructure/frameworks/getDTO.ts</title>
<path fill="none" stroke="#757575" d="M567.15,-110.49C590.41,-111.9 614.6,-113.37 637.74,-114.78"/>
<polygon fill="#757575" stroke="#757575" points="637.75,-118.28 647.94,-115.39 638.17,-111.3 637.75,-118.28"/>
</g>
<!-- infrastructure/adapters/web/GetMetrics.ts&#45;&gt;infrastructure/frameworks/getRepo.ts -->
<g id="edge22" class="edge">
<title>infrastructure/adapters/web/GetMetrics.ts&#45;&gt;infrastructure/frameworks/getRepo.ts</title>
<path fill="none" stroke="#757575" d="M478.27,-114.03C511.96,-122.79 560.21,-134.64 603,-142.5 619.21,-145.48 636.4,-148.18 653.3,-150.59"/>
<polygon fill="#757575" stroke="#757575" points="652.82,-154.06 663.2,-151.97 653.78,-147.12 652.82,-154.06"/>
</g>
<!-- usecases/getMetrics.ts -->
<g id="node25" class="node">
<title>usecases/getMetrics.ts</title>
<path fill="none" stroke="#c6c5fe" d="M1194.33,-83C1194.33,-83 1054.67,-83 1054.67,-83 1050.83,-83 1047,-79.17 1047,-75.33 1047,-75.33 1047,-67.67 1047,-67.67 1047,-63.83 1050.83,-60 1054.67,-60 1054.67,-60 1194.33,-60 1194.33,-60 1198.17,-60 1202,-63.83 1202,-67.67 1202,-67.67 1202,-75.33 1202,-75.33 1202,-79.17 1198.17,-83 1194.33,-83"/>
<text text-anchor="middle" x="1124.5" y="-67.8" font-family="Arial" font-size="14.00" fill="#c6c5fe">usecases/getMetrics.ts</text>
</g>
<!-- infrastructure/adapters/web/GetMetrics.ts&#45;&gt;usecases/getMetrics.ts -->
<g id="edge23" class="edge">
<title>infrastructure/adapters/web/GetMetrics.ts&#45;&gt;usecases/getMetrics.ts</title>
<path fill="none" stroke="#757575" d="M567.34,-96.56C705.34,-90.34 918.08,-80.76 1036.45,-75.42"/>
<polygon fill="#757575" stroke="#757575" points="1036.72,-78.91 1046.55,-74.97 1036.41,-71.92 1036.72,-78.91"/>
</g>
<!-- infrastructure/repositories/DynamoDbRepository.ts -->
<g id="node33" class="node">
<title>infrastructure/repositories/DynamoDbRepository.ts</title>
<path fill="none" stroke="#c6c5fe" d="M1276.33,-134C1276.33,-134 972.67,-134 972.67,-134 968.83,-134 965,-130.17 965,-126.33 965,-126.33 965,-118.67 965,-118.67 965,-114.83 968.83,-111 972.67,-111 972.67,-111 1276.33,-111 1276.33,-111 1280.17,-111 1284,-114.83 1284,-118.67 1284,-118.67 1284,-126.33 1284,-126.33 1284,-130.17 1280.17,-134 1276.33,-134"/>
<text text-anchor="middle" x="1124.5" y="-118.8" font-family="Arial" font-size="14.00" fill="#c6c5fe">infrastructure/repositories/DynamoDbRepository.ts</text>
</g>
<!-- infrastructure/frameworks/getRepo.ts&#45;&gt;infrastructure/repositories/DynamoDbRepository.ts -->
<g id="edge29" class="edge">
<title>infrastructure/frameworks/getRepo.ts&#45;&gt;infrastructure/repositories/DynamoDbRepository.ts</title>
<path fill="none" stroke="#757575" d="M867.25,-151.97C912.73,-146.74 966.63,-140.54 1013.25,-135.18"/>
<polygon fill="#757575" stroke="#757575" points="1013.85,-138.63 1023.38,-134.01 1013.05,-131.68 1013.85,-138.63"/>
</g>
<!-- infrastructure/repositories/LocalRepository.ts -->
<g id="node34" class="node">
<title>infrastructure/repositories/LocalRepository.ts</title>
<path fill="none" stroke="#c6c5fe" d="M1258.33,-175C1258.33,-175 990.67,-175 990.67,-175 986.83,-175 983,-171.17 983,-167.33 983,-167.33 983,-159.67 983,-159.67 983,-155.83 986.83,-152 990.67,-152 990.67,-152 1258.33,-152 1258.33,-152 1262.17,-152 1266,-155.83 1266,-159.67 1266,-159.67 1266,-167.33 1266,-167.33 1266,-171.17 1262.17,-175 1258.33,-175"/>
<text text-anchor="middle" x="1124.5" y="-159.8" font-family="Arial" font-size="14.00" fill="#c6c5fe">infrastructure/repositories/LocalRepository.ts</text>
</g>
<!-- infrastructure/frameworks/getRepo.ts&#45;&gt;infrastructure/repositories/LocalRepository.ts -->
<g id="edge30" class="edge">
<title>infrastructure/frameworks/getRepo.ts&#45;&gt;infrastructure/repositories/LocalRepository.ts</title>
<path fill="none" stroke="#757575" d="M885.71,-163.5C913.52,-163.5 943.52,-163.5 972.53,-163.5"/>
<polygon fill="#757575" stroke="#757575" points="972.74,-167 982.74,-163.5 972.74,-160 972.74,-167"/>
</g>
<!-- usecases/getMetrics.ts&#45;&gt;application/errors.ts -->
<g id="edge43" class="edge">
<title>usecases/getMetrics.ts&#45;&gt;application/errors.ts</title>
<path fill="none" stroke="#757575" d="M1202.04,-73.5C1331.33,-77.51 1582.16,-88.2 1615,-111.5 1647.13,-134.3 1621.96,-165.88 1651,-192.5 1678.88,-218.05 1717.95,-232.97 1752.35,-241.65"/>
<polygon fill="#757575" stroke="#757575" points="1751.84,-245.12 1762.38,-244.04 1753.47,-238.31 1751.84,-245.12"/>
</g>
<!-- usecases/getMetrics.ts&#45;&gt;domain/services/Metrics.ts -->
<g id="edge44" class="edge">
<title>usecases/getMetrics.ts&#45;&gt;domain/services/Metrics.ts</title>
<path fill="none" stroke="#757575" d="M1176.92,-59.94C1216.03,-51.39 1271.24,-39.83 1320,-31.5 1335.72,-28.81 1352.43,-26.25 1368.73,-23.92"/>
<polygon fill="#757575" stroke="#757575" points="1369.4,-27.36 1378.81,-22.49 1368.42,-20.43 1369.4,-27.36"/>
</g>
<!-- infrastructure/frameworks/validateDates.ts -->
<g id="node35" class="node">
<title>infrastructure/frameworks/validateDates.ts</title>
<path fill="none" stroke="#cfffac" d="M1594.33,-64C1594.33,-64 1340.67,-64 1340.67,-64 1336.83,-64 1333,-60.17 1333,-56.33 1333,-56.33 1333,-48.67 1333,-48.67 1333,-44.83 1336.83,-41 1340.67,-41 1340.67,-41 1594.33,-41 1594.33,-41 1598.17,-41 1602,-44.83 1602,-48.67 1602,-48.67 1602,-56.33 1602,-56.33 1602,-60.17 1598.17,-64 1594.33,-64"/>
<text text-anchor="middle" x="1467.5" y="-48.8" font-family="Arial" font-size="14.00" fill="#cfffac">infrastructure/frameworks/validateDates.ts</text>
</g>
<!-- usecases/getMetrics.ts&#45;&gt;infrastructure/frameworks/validateDates.ts -->
<g id="edge45" class="edge">
<title>usecases/getMetrics.ts&#45;&gt;infrastructure/frameworks/validateDates.ts</title>
<path fill="none" stroke="#757575" d="M1202.03,-67.24C1237.67,-65.25 1281.29,-62.82 1322.74,-60.51"/>
<polygon fill="#757575" stroke="#757575" points="1323.16,-63.99 1332.95,-59.94 1322.77,-57 1323.16,-63.99"/>
</g>
<!-- infrastructure/authorizers/Authorizer.ts -->
<g id="node26" class="node">
<title>infrastructure/authorizers/Authorizer.ts</title>
<path fill="none" stroke="#c6c5fe" d="M1239.33,-744C1239.33,-744 1009.67,-744 1009.67,-744 1005.83,-744 1002,-740.17 1002,-736.33 1002,-736.33 1002,-728.67 1002,-728.67 1002,-724.83 1005.83,-721 1009.67,-721 1009.67,-721 1239.33,-721 1239.33,-721 1243.17,-721 1247,-724.83 1247,-728.67 1247,-728.67 1247,-736.33 1247,-736.33 1247,-740.17 1243.17,-744 1239.33,-744"/>
<text text-anchor="middle" x="1124.5" y="-728.8" font-family="Arial" font-size="14.00" fill="#c6c5fe">infrastructure/authorizers/Authorizer.ts</text>
</g>
<!-- usecases/authorize.ts -->
<g id="node27" class="node">
<title>usecases/authorize.ts</title>
<path fill="none" stroke="#c6c5fe" d="M1533.33,-744C1533.33,-744 1401.67,-744 1401.67,-744 1397.83,-744 1394,-740.17 1394,-736.33 1394,-736.33 1394,-728.67 1394,-728.67 1394,-724.83 1397.83,-721 1401.67,-721 1401.67,-721 1533.33,-721 1533.33,-721 1537.17,-721 1541,-724.83 1541,-728.67 1541,-728.67 1541,-736.33 1541,-736.33 1541,-740.17 1537.17,-744 1533.33,-744"/>
<text text-anchor="middle" x="1467.5" y="-728.8" font-family="Arial" font-size="14.00" fill="#c6c5fe">usecases/authorize.ts</text>
</g>
<!-- infrastructure/authorizers/Authorizer.ts&#45;&gt;usecases/authorize.ts -->
<g id="edge24" class="edge">
<title>infrastructure/authorizers/Authorizer.ts&#45;&gt;usecases/authorize.ts</title>
<path fill="none" stroke="#757575" d="M1247.16,-732.5C1292.3,-732.5 1342.43,-732.5 1383.36,-732.5"/>
<polygon fill="#757575" stroke="#757575" points="1383.56,-736 1393.56,-732.5 1383.56,-729 1383.56,-736"/>
</g>
<!-- usecases/authorize.ts&#45;&gt;application/errors.ts -->
<g id="edge40" class="edge">
<title>usecases/authorize.ts&#45;&gt;application/errors.ts</title>
<path fill="none" stroke="#757575" d="M1541.04,-732.97C1566.56,-729.89 1594.07,-722.51 1615,-706.5 1764.1,-592.44 1813.57,-348.54 1825.4,-274.95"/>
<polygon fill="#757575" stroke="#757575" points="1828.87,-275.42 1826.94,-265.01 1821.95,-274.36 1828.87,-275.42"/>
</g>
<!-- infrastructure/frameworks/authorization/generatePolicy.ts -->
<g id="node29" class="node">
<title>infrastructure/frameworks/authorization/generatePolicy.ts</title>
<path fill="none" stroke="#cfffac" d="M2000.33,-764C2000.33,-764 1658.67,-764 1658.67,-764 1654.83,-764 1651,-760.17 1651,-756.33 1651,-756.33 1651,-748.67 1651,-748.67 1651,-744.83 1654.83,-741 1658.67,-741 1658.67,-741 2000.33,-741 2000.33,-741 2004.17,-741 2008,-744.83 2008,-748.67 2008,-748.67 2008,-756.33 2008,-756.33 2008,-760.17 2004.17,-764 2000.33,-764"/>
<text text-anchor="middle" x="1829.5" y="-748.8" font-family="Arial" font-size="14.00" fill="#cfffac">infrastructure/frameworks/authorization/generatePolicy.ts</text>
</g>
<!-- usecases/authorize.ts&#45;&gt;infrastructure/frameworks/authorization/generatePolicy.ts -->
<g id="edge41" class="edge">
<title>usecases/authorize.ts&#45;&gt;infrastructure/frameworks/authorization/generatePolicy.ts</title>
<path fill="none" stroke="#757575" d="M1541.35,-736.55C1570.46,-738.16 1605.45,-740.11 1640.83,-742.07"/>
<polygon fill="#757575" stroke="#757575" points="1640.64,-745.57 1650.82,-742.63 1641.02,-738.58 1640.64,-745.57"/>
</g>
<!-- infrastructure/frameworks/authorization/handleCors.ts -->
<g id="node30" class="node">
<title>infrastructure/frameworks/authorization/handleCors.ts</title>
<path fill="none" stroke="#cfffac" d="M1990.83,-723C1990.83,-723 1668.17,-723 1668.17,-723 1664.33,-723 1660.5,-719.17 1660.5,-715.33 1660.5,-715.33 1660.5,-707.67 1660.5,-707.67 1660.5,-703.83 1664.33,-700 1668.17,-700 1668.17,-700 1990.83,-700 1990.83,-700 1994.67,-700 1998.5,-703.83 1998.5,-707.67 1998.5,-707.67 1998.5,-715.33 1998.5,-715.33 1998.5,-719.17 1994.67,-723 1990.83,-723"/>
<text text-anchor="middle" x="1829.5" y="-707.8" font-family="Arial" font-size="14.00" fill="#cfffac">infrastructure/frameworks/authorization/handleCors.ts</text>
</g>
<!-- usecases/authorize.ts&#45;&gt;infrastructure/frameworks/authorization/handleCors.ts -->
<g id="edge42" class="edge">
<title>usecases/authorize.ts&#45;&gt;infrastructure/frameworks/authorization/handleCors.ts</title>
<path fill="none" stroke="#757575" d="M1541.35,-728.25C1572.94,-726.41 1611.46,-724.16 1649.89,-721.92"/>
<polygon fill="#757575" stroke="#757575" points="1650.4,-725.4 1660.18,-721.32 1649.99,-718.41 1650.4,-725.4"/>
</g>
<!-- infrastructure/frameworks/addCustomMetric.ts -->
<g id="node28" class="node">
<title>infrastructure/frameworks/addCustomMetric.ts</title>
<path fill="none" stroke="#cfffac" d="M1607.33,-185C1607.33,-185 1327.67,-185 1327.67,-185 1323.83,-185 1320,-181.17 1320,-177.33 1320,-177.33 1320,-169.67 1320,-169.67 1320,-165.83 1323.83,-162 1327.67,-162 1327.67,-162 1607.33,-162 1607.33,-162 1611.17,-162 1615,-165.83 1615,-169.67 1615,-169.67 1615,-177.33 1615,-177.33 1615,-181.17 1611.17,-185 1607.33,-185"/>
<text text-anchor="middle" x="1467.5" y="-169.8" font-family="Arial" font-size="14.00" fill="#cfffac">infrastructure/frameworks/addCustomMetric.ts</text>
</g>
<!-- infrastructure/frameworks/getCleanedItems.ts -->
<g id="node31" class="node">
<title>infrastructure/frameworks/getCleanedItems.ts</title>
<path fill="none" stroke="#c6c5fe" d="M1604.83,-144C1604.83,-144 1330.17,-144 1330.17,-144 1326.33,-144 1322.5,-140.17 1322.5,-136.33 1322.5,-136.33 1322.5,-128.67 1322.5,-128.67 1322.5,-124.83 1326.33,-121 1330.17,-121 1330.17,-121 1604.83,-121 1604.83,-121 1608.67,-121 1612.5,-124.83 1612.5,-128.67 1612.5,-128.67 1612.5,-136.33 1612.5,-136.33 1612.5,-140.17 1608.67,-144 1604.83,-144"/>
<text text-anchor="middle" x="1467.5" y="-128.8" font-family="Arial" font-size="14.00" fill="#c6c5fe">infrastructure/frameworks/getCleanedItems.ts</text>
</g>
<!-- infrastructure/frameworks/getCleanedItems.ts&#45;&gt;application/errors.ts -->
<g id="edge27" class="edge">
<title>infrastructure/frameworks/getCleanedItems.ts&#45;&gt;application/errors.ts</title>
<path fill="none" stroke="#757575" d="M1595.75,-144.1C1602.41,-146.48 1608.87,-149.26 1615,-152.5 1636.14,-163.69 1631.05,-179.3 1651,-192.5 1684.78,-214.85 1727.61,-229.88 1762.73,-239.43"/>
<polygon fill="#757575" stroke="#757575" points="1761.86,-242.81 1772.42,-241.97 1763.64,-236.05 1761.86,-242.81"/>
</g>
<!-- infrastructure/frameworks/getCleanedItems.ts&#45;&gt;infrastructure/frameworks/time.ts -->
<g id="edge28" class="edge">
<title>infrastructure/frameworks/getCleanedItems.ts&#45;&gt;infrastructure/frameworks/time.ts</title>
<path fill="none" stroke="#757575" d="M1572.14,-144.02C1616.85,-148.98 1669.26,-154.81 1715.01,-159.89"/>
<polygon fill="#757575" stroke="#757575" points="1714.64,-163.37 1724.96,-161 1715.41,-156.41 1714.64,-163.37"/>
</g>
<!-- infrastructure/repositories/DynamoDbRepository.ts&#45;&gt;application/errors.ts -->
<g id="edge31" class="edge">
<title>infrastructure/repositories/DynamoDbRepository.ts&#45;&gt;application/errors.ts</title>
<path fill="none" stroke="#757575" d="M1267.19,-134.04C1273.02,-136.48 1278.65,-139.29 1284,-142.5 1307.79,-156.78 1296.16,-179.31 1320,-193.5 1338.33,-204.41 1615.04,-232.69 1752.37,-246.16"/>
<polygon fill="#757575" stroke="#757575" points="1752.12,-249.65 1762.41,-247.14 1752.8,-242.68 1752.12,-249.65"/>
</g>
<!-- infrastructure/repositories/DynamoDbRepository.ts&#45;&gt;infrastructure/frameworks/date.ts -->
<g id="edge33" class="edge">
<title>infrastructure/repositories/DynamoDbRepository.ts&#45;&gt;infrastructure/frameworks/date.ts</title>
<path fill="none" stroke="#757575" d="M1270.71,-134.01C1275.35,-136.5 1279.8,-139.32 1284,-142.5 1316.71,-167.26 1287.92,-201.93 1320,-227.5 1329.06,-234.72 1339.45,-240.21 1350.41,-244.35"/>
<polygon fill="#757575" stroke="#757575" points="1349.58,-247.77 1360.18,-247.66 1351.83,-241.14 1349.58,-247.77"/>
</g>
<!-- infrastructure/repositories/DynamoDbRepository.ts&#45;&gt;infrastructure/frameworks/addCustomMetric.ts -->
<g id="edge32" class="edge">
<title>infrastructure/repositories/DynamoDbRepository.ts&#45;&gt;infrastructure/frameworks/addCustomMetric.ts</title>
<path fill="none" stroke="#757575" d="M1233.7,-134.02C1250.6,-136.43 1267.82,-139.25 1284,-142.5 1300.28,-145.77 1303.75,-149.09 1320,-152.5 1333.89,-155.41 1348.61,-158.05 1363.16,-160.39"/>
<polygon fill="#757575" stroke="#757575" points="1362.76,-163.87 1373.19,-161.96 1363.85,-156.95 1362.76,-163.87"/>
</g>
<!-- infrastructure/repositories/DynamoDbRepository.ts&#45;&gt;infrastructure/frameworks/getCleanedItems.ts -->
<g id="edge34" class="edge">
<title>infrastructure/repositories/DynamoDbRepository.ts&#45;&gt;infrastructure/frameworks/getCleanedItems.ts</title>
<path fill="none" stroke="#757575" d="M1284.02,-127.15C1293.41,-127.42 1302.85,-127.7 1312.22,-127.98"/>
<polygon fill="#757575" stroke="#757575" points="1312.25,-131.48 1322.35,-128.27 1312.46,-124.48 1312.25,-131.48"/>
</g>
<!-- infrastructure/repositories/LocalRepository.ts&#45;&gt;infrastructure/frameworks/date.ts -->
<g id="edge35" class="edge">
<title>infrastructure/repositories/LocalRepository.ts&#45;&gt;infrastructure/frameworks/date.ts</title>
<path fill="none" stroke="#757575" d="M1265.73,-175.07C1272.05,-177.48 1278.18,-180.28 1284,-183.5 1306.11,-195.73 1298.2,-214.72 1320,-227.5 1329.47,-233.05 1339.83,-237.48 1350.53,-241"/>
<polygon fill="#757575" stroke="#757575" points="1349.84,-244.45 1360.43,-243.98 1351.86,-237.74 1349.84,-244.45"/>
</g>
</g>
</svg>
