<?xml version="1.0" encoding="UTF-8" standalone="no"?>
<!DOCTYPE svg PUBLIC "-//W3C//DTD SVG 1.1//EN"
 "http://www.w3.org/Graphics/SVG/1.1/DTD/svg11.dtd">
<!-- Generated by graphviz version 7.0.6 (20230106.0513)
 -->
<!-- Title: G Pages: 1 -->
<svg width="1634pt" height="660pt"
 viewBox="0.00 0.00 1634.20 660.20" xmlns="http://www.w3.org/2000/svg" xmlns:xlink="http://www.w3.org/1999/xlink">
<g id="graph0" class="graph" transform="scale(1 1) rotate(0) translate(21.6 638.6)">
<title>G</title>
<polygon fill="#111111" stroke="none" points="-21.6,21.6 -21.6,-638.6 1612.6,-638.6 1612.6,21.6 -21.6,21.6"/>
<!-- application/getParser.ts -->
<g id="node1" class="node">
<title>application/getParser.ts</title>
<path fill="none" stroke="#c6c5fe" d="M797.33,-64C797.33,-64 655.67,-64 655.67,-64 651.83,-64 648,-60.17 648,-56.33 648,-56.33 648,-48.67 648,-48.67 648,-44.83 651.83,-41 655.67,-41 655.67,-41 797.33,-41 797.33,-41 801.17,-41 805,-44.83 805,-48.67 805,-48.67 805,-56.33 805,-56.33 805,-60.17 801.17,-64 797.33,-64"/>
<text text-anchor="middle" x="726.5" y="-48.8" font-family="Arial" font-size="14.00" fill="#c6c5fe">application/getParser.ts</text>
</g>
<!-- domain/services/GitHubParser.ts -->
<g id="node2" class="node">
<title>domain/services/GitHubParser.ts</title>
<path fill="none" stroke="#cfffac" d="M1200.33,-64C1200.33,-64 1000.67,-64 1000.67,-64 996.83,-64 993,-60.17 993,-56.33 993,-56.33 993,-48.67 993,-48.67 993,-44.83 996.83,-41 1000.67,-41 1000.67,-41 1200.33,-41 1200.33,-41 1204.17,-41 1208,-44.83 1208,-48.67 1208,-48.67 1208,-56.33 1208,-56.33 1208,-60.17 1204.17,-64 1200.33,-64"/>
<text text-anchor="middle" x="1100.5" y="-48.8" font-family="Arial" font-size="14.00" fill="#cfffac">domain/services/GitHubParser.ts</text>
</g>
<!-- application/getParser.ts&#45;&gt;domain/services/GitHubParser.ts -->
<g id="edge1" class="edge">
<title>application/getParser.ts&#45;&gt;domain/services/GitHubParser.ts</title>
<path fill="none" stroke="#757575" d="M805.48,-52.5C856.42,-52.5 923.89,-52.5 981.34,-52.5"/>
<polygon fill="#757575" stroke="#757575" points="981.18,-56 991.18,-52.5 981.18,-49 981.18,-56"/>
</g>
<!-- domain/services/Result.ts -->
<g id="node3" class="node">
<title>domain/services/Result.ts</title>
<path fill="none" stroke="#cfffac" d="M1178.33,-23C1178.33,-23 1022.67,-23 1022.67,-23 1018.83,-23 1015,-19.17 1015,-15.33 1015,-15.33 1015,-7.67 1015,-7.67 1015,-3.83 1018.83,0 1022.67,0 1022.67,0 1178.33,0 1178.33,0 1182.17,0 1186,-3.83 1186,-7.67 1186,-7.67 1186,-15.33 1186,-15.33 1186,-19.17 1182.17,-23 1178.33,-23"/>
<text text-anchor="middle" x="1100.5" y="-7.8" font-family="Arial" font-size="14.00" fill="#cfffac">domain/services/Result.ts</text>
</g>
<!-- application/getParser.ts&#45;&gt;domain/services/Result.ts -->
<g id="edge2" class="edge">
<title>application/getParser.ts&#45;&gt;domain/services/Result.ts</title>
<path fill="none" stroke="#757575" d="M805.48,-43.91C863.15,-37.55 942.01,-28.86 1003.54,-22.08"/>
<polygon fill="#757575" stroke="#757575" points="1003.76,-25.57 1013.31,-21 1002.99,-18.62 1003.76,-25.57"/>
</g>
<!-- application/getRequestDTO.ts -->
<g id="node4" class="node">
<title>application/getRequestDTO.ts</title>
<path fill="none" stroke="#cfffac" d="M497.83,-454C497.83,-454 316.17,-454 316.17,-454 312.33,-454 308.5,-450.17 308.5,-446.33 308.5,-446.33 308.5,-438.67 308.5,-438.67 308.5,-434.83 312.33,-431 316.17,-431 316.17,-431 497.83,-431 497.83,-431 501.67,-431 505.5,-434.83 505.5,-438.67 505.5,-438.67 505.5,-446.33 505.5,-446.33 505.5,-450.17 501.67,-454 497.83,-454"/>
<text text-anchor="middle" x="407" y="-438.8" font-family="Arial" font-size="14.00" fill="#cfffac">application/getRequestDTO.ts</text>
</g>
<!-- application/mapResultToUsecase.ts -->
<g id="node5" class="node">
<title>application/mapResultToUsecase.ts</title>
<path fill="none" stroke="#c6c5fe" d="M834.33,-310C834.33,-310 618.67,-310 618.67,-310 614.83,-310 611,-306.17 611,-302.33 611,-302.33 611,-294.67 611,-294.67 611,-290.83 614.83,-287 618.67,-287 618.67,-287 834.33,-287 834.33,-287 838.17,-287 842,-290.83 842,-294.67 842,-294.67 842,-302.33 842,-302.33 842,-306.17 838.17,-310 834.33,-310"/>
<text text-anchor="middle" x="726.5" y="-294.8" font-family="Arial" font-size="14.00" fill="#c6c5fe">application/mapResultToUsecase.ts</text>
</g>
<!-- usecases/approved.ts -->
<g id="node6" class="node">
<title>usecases/approved.ts</title>
<path fill="none" stroke="#cfffac" d="M1166.83,-310C1166.83,-310 1034.17,-310 1034.17,-310 1030.33,-310 1026.5,-306.17 1026.5,-302.33 1026.5,-302.33 1026.5,-294.67 1026.5,-294.67 1026.5,-290.83 1030.33,-287 1034.17,-287 1034.17,-287 1166.83,-287 1166.83,-287 1170.67,-287 1174.5,-290.83 1174.5,-294.67 1174.5,-294.67 1174.5,-302.33 1174.5,-302.33 1174.5,-306.17 1170.67,-310 1166.83,-310"/>
<text text-anchor="middle" x="1100.5" y="-294.8" font-family="Arial" font-size="14.00" fill="#cfffac">usecases/approved.ts</text>
</g>
<!-- application/mapResultToUsecase.ts&#45;&gt;usecases/approved.ts -->
<g id="edge3" class="edge">
<title>application/mapResultToUsecase.ts&#45;&gt;usecases/approved.ts</title>
<path fill="none" stroke="#757575" d="M842.4,-298.5C898.06,-298.5 963.72,-298.5 1014.75,-298.5"/>
<polygon fill="#757575" stroke="#757575" points="1014.55,-302 1024.55,-298.5 1014.55,-295 1014.55,-302"/>
</g>
<!-- usecases/changesRequested.ts -->
<g id="node7" class="node">
<title>usecases/changesRequested.ts</title>
<path fill="none" stroke="#cfffac" d="M1196.83,-269C1196.83,-269 1004.17,-269 1004.17,-269 1000.33,-269 996.5,-265.17 996.5,-261.33 996.5,-261.33 996.5,-253.67 996.5,-253.67 996.5,-249.83 1000.33,-246 1004.17,-246 1004.17,-246 1196.83,-246 1196.83,-246 1200.67,-246 1204.5,-249.83 1204.5,-253.67 1204.5,-253.67 1204.5,-261.33 1204.5,-261.33 1204.5,-265.17 1200.67,-269 1196.83,-269"/>
<text text-anchor="middle" x="1100.5" y="-253.8" font-family="Arial" font-size="14.00" fill="#cfffac">usecases/changesRequested.ts</text>
</g>
<!-- application/mapResultToUsecase.ts&#45;&gt;usecases/changesRequested.ts -->
<g id="edge4" class="edge">
<title>application/mapResultToUsecase.ts&#45;&gt;usecases/changesRequested.ts</title>
<path fill="none" stroke="#757575" d="M836.35,-286.5C883,-281.36 937.52,-275.35 984.79,-270.14"/>
<polygon fill="#757575" stroke="#757575" points="984.96,-273.65 994.51,-269.07 984.19,-266.69 984.96,-273.65"/>
</g>
<!-- usecases/closed.ts -->
<g id="node8" class="node">
<title>usecases/closed.ts</title>
<path fill="none" stroke="#cfffac" d="M1158.33,-228C1158.33,-228 1042.67,-228 1042.67,-228 1038.83,-228 1035,-224.17 1035,-220.33 1035,-220.33 1035,-212.67 1035,-212.67 1035,-208.83 1038.83,-205 1042.67,-205 1042.67,-205 1158.33,-205 1158.33,-205 1162.17,-205 1166,-208.83 1166,-212.67 1166,-212.67 1166,-220.33 1166,-220.33 1166,-224.17 1162.17,-228 1158.33,-228"/>
<text text-anchor="middle" x="1100.5" y="-212.8" font-family="Arial" font-size="14.00" fill="#cfffac">usecases/closed.ts</text>
</g>
<!-- application/mapResultToUsecase.ts&#45;&gt;usecases/closed.ts -->
<g id="edge5" class="edge">
<title>application/mapResultToUsecase.ts&#45;&gt;usecases/closed.ts</title>
<path fill="none" stroke="#757575" d="M842.46,-297.28C864.1,-293.67 885.91,-287.54 905,-277.5 926.46,-266.22 919.58,-247.87 941,-236.5 965.87,-223.3 995.93,-217.43 1023.16,-215.14"/>
<polygon fill="#757575" stroke="#757575" points="1023.38,-218.63 1033.13,-214.47 1022.91,-211.65 1023.38,-218.63"/>
</g>
<!-- usecases/commented.ts -->
<g id="node9" class="node">
<title>usecases/commented.ts</title>
<path fill="none" stroke="#cfffac" d="M1174.83,-187C1174.83,-187 1026.17,-187 1026.17,-187 1022.33,-187 1018.5,-183.17 1018.5,-179.33 1018.5,-179.33 1018.5,-171.67 1018.5,-171.67 1018.5,-167.83 1022.33,-164 1026.17,-164 1026.17,-164 1174.83,-164 1174.83,-164 1178.67,-164 1182.5,-167.83 1182.5,-171.67 1182.5,-171.67 1182.5,-179.33 1182.5,-179.33 1182.5,-183.17 1178.67,-187 1174.83,-187"/>
<text text-anchor="middle" x="1100.5" y="-171.8" font-family="Arial" font-size="14.00" fill="#cfffac">usecases/commented.ts</text>
</g>
<!-- application/mapResultToUsecase.ts&#45;&gt;usecases/commented.ts -->
<g id="edge6" class="edge">
<title>application/mapResultToUsecase.ts&#45;&gt;usecases/commented.ts</title>
<path fill="none" stroke="#757575" d="M842.49,-302.24C864.85,-298.38 886.92,-290.89 905,-277.5 936.99,-253.81 909.11,-219.31 941,-195.5 959.81,-181.45 983.51,-174.51 1006.81,-171.51"/>
<polygon fill="#757575" stroke="#757575" points="1007.1,-175 1016.69,-170.49 1006.39,-168.03 1007.1,-175"/>
</g>
<!-- usecases/merged.ts -->
<g id="node10" class="node">
<title>usecases/merged.ts</title>
<path fill="none" stroke="#cfffac" d="M1161.83,-146C1161.83,-146 1039.17,-146 1039.17,-146 1035.33,-146 1031.5,-142.17 1031.5,-138.33 1031.5,-138.33 1031.5,-130.67 1031.5,-130.67 1031.5,-126.83 1035.33,-123 1039.17,-123 1039.17,-123 1161.83,-123 1161.83,-123 1165.67,-123 1169.5,-126.83 1169.5,-130.67 1169.5,-130.67 1169.5,-138.33 1169.5,-138.33 1169.5,-142.17 1165.67,-146 1161.83,-146"/>
<text text-anchor="middle" x="1100.5" y="-130.8" font-family="Arial" font-size="14.00" fill="#cfffac">usecases/merged.ts</text>
</g>
<!-- application/mapResultToUsecase.ts&#45;&gt;usecases/merged.ts -->
<g id="edge7" class="edge">
<title>application/mapResultToUsecase.ts&#45;&gt;usecases/merged.ts</title>
<path fill="none" stroke="#757575" d="M842.49,-304.23C865.24,-300.34 887.47,-292.33 905,-277.5 948.5,-240.72 897.65,-191.45 941,-154.5 962.52,-136.16 992.04,-129.25 1019.77,-127.59"/>
<polygon fill="#757575" stroke="#757575" points="1019.73,-131.09 1029.6,-127.23 1019.48,-124.09 1019.73,-131.09"/>
</g>
<!-- usecases/opened.ts -->
<g id="node11" class="node">
<title>usecases/opened.ts</title>
<path fill="none" stroke="#cfffac" d="M1161.33,-105C1161.33,-105 1039.67,-105 1039.67,-105 1035.83,-105 1032,-101.17 1032,-97.33 1032,-97.33 1032,-89.67 1032,-89.67 1032,-85.83 1035.83,-82 1039.67,-82 1039.67,-82 1161.33,-82 1161.33,-82 1165.17,-82 1169,-85.83 1169,-89.67 1169,-89.67 1169,-97.33 1169,-97.33 1169,-101.17 1165.17,-105 1161.33,-105"/>
<text text-anchor="middle" x="1100.5" y="-89.8" font-family="Arial" font-size="14.00" fill="#cfffac">usecases/opened.ts</text>
</g>
<!-- application/mapResultToUsecase.ts&#45;&gt;usecases/opened.ts -->
<g id="edge8" class="edge">
<title>application/mapResultToUsecase.ts&#45;&gt;usecases/opened.ts</title>
<path fill="none" stroke="#757575" d="M842.36,-305.29C865.38,-301.4 887.75,-293.13 905,-277.5 960.3,-227.39 885.9,-163.82 941,-113.5 962.15,-94.18 992.03,-87.2 1020.15,-85.74"/>
<polygon fill="#757575" stroke="#757575" points="1020.23,-89.24 1030.14,-85.47 1020.05,-82.24 1020.23,-89.24"/>
</g>
<!-- usecases/pushed.ts -->
<g id="node12" class="node">
<title>usecases/pushed.ts</title>
<path fill="none" stroke="#cfffac" d="M1160.83,-474C1160.83,-474 1040.17,-474 1040.17,-474 1036.33,-474 1032.5,-470.17 1032.5,-466.33 1032.5,-466.33 1032.5,-458.67 1032.5,-458.67 1032.5,-454.83 1036.33,-451 1040.17,-451 1040.17,-451 1160.83,-451 1160.83,-451 1164.67,-451 1168.5,-454.83 1168.5,-458.67 1168.5,-458.67 1168.5,-466.33 1168.5,-466.33 1168.5,-470.17 1164.67,-474 1160.83,-474"/>
<text text-anchor="middle" x="1100.5" y="-458.8" font-family="Arial" font-size="14.00" fill="#cfffac">usecases/pushed.ts</text>
</g>
<!-- application/mapResultToUsecase.ts&#45;&gt;usecases/pushed.ts -->
<g id="edge9" class="edge">
<title>application/mapResultToUsecase.ts&#45;&gt;usecases/pushed.ts</title>
<path fill="none" stroke="#757575" d="M740.27,-310.24C771.67,-338.34 856.27,-409.52 941,-441.5 966.11,-450.98 994.86,-456.29 1020.93,-459.24"/>
<polygon fill="#757575" stroke="#757575" points="1020.49,-462.71 1030.79,-460.24 1021.2,-455.75 1020.49,-462.71"/>
</g>
<!-- usecases/reviewPickedUp.ts -->
<g id="node13" class="node">
<title>usecases/reviewPickedUp.ts</title>
<path fill="none" stroke="#cfffac" d="M1186.83,-433C1186.83,-433 1014.17,-433 1014.17,-433 1010.33,-433 1006.5,-429.17 1006.5,-425.33 1006.5,-425.33 1006.5,-417.67 1006.5,-417.67 1006.5,-413.83 1010.33,-410 1014.17,-410 1014.17,-410 1186.83,-410 1186.83,-410 1190.67,-410 1194.5,-413.83 1194.5,-417.67 1194.5,-417.67 1194.5,-425.33 1194.5,-425.33 1194.5,-429.17 1190.67,-433 1186.83,-433"/>
<text text-anchor="middle" x="1100.5" y="-417.8" font-family="Arial" font-size="14.00" fill="#cfffac">usecases/reviewPickedUp.ts</text>
</g>
<!-- application/mapResultToUsecase.ts&#45;&gt;usecases/reviewPickedUp.ts -->
<g id="edge10" class="edge">
<title>application/mapResultToUsecase.ts&#45;&gt;usecases/reviewPickedUp.ts</title>
<path fill="none" stroke="#757575" d="M746.97,-310.4C783.53,-332.14 865.59,-378.1 941,-400.5 958.19,-405.6 976.79,-409.47 995.01,-412.4"/>
<polygon fill="#757575" stroke="#757575" points="994.37,-415.84 1004.78,-413.88 995.42,-408.92 994.37,-415.84"/>
</g>
<!-- usecases/reviewTime.ts -->
<g id="node14" class="node">
<title>usecases/reviewTime.ts</title>
<path fill="none" stroke="#cfffac" d="M1173.33,-392C1173.33,-392 1027.67,-392 1027.67,-392 1023.83,-392 1020,-388.17 1020,-384.33 1020,-384.33 1020,-376.67 1020,-376.67 1020,-372.83 1023.83,-369 1027.67,-369 1027.67,-369 1173.33,-369 1173.33,-369 1177.17,-369 1181,-372.83 1181,-376.67 1181,-376.67 1181,-384.33 1181,-384.33 1181,-388.17 1177.17,-392 1173.33,-392"/>
<text text-anchor="middle" x="1100.5" y="-376.8" font-family="Arial" font-size="14.00" fill="#cfffac">usecases/reviewTime.ts</text>
</g>
<!-- application/mapResultToUsecase.ts&#45;&gt;usecases/reviewTime.ts -->
<g id="edge11" class="edge">
<title>application/mapResultToUsecase.ts&#45;&gt;usecases/reviewTime.ts</title>
<path fill="none" stroke="#757575" d="M763.36,-310.49C805.46,-324.17 877.59,-346.32 941,-359.5 962.74,-364.02 986.36,-367.77 1008.58,-370.78"/>
<polygon fill="#757575" stroke="#757575" points="1007.83,-374.21 1018.2,-372.05 1008.74,-367.27 1007.83,-374.21"/>
</g>
<!-- usecases/reviewed.ts -->
<g id="node15" class="node">
<title>usecases/reviewed.ts</title>
<path fill="none" stroke="#cfffac" d="M1165.83,-351C1165.83,-351 1035.17,-351 1035.17,-351 1031.33,-351 1027.5,-347.17 1027.5,-343.33 1027.5,-343.33 1027.5,-335.67 1027.5,-335.67 1027.5,-331.83 1031.33,-328 1035.17,-328 1035.17,-328 1165.83,-328 1165.83,-328 1169.67,-328 1173.5,-331.83 1173.5,-335.67 1173.5,-335.67 1173.5,-343.33 1173.5,-343.33 1173.5,-347.17 1169.67,-351 1165.83,-351"/>
<text text-anchor="middle" x="1100.5" y="-335.8" font-family="Arial" font-size="14.00" fill="#cfffac">usecases/reviewed.ts</text>
</g>
<!-- application/mapResultToUsecase.ts&#45;&gt;usecases/reviewed.ts -->
<g id="edge12" class="edge">
<title>application/mapResultToUsecase.ts&#45;&gt;usecases/reviewed.ts</title>
<path fill="none" stroke="#757575" d="M836.35,-310.5C893.58,-316.8 962.66,-324.42 1015.68,-330.26"/>
<polygon fill="#757575" stroke="#757575" points="1015.25,-333.74 1025.57,-331.35 1016.02,-326.78 1015.25,-333.74"/>
</g>
<!-- domain/services/Metrics.ts -->
<g id="node16" class="node">
<title>domain/services/Metrics.ts</title>
<path fill="none" stroke="#cfffac" d="M807.33,-535C807.33,-535 645.67,-535 645.67,-535 641.83,-535 638,-531.17 638,-527.33 638,-527.33 638,-519.67 638,-519.67 638,-515.83 641.83,-512 645.67,-512 645.67,-512 807.33,-512 807.33,-512 811.17,-512 815,-515.83 815,-519.67 815,-519.67 815,-527.33 815,-527.33 815,-531.17 811.17,-535 807.33,-535"/>
<text text-anchor="middle" x="726.5" y="-519.8" font-family="Arial" font-size="14.00" fill="#cfffac">domain/services/Metrics.ts</text>
</g>
<!-- infrastructure/adapters/web/AddMetrics.ts -->
<g id="node17" class="node">
<title>infrastructure/adapters/web/AddMetrics.ts</title>
<path fill="none" stroke="#c6c5fe" d="M258.33,-351C258.33,-351 7.67,-351 7.67,-351 3.83,-351 0,-347.17 0,-343.33 0,-343.33 0,-335.67 0,-335.67 0,-331.83 3.83,-328 7.67,-328 7.67,-328 258.33,-328 258.33,-328 262.17,-328 266,-331.83 266,-335.67 266,-335.67 266,-343.33 266,-343.33 266,-347.17 262.17,-351 258.33,-351"/>
<text text-anchor="middle" x="133" y="-335.8" font-family="Arial" font-size="14.00" fill="#c6c5fe">infrastructure/adapters/web/AddMetrics.ts</text>
</g>
<!-- infrastructure/frameworks/end.ts -->
<g id="node18" class="node">
<title>infrastructure/frameworks/end.ts</title>
<path fill="none" stroke="#cfffac" d="M504.33,-392C504.33,-392 309.67,-392 309.67,-392 305.83,-392 302,-388.17 302,-384.33 302,-384.33 302,-376.67 302,-376.67 302,-372.83 305.83,-369 309.67,-369 309.67,-369 504.33,-369 504.33,-369 508.17,-369 512,-372.83 512,-376.67 512,-376.67 512,-384.33 512,-384.33 512,-388.17 508.17,-392 504.33,-392"/>
<text text-anchor="middle" x="407" y="-376.8" font-family="Arial" font-size="14.00" fill="#cfffac">infrastructure/frameworks/end.ts</text>
</g>
<!-- infrastructure/adapters/web/AddMetrics.ts&#45;&gt;infrastructure/frameworks/end.ts -->
<g id="edge13" class="edge">
<title>infrastructure/adapters/web/AddMetrics.ts&#45;&gt;infrastructure/frameworks/end.ts</title>
<path fill="none" stroke="#757575" d="M213.4,-351.47C245.38,-356.29 282.45,-361.88 315.47,-366.85"/>
<polygon fill="#757575" stroke="#757575" points="314.59,-370.26 325,-368.29 315.63,-363.34 314.59,-370.26"/>
</g>
<!-- usecases/addMetric.ts -->
<g id="node19" class="node">
<title>usecases/addMetric.ts</title>
<path fill="none" stroke="#c6c5fe" d="M475.33,-310C475.33,-310 338.67,-310 338.67,-310 334.83,-310 331,-306.17 331,-302.33 331,-302.33 331,-294.67 331,-294.67 331,-290.83 334.83,-287 338.67,-287 338.67,-287 475.33,-287 475.33,-287 479.17,-287 483,-290.83 483,-294.67 483,-294.67 483,-302.33 483,-302.33 483,-306.17 479.17,-310 475.33,-310"/>
<text text-anchor="middle" x="407" y="-294.8" font-family="Arial" font-size="14.00" fill="#c6c5fe">usecases/addMetric.ts</text>
</g>
<!-- infrastructure/adapters/web/AddMetrics.ts&#45;&gt;usecases/addMetric.ts -->
<g id="edge14" class="edge">
<title>infrastructure/adapters/web/AddMetrics.ts&#45;&gt;usecases/addMetric.ts</title>
<path fill="none" stroke="#757575" d="M213.4,-327.53C246.65,-322.52 285.39,-316.68 319.37,-311.56"/>
<polygon fill="#757575" stroke="#757575" points="319.84,-315.03 329.2,-310.08 318.79,-308.11 319.84,-315.03"/>
</g>
<!-- usecases/addMetric.ts&#45;&gt;application/getParser.ts -->
<g id="edge24" class="edge">
<title>usecases/addMetric.ts&#45;&gt;application/getParser.ts</title>
<path fill="none" stroke="#757575" d="M423.31,-286.63C474.34,-247.1 638.89,-119.61 701.24,-71.29"/>
<polygon fill="#757575" stroke="#757575" points="703.38,-74.06 709.14,-65.17 699.09,-68.53 703.38,-74.06"/>
</g>
<!-- usecases/addMetric.ts&#45;&gt;application/mapResultToUsecase.ts -->
<g id="edge25" class="edge">
<title>usecases/addMetric.ts&#45;&gt;application/mapResultToUsecase.ts</title>
<path fill="none" stroke="#757575" d="M483.24,-298.5C517.95,-298.5 560.1,-298.5 599.45,-298.5"/>
<polygon fill="#757575" stroke="#757575" points="599.22,-302 609.22,-298.5 599.22,-295 599.22,-302"/>
</g>
<!-- infrastructure/frameworks/getRepo.ts -->
<g id="node23" class="node">
<title>infrastructure/frameworks/getRepo.ts</title>
<path fill="none" stroke="#c6c5fe" d="M838.33,-494C838.33,-494 614.67,-494 614.67,-494 610.83,-494 607,-490.17 607,-486.33 607,-486.33 607,-478.67 607,-478.67 607,-474.83 610.83,-471 614.67,-471 614.67,-471 838.33,-471 838.33,-471 842.17,-471 846,-474.83 846,-478.67 846,-478.67 846,-486.33 846,-486.33 846,-490.17 842.17,-494 838.33,-494"/>
<text text-anchor="middle" x="726.5" y="-478.8" font-family="Arial" font-size="14.00" fill="#c6c5fe">infrastructure/frameworks/getRepo.ts</text>
</g>
<!-- usecases/addMetric.ts&#45;&gt;infrastructure/frameworks/getRepo.ts -->
<g id="edge27" class="edge">
<title>usecases/addMetric.ts&#45;&gt;infrastructure/frameworks/getRepo.ts</title>
<path fill="none" stroke="#757575" d="M428.34,-310.29C482.54,-341.7 630.63,-427.52 694.98,-464.81"/>
<polygon fill="#757575" stroke="#757575" points="693.2,-467.83 703.6,-469.81 696.71,-461.77 693.2,-467.83"/>
</g>
<!-- infrastructure/frameworks/getLowerCaseHeaders.ts -->
<g id="node29" class="node">
<title>infrastructure/frameworks/getLowerCaseHeaders.ts</title>
<path fill="none" stroke="#cfffac" d="M881.83,-269C881.83,-269 571.17,-269 571.17,-269 567.33,-269 563.5,-265.17 563.5,-261.33 563.5,-261.33 563.5,-253.67 563.5,-253.67 563.5,-249.83 567.33,-246 571.17,-246 571.17,-246 881.83,-246 881.83,-246 885.67,-246 889.5,-249.83 889.5,-253.67 889.5,-253.67 889.5,-261.33 889.5,-261.33 889.5,-265.17 885.67,-269 881.83,-269"/>
<text text-anchor="middle" x="726.5" y="-253.8" font-family="Arial" font-size="14.00" fill="#cfffac">infrastructure/frameworks/getLowerCaseHeaders.ts</text>
</g>
<!-- usecases/addMetric.ts&#45;&gt;infrastructure/frameworks/getLowerCaseHeaders.ts -->
<g id="edge26" class="edge">
<title>usecases/addMetric.ts&#45;&gt;infrastructure/frameworks/getLowerCaseHeaders.ts</title>
<path fill="none" stroke="#757575" d="M483.49,-286.66C504.37,-283.52 527.04,-280.25 548,-277.5 565.57,-275.19 584.14,-272.92 602.39,-270.78"/>
<polygon fill="#757575" stroke="#757575" points="602.66,-274.27 612.19,-269.64 601.85,-267.32 602.66,-274.27"/>
</g>
<!-- infrastructure/adapters/web/Authorizer.ts -->
<g id="node20" class="node">
<title>infrastructure/adapters/web/Authorizer.ts</title>
<path fill="none" stroke="#c6c5fe" d="M254.83,-596C254.83,-596 11.17,-596 11.17,-596 7.33,-596 3.5,-592.17 3.5,-588.33 3.5,-588.33 3.5,-580.67 3.5,-580.67 3.5,-576.83 7.33,-573 11.17,-573 11.17,-573 254.83,-573 254.83,-573 258.67,-573 262.5,-576.83 262.5,-580.67 262.5,-580.67 262.5,-588.33 262.5,-588.33 262.5,-592.17 258.67,-596 254.83,-596"/>
<text text-anchor="middle" x="133" y="-580.8" font-family="Arial" font-size="14.00" fill="#c6c5fe">infrastructure/adapters/web/Authorizer.ts</text>
</g>
<!-- usecases/authorize.ts -->
<g id="node21" class="node">
<title>usecases/authorize.ts</title>
<path fill="none" stroke="#c6c5fe" d="M472.83,-596C472.83,-596 341.17,-596 341.17,-596 337.33,-596 333.5,-592.17 333.5,-588.33 333.5,-588.33 333.5,-580.67 333.5,-580.67 333.5,-576.83 337.33,-573 341.17,-573 341.17,-573 472.83,-573 472.83,-573 476.67,-573 480.5,-576.83 480.5,-580.67 480.5,-580.67 480.5,-588.33 480.5,-588.33 480.5,-592.17 476.67,-596 472.83,-596"/>
<text text-anchor="middle" x="407" y="-580.8" font-family="Arial" font-size="14.00" fill="#c6c5fe">usecases/authorize.ts</text>
</g>
<!-- infrastructure/adapters/web/Authorizer.ts&#45;&gt;usecases/authorize.ts -->
<g id="edge15" class="edge">
<title>infrastructure/adapters/web/Authorizer.ts&#45;&gt;usecases/authorize.ts</title>
<path fill="none" stroke="#757575" d="M262.83,-584.5C282.84,-584.5 303.07,-584.5 321.75,-584.5"/>
<polygon fill="#757575" stroke="#757575" points="321.66,-588 331.66,-584.5 321.66,-581 321.66,-588"/>
</g>
<!-- infrastructure/frameworks/authorization/generatePolicy.ts -->
<g id="node26" class="node">
<title>infrastructure/frameworks/authorization/generatePolicy.ts</title>
<path fill="none" stroke="#cfffac" d="M897.33,-617C897.33,-617 555.67,-617 555.67,-617 551.83,-617 548,-613.17 548,-609.33 548,-609.33 548,-601.67 548,-601.67 548,-597.83 551.83,-594 555.67,-594 555.67,-594 897.33,-594 897.33,-594 901.17,-594 905,-597.83 905,-601.67 905,-601.67 905,-609.33 905,-609.33 905,-613.17 901.17,-617 897.33,-617"/>
<text text-anchor="middle" x="726.5" y="-601.8" font-family="Arial" font-size="14.00" fill="#cfffac">infrastructure/frameworks/authorization/generatePolicy.ts</text>
</g>
<!-- usecases/authorize.ts&#45;&gt;infrastructure/frameworks/authorization/generatePolicy.ts -->
<g id="edge28" class="edge">
<title>usecases/authorize.ts&#45;&gt;infrastructure/frameworks/authorization/generatePolicy.ts</title>
<path fill="none" stroke="#757575" d="M480.84,-589.32C497.91,-590.45 516.87,-591.7 536.47,-593"/>
<polygon fill="#757575" stroke="#757575" points="536.03,-596.48 546.24,-593.64 536.49,-589.49 536.03,-596.48"/>
</g>
<!-- infrastructure/frameworks/authorization/handleCors.ts -->
<g id="node27" class="node">
<title>infrastructure/frameworks/authorization/handleCors.ts</title>
<path fill="none" stroke="#cfffac" d="M887.83,-576C887.83,-576 565.17,-576 565.17,-576 561.33,-576 557.5,-572.17 557.5,-568.33 557.5,-568.33 557.5,-560.67 557.5,-560.67 557.5,-556.83 561.33,-553 565.17,-553 565.17,-553 887.83,-553 887.83,-553 891.67,-553 895.5,-556.83 895.5,-560.67 895.5,-560.67 895.5,-568.33 895.5,-568.33 895.5,-572.17 891.67,-576 887.83,-576"/>
<text text-anchor="middle" x="726.5" y="-560.8" font-family="Arial" font-size="14.00" fill="#cfffac">infrastructure/frameworks/authorization/handleCors.ts</text>
</g>
<!-- usecases/authorize.ts&#45;&gt;infrastructure/frameworks/authorization/handleCors.ts -->
<g id="edge29" class="edge">
<title>usecases/authorize.ts&#45;&gt;infrastructure/frameworks/authorization/handleCors.ts</title>
<path fill="none" stroke="#757575" d="M480.84,-579.91C500.59,-578.67 522.87,-577.26 545.74,-575.82"/>
<polygon fill="#757575" stroke="#757575" points="545.74,-579.33 555.5,-575.21 545.3,-572.34 545.74,-579.33"/>
</g>
<!-- infrastructure/adapters/web/GetMetrics.ts -->
<g id="node22" class="node">
<title>infrastructure/adapters/web/GetMetrics.ts</title>
<path fill="none" stroke="#c6c5fe" d="M257.83,-474C257.83,-474 8.17,-474 8.17,-474 4.33,-474 0.5,-470.17 0.5,-466.33 0.5,-466.33 0.5,-458.67 0.5,-458.67 0.5,-454.83 4.33,-451 8.17,-451 8.17,-451 257.83,-451 257.83,-451 261.67,-451 265.5,-454.83 265.5,-458.67 265.5,-458.67 265.5,-466.33 265.5,-466.33 265.5,-470.17 261.67,-474 257.83,-474"/>
<text text-anchor="middle" x="133" y="-458.8" font-family="Arial" font-size="14.00" fill="#c6c5fe">infrastructure/adapters/web/GetMetrics.ts</text>
</g>
<!-- infrastructure/adapters/web/GetMetrics.ts&#45;&gt;application/getRequestDTO.ts -->
<g id="edge16" class="edge">
<title>infrastructure/adapters/web/GetMetrics.ts&#45;&gt;application/getRequestDTO.ts</title>
<path fill="none" stroke="#757575" d="M265.62,-452.82C276.17,-452.05 286.76,-451.27 297.14,-450.5"/>
<polygon fill="#757575" stroke="#757575" points="297.07,-454.02 306.78,-449.8 296.55,-447.04 297.07,-454.02"/>
</g>
<!-- infrastructure/adapters/web/GetMetrics.ts&#45;&gt;infrastructure/frameworks/end.ts -->
<g id="edge17" class="edge">
<title>infrastructure/adapters/web/GetMetrics.ts&#45;&gt;infrastructure/frameworks/end.ts</title>
<path fill="none" stroke="#757575" d="M173.55,-450.58C221.7,-436.06 303.06,-411.53 355.64,-395.68"/>
<polygon fill="#757575" stroke="#757575" points="356.39,-399.11 364.95,-392.87 354.37,-392.41 356.39,-399.11"/>
</g>
<!-- infrastructure/adapters/web/GetMetrics.ts&#45;&gt;infrastructure/frameworks/getRepo.ts -->
<g id="edge18" class="edge">
<title>infrastructure/adapters/web/GetMetrics.ts&#45;&gt;infrastructure/frameworks/getRepo.ts</title>
<path fill="none" stroke="#757575" d="M265.64,-466.95C363.88,-470.27 497.46,-474.79 595.34,-478.1"/>
<polygon fill="#757575" stroke="#757575" points="595.17,-481.6 605.28,-478.44 595.4,-474.6 595.17,-481.6"/>
</g>
<!-- usecases/getMetrics.ts -->
<g id="node24" class="node">
<title>usecases/getMetrics.ts</title>
<path fill="none" stroke="#c6c5fe" d="M476.83,-535C476.83,-535 337.17,-535 337.17,-535 333.33,-535 329.5,-531.17 329.5,-527.33 329.5,-527.33 329.5,-519.67 329.5,-519.67 329.5,-515.83 333.33,-512 337.17,-512 337.17,-512 476.83,-512 476.83,-512 480.67,-512 484.5,-515.83 484.5,-519.67 484.5,-519.67 484.5,-527.33 484.5,-527.33 484.5,-531.17 480.67,-535 476.83,-535"/>
<text text-anchor="middle" x="407" y="-519.8" font-family="Arial" font-size="14.00" fill="#c6c5fe">usecases/getMetrics.ts</text>
</g>
<!-- infrastructure/adapters/web/GetMetrics.ts&#45;&gt;usecases/getMetrics.ts -->
<g id="edge19" class="edge">
<title>infrastructure/adapters/web/GetMetrics.ts&#45;&gt;usecases/getMetrics.ts</title>
<path fill="none" stroke="#757575" d="M187.41,-474.48C231.67,-484.4 294.71,-498.54 341.73,-509.09"/>
<polygon fill="#757575" stroke="#757575" points="340.71,-512.44 351.23,-511.22 342.24,-505.61 340.71,-512.44"/>
</g>
<!-- infrastructure/repositories/DynamoDbRepository.ts -->
<g id="node30" class="node">
<title>infrastructure/repositories/DynamoDbRepository.ts</title>
<path fill="none" stroke="#c6c5fe" d="M1252.33,-556C1252.33,-556 948.67,-556 948.67,-556 944.83,-556 941,-552.17 941,-548.33 941,-548.33 941,-540.67 941,-540.67 941,-536.83 944.83,-533 948.67,-533 948.67,-533 1252.33,-533 1252.33,-533 1256.17,-533 1260,-536.83 1260,-540.67 1260,-540.67 1260,-548.33 1260,-548.33 1260,-552.17 1256.17,-556 1252.33,-556"/>
<text text-anchor="middle" x="1100.5" y="-540.8" font-family="Arial" font-size="14.00" fill="#c6c5fe">infrastructure/repositories/DynamoDbRepository.ts</text>
</g>
<!-- infrastructure/frameworks/getRepo.ts&#45;&gt;infrastructure/repositories/DynamoDbRepository.ts -->
<g id="edge20" class="edge">
<title>infrastructure/frameworks/getRepo.ts&#45;&gt;infrastructure/repositories/DynamoDbRepository.ts</title>
<path fill="none" stroke="#757575" d="M846.42,-488.98C866.29,-492.02 886.46,-496.35 905,-502.5 922.58,-508.33 923.48,-517.5 941,-523.5 948.06,-525.92 955.38,-528.06 962.83,-529.95"/>
<polygon fill="#757575" stroke="#757575" points="961.82,-533.31 972.36,-532.21 963.44,-526.5 961.82,-533.31"/>
</g>
<!-- infrastructure/repositories/LocalRepository.ts -->
<g id="node31" class="node">
<title>infrastructure/repositories/LocalRepository.ts</title>
<path fill="none" stroke="#cfffac" d="M1234.33,-515C1234.33,-515 966.67,-515 966.67,-515 962.83,-515 959,-511.17 959,-507.33 959,-507.33 959,-499.67 959,-499.67 959,-495.83 962.83,-492 966.67,-492 966.67,-492 1234.33,-492 1234.33,-492 1238.17,-492 1242,-495.83 1242,-499.67 1242,-499.67 1242,-507.33 1242,-507.33 1242,-511.17 1238.17,-515 1234.33,-515"/>
<text text-anchor="middle" x="1100.5" y="-499.8" font-family="Arial" font-size="14.00" fill="#cfffac">infrastructure/repositories/LocalRepository.ts</text>
</g>
<!-- infrastructure/frameworks/getRepo.ts&#45;&gt;infrastructure/repositories/LocalRepository.ts -->
<g id="edge21" class="edge">
<title>infrastructure/frameworks/getRepo.ts&#45;&gt;infrastructure/repositories/LocalRepository.ts</title>
<path fill="none" stroke="#757575" d="M846.48,-489.22C878.57,-491.03 913.72,-493.01 947.35,-494.91"/>
<polygon fill="#757575" stroke="#757575" points="947,-498.4 957.18,-495.47 947.39,-491.41 947,-498.4"/>
</g>
<!-- usecases/getMetrics.ts&#45;&gt;domain/services/Metrics.ts -->
<g id="edge30" class="edge">
<title>usecases/getMetrics.ts&#45;&gt;domain/services/Metrics.ts</title>
<path fill="none" stroke="#757575" d="M484.86,-523.5C527.32,-523.5 580.56,-523.5 626.15,-523.5"/>
<polygon fill="#757575" stroke="#757575" points="626.05,-527 636.05,-523.5 626.05,-520 626.05,-527"/>
</g>
<!-- infrastructure/frameworks/addCustomMetric.ts -->
<g id="node25" class="node">
<title>infrastructure/frameworks/addCustomMetric.ts</title>
<path fill="none" stroke="#cfffac" d="M1583.33,-576C1583.33,-576 1303.67,-576 1303.67,-576 1299.83,-576 1296,-572.17 1296,-568.33 1296,-568.33 1296,-560.67 1296,-560.67 1296,-556.83 1299.83,-553 1303.67,-553 1303.67,-553 1583.33,-553 1583.33,-553 1587.17,-553 1591,-556.83 1591,-560.67 1591,-560.67 1591,-568.33 1591,-568.33 1591,-572.17 1587.17,-576 1583.33,-576"/>
<text text-anchor="middle" x="1443.5" y="-560.8" font-family="Arial" font-size="14.00" fill="#cfffac">infrastructure/frameworks/addCustomMetric.ts</text>
</g>
<!-- infrastructure/frameworks/getCleanedItems.ts -->
<g id="node28" class="node">
<title>infrastructure/frameworks/getCleanedItems.ts</title>
<path fill="none" stroke="#cfffac" d="M1580.83,-535C1580.83,-535 1306.17,-535 1306.17,-535 1302.33,-535 1298.5,-531.17 1298.5,-527.33 1298.5,-527.33 1298.5,-519.67 1298.5,-519.67 1298.5,-515.83 1302.33,-512 1306.17,-512 1306.17,-512 1580.83,-512 1580.83,-512 1584.67,-512 1588.5,-515.83 1588.5,-519.67 1588.5,-519.67 1588.5,-527.33 1588.5,-527.33 1588.5,-531.17 1584.67,-535 1580.83,-535"/>
<text text-anchor="middle" x="1443.5" y="-519.8" font-family="Arial" font-size="14.00" fill="#cfffac">infrastructure/frameworks/getCleanedItems.ts</text>
</g>
<!-- infrastructure/repositories/DynamoDbRepository.ts&#45;&gt;infrastructure/frameworks/addCustomMetric.ts -->
<g id="edge22" class="edge">
<title>infrastructure/repositories/DynamoDbRepository.ts&#45;&gt;infrastructure/frameworks/addCustomMetric.ts</title>
<path fill="none" stroke="#757575" d="M1260.02,-553.8C1268.06,-554.27 1276.13,-554.74 1284.17,-555.21"/>
<polygon fill="#757575" stroke="#757575" points="1283.81,-558.7 1293.99,-555.79 1284.22,-551.71 1283.81,-558.7"/>
</g>
<!-- infrastructure/repositories/DynamoDbRepository.ts&#45;&gt;infrastructure/frameworks/getCleanedItems.ts -->
<g id="edge23" class="edge">
<title>infrastructure/repositories/DynamoDbRepository.ts&#45;&gt;infrastructure/frameworks/getCleanedItems.ts</title>
<path fill="none" stroke="#757575" d="M1260.02,-534.74C1268.95,-534.19 1277.92,-533.64 1286.84,-533.09"/>
<polygon fill="#757575" stroke="#757575" points="1286.82,-536.59 1296.58,-532.49 1286.39,-529.61 1286.82,-536.59"/>
</g>
</g>
</svg>
