<?xml version="1.0" encoding="UTF-8" standalone="no"?>
<!DOCTYPE svg PUBLIC "-//W3C//DTD SVG 1.1//EN"
 "http://www.w3.org/Graphics/SVG/1.1/DTD/svg11.dtd">
<!-- Generated by graphviz version 7.0.6 (20230106.0513)
 -->
<!-- Title: G Pages: 1 -->
<svg width="2051pt" height="807pt"
 viewBox="0.00 0.00 2051.20 807.20" xmlns="http://www.w3.org/2000/svg" xmlns:xlink="http://www.w3.org/1999/xlink">
<g id="graph0" class="graph" transform="scale(1 1) rotate(0) translate(21.6 785.6)">
<title>G</title>
<polygon fill="#111111" stroke="none" points="-21.6,21.6 -21.6,-785.6 2029.6,-785.6 2029.6,21.6 -21.6,21.6"/>
<!-- application/errors.ts -->
<g id="node1" class="node">
<title>application/errors.ts</title>
<path fill="none" stroke="#cfffac" d="M1888.83,-265C1888.83,-265 1770.17,-265 1770.17,-265 1766.33,-265 1762.5,-261.17 1762.5,-257.33 1762.5,-257.33 1762.5,-249.67 1762.5,-249.67 1762.5,-245.83 1766.33,-242 1770.17,-242 1770.17,-242 1888.83,-242 1888.83,-242 1892.67,-242 1896.5,-245.83 1896.5,-249.67 1896.5,-249.67 1896.5,-257.33 1896.5,-257.33 1896.5,-261.17 1892.67,-265 1888.83,-265"/>
<text text-anchor="middle" x="1829.5" y="-249.8" font-family="Arial" font-size="14.00" fill="#cfffac">application/errors.ts</text>
</g>
<!-- application/getParser.ts -->
<g id="node2" class="node">
<title>application/getParser.ts</title>
<path fill="none" stroke="#c6c5fe" d="M836.83,-626C836.83,-626 695.17,-626 695.17,-626 691.33,-626 687.5,-622.17 687.5,-618.33 687.5,-618.33 687.5,-610.67 687.5,-610.67 687.5,-606.83 691.33,-603 695.17,-603 695.17,-603 836.83,-603 836.83,-603 840.67,-603 844.5,-606.83 844.5,-610.67 844.5,-610.67 844.5,-618.33 844.5,-618.33 844.5,-622.17 840.67,-626 836.83,-626"/>
<text text-anchor="middle" x="766" y="-610.8" font-family="Arial" font-size="14.00" fill="#c6c5fe">application/getParser.ts</text>
</g>
<!-- application/getParser.ts&#45;&gt;application/errors.ts -->
<g id="edge1" class="edge">
<title>application/getParser.ts&#45;&gt;application/errors.ts</title>
<path fill="none" stroke="#757575" d="M844.89,-615.47C872.42,-618.15 902.97,-623.88 929,-635.5 948.28,-644.11 945.21,-659.15 965,-666.5 1097.92,-715.84 1149.62,-711.7 1284,-666.5 1527.77,-584.51 1749.11,-345.26 1811.23,-273.85"/>
<polygon fill="#757575" stroke="#757575" points="1813.76,-276.28 1817.63,-266.42 1808.45,-271.71 1813.76,-276.28"/>
</g>
<!-- domain/services/GitHubParser.ts -->
<g id="node3" class="node">
<title>domain/services/GitHubParser.ts</title>
<path fill="none" stroke="#c6c5fe" d="M1567.33,-306C1567.33,-306 1367.67,-306 1367.67,-306 1363.83,-306 1360,-302.17 1360,-298.33 1360,-298.33 1360,-290.67 1360,-290.67 1360,-286.83 1363.83,-283 1367.67,-283 1367.67,-283 1567.33,-283 1567.33,-283 1571.17,-283 1575,-286.83 1575,-290.67 1575,-290.67 1575,-298.33 1575,-298.33 1575,-302.17 1571.17,-306 1567.33,-306"/>
<text text-anchor="middle" x="1467.5" y="-290.8" font-family="Arial" font-size="14.00" fill="#c6c5fe">domain/services/GitHubParser.ts</text>
</g>
<!-- application/getParser.ts&#45;&gt;domain/services/GitHubParser.ts -->
<g id="edge2" class="edge">
<title>application/getParser.ts&#45;&gt;domain/services/GitHubParser.ts</title>
<path fill="none" stroke="#757575" d="M844.9,-624.68C881.31,-628.95 925.3,-633.4 965,-635.5 1106.58,-642.99 1162.37,-708.36 1284,-635.5 1404.43,-563.36 1449.87,-381.63 1462.49,-317.41"/>
<polygon fill="#757575" stroke="#757575" points="1465.91,-318.16 1464.31,-307.69 1459.03,-316.88 1465.91,-318.16"/>
</g>
<!-- domain/services/Result.ts -->
<g id="node4" class="node">
<title>domain/services/Result.ts</title>
<path fill="none" stroke="#c6c5fe" d="M1202.33,-626C1202.33,-626 1046.67,-626 1046.67,-626 1042.83,-626 1039,-622.17 1039,-618.33 1039,-618.33 1039,-610.67 1039,-610.67 1039,-606.83 1042.83,-603 1046.67,-603 1046.67,-603 1202.33,-603 1202.33,-603 1206.17,-603 1210,-606.83 1210,-610.67 1210,-610.67 1210,-618.33 1210,-618.33 1210,-622.17 1206.17,-626 1202.33,-626"/>
<text text-anchor="middle" x="1124.5" y="-610.8" font-family="Arial" font-size="14.00" fill="#c6c5fe">domain/services/Result.ts</text>
</g>
<!-- application/getParser.ts&#45;&gt;domain/services/Result.ts -->
<g id="edge3" class="edge">
<title>application/getParser.ts&#45;&gt;domain/services/Result.ts</title>
<path fill="none" stroke="#757575" d="M844.79,-614.5C898.48,-614.5 970.21,-614.5 1027.46,-614.5"/>
<polygon fill="#757575" stroke="#757575" points="1027.19,-618 1037.19,-614.5 1027.19,-611 1027.19,-618"/>
</g>
<!-- domain/services/GitHubParser.ts&#45;&gt;application/errors.ts -->
<g id="edge14" class="edge">
<title>domain/services/GitHubParser.ts&#45;&gt;application/errors.ts</title>
<path fill="none" stroke="#757575" d="M1573.59,-282.53C1630.34,-276.07 1699.18,-268.23 1751.01,-262.33"/>
<polygon fill="#757575" stroke="#757575" points="1751.09,-265.84 1760.63,-261.23 1750.3,-258.88 1751.09,-265.84"/>
</g>
<!-- infrastructure/frameworks/time.ts -->
<g id="node16" class="node">
<title>infrastructure/frameworks/time.ts</title>
<path fill="none" stroke="#cfffac" d="M1928.83,-184C1928.83,-184 1730.17,-184 1730.17,-184 1726.33,-184 1722.5,-180.17 1722.5,-176.33 1722.5,-176.33 1722.5,-168.67 1722.5,-168.67 1722.5,-164.83 1726.33,-161 1730.17,-161 1730.17,-161 1928.83,-161 1928.83,-161 1932.67,-161 1936.5,-164.83 1936.5,-168.67 1936.5,-168.67 1936.5,-176.33 1936.5,-176.33 1936.5,-180.17 1932.67,-184 1928.83,-184"/>
<text text-anchor="middle" x="1829.5" y="-168.8" font-family="Arial" font-size="14.00" fill="#cfffac">infrastructure/frameworks/time.ts</text>
</g>
<!-- domain/services/GitHubParser.ts&#45;&gt;infrastructure/frameworks/time.ts -->
<g id="edge15" class="edge">
<title>domain/services/GitHubParser.ts&#45;&gt;infrastructure/frameworks/time.ts</title>
<path fill="none" stroke="#757575" d="M1575.41,-288.25C1589.23,-284.86 1602.8,-280.11 1615,-273.5 1636.32,-261.95 1630.82,-245.95 1651,-232.5 1683.11,-211.09 1723.59,-196.63 1757.78,-187.29"/>
<polygon fill="#757575" stroke="#757575" points="1758.4,-190.75 1767.18,-184.82 1756.62,-183.98 1758.4,-190.75"/>
</g>
<!-- infrastructure/frameworks/date.ts -->
<g id="node18" class="node">
<title>infrastructure/frameworks/date.ts</title>
<path fill="none" stroke="#c6c5fe" d="M1566.83,-265C1566.83,-265 1368.17,-265 1368.17,-265 1364.33,-265 1360.5,-261.17 1360.5,-257.33 1360.5,-257.33 1360.5,-249.67 1360.5,-249.67 1360.5,-245.83 1364.33,-242 1368.17,-242 1368.17,-242 1566.83,-242 1566.83,-242 1570.67,-242 1574.5,-245.83 1574.5,-249.67 1574.5,-249.67 1574.5,-257.33 1574.5,-257.33 1574.5,-261.17 1570.67,-265 1566.83,-265"/>
<text text-anchor="middle" x="1467.5" y="-249.8" font-family="Arial" font-size="14.00" fill="#c6c5fe">infrastructure/frameworks/date.ts</text>
</g>
<!-- domain/services/Result.ts&#45;&gt;infrastructure/frameworks/date.ts -->
<g id="edge17" class="edge">
<title>domain/services/Result.ts&#45;&gt;infrastructure/frameworks/date.ts</title>
<path fill="none" stroke="#757575" d="M1210.29,-623.16C1237.21,-621.32 1264.91,-613.85 1284,-594.5 1384.81,-492.29 1219.71,-376.22 1320,-273.5 1328.29,-265.01 1338.36,-258.93 1349.3,-254.68"/>
<polygon fill="#757575" stroke="#757575" points="1350.2,-258.07 1358.59,-251.61 1348,-251.42 1350.2,-258.07"/>
</g>
<!-- application/mapResultToUsecase.ts -->
<g id="node5" class="node">
<title>application/mapResultToUsecase.ts</title>
<path fill="none" stroke="#c6c5fe" d="M873.83,-400C873.83,-400 658.17,-400 658.17,-400 654.33,-400 650.5,-396.17 650.5,-392.33 650.5,-392.33 650.5,-384.67 650.5,-384.67 650.5,-380.83 654.33,-377 658.17,-377 658.17,-377 873.83,-377 873.83,-377 877.67,-377 881.5,-380.83 881.5,-384.67 881.5,-384.67 881.5,-392.33 881.5,-392.33 881.5,-396.17 877.67,-400 873.83,-400"/>
<text text-anchor="middle" x="766" y="-384.8" font-family="Arial" font-size="14.00" fill="#c6c5fe">application/mapResultToUsecase.ts</text>
</g>
<!-- usecases/approved.ts -->
<g id="node6" class="node">
<title>usecases/approved.ts</title>
<path fill="none" stroke="#cfffac" d="M1190.83,-421C1190.83,-421 1058.17,-421 1058.17,-421 1054.33,-421 1050.5,-417.17 1050.5,-413.33 1050.5,-413.33 1050.5,-405.67 1050.5,-405.67 1050.5,-401.83 1054.33,-398 1058.17,-398 1058.17,-398 1190.83,-398 1190.83,-398 1194.67,-398 1198.5,-401.83 1198.5,-405.67 1198.5,-405.67 1198.5,-413.33 1198.5,-413.33 1198.5,-417.17 1194.67,-421 1190.83,-421"/>
<text text-anchor="middle" x="1124.5" y="-405.8" font-family="Arial" font-size="14.00" fill="#cfffac">usecases/approved.ts</text>
</g>
<!-- application/mapResultToUsecase.ts&#45;&gt;usecases/approved.ts -->
<g id="edge4" class="edge">
<title>application/mapResultToUsecase.ts&#45;&gt;usecases/approved.ts</title>
<path fill="none" stroke="#757575" d="M881.76,-395.26C932.81,-398.27 991.86,-401.75 1038.82,-404.51"/>
<polygon fill="#757575" stroke="#757575" points="1038.48,-408 1048.66,-405.09 1038.89,-401.01 1038.48,-408"/>
</g>
<!-- usecases/changesRequested.ts -->
<g id="node7" class="node">
<title>usecases/changesRequested.ts</title>
<path fill="none" stroke="#cfffac" d="M1220.83,-380C1220.83,-380 1028.17,-380 1028.17,-380 1024.33,-380 1020.5,-376.17 1020.5,-372.33 1020.5,-372.33 1020.5,-364.67 1020.5,-364.67 1020.5,-360.83 1024.33,-357 1028.17,-357 1028.17,-357 1220.83,-357 1220.83,-357 1224.67,-357 1228.5,-360.83 1228.5,-364.67 1228.5,-364.67 1228.5,-372.33 1228.5,-372.33 1228.5,-376.17 1224.67,-380 1220.83,-380"/>
<text text-anchor="middle" x="1124.5" y="-364.8" font-family="Arial" font-size="14.00" fill="#cfffac">usecases/changesRequested.ts</text>
</g>
<!-- application/mapResultToUsecase.ts&#45;&gt;usecases/changesRequested.ts -->
<g id="edge5" class="edge">
<title>application/mapResultToUsecase.ts&#45;&gt;usecases/changesRequested.ts</title>
<path fill="none" stroke="#757575" d="M881.76,-382.06C922.41,-379.78 968.14,-377.22 1008.78,-374.94"/>
<polygon fill="#757575" stroke="#757575" points="1008.81,-378.44 1018.6,-374.39 1008.42,-371.45 1008.81,-378.44"/>
</g>
<!-- usecases/closed.ts -->
<g id="node8" class="node">
<title>usecases/closed.ts</title>
<path fill="none" stroke="#cfffac" d="M1182.33,-339C1182.33,-339 1066.67,-339 1066.67,-339 1062.83,-339 1059,-335.17 1059,-331.33 1059,-331.33 1059,-323.67 1059,-323.67 1059,-319.83 1062.83,-316 1066.67,-316 1066.67,-316 1182.33,-316 1182.33,-316 1186.17,-316 1190,-319.83 1190,-323.67 1190,-323.67 1190,-331.33 1190,-331.33 1190,-335.17 1186.17,-339 1182.33,-339"/>
<text text-anchor="middle" x="1124.5" y="-323.8" font-family="Arial" font-size="14.00" fill="#cfffac">usecases/closed.ts</text>
</g>
<!-- application/mapResultToUsecase.ts&#45;&gt;usecases/closed.ts -->
<g id="edge6" class="edge">
<title>application/mapResultToUsecase.ts&#45;&gt;usecases/closed.ts</title>
<path fill="none" stroke="#757575" d="M818.9,-376.59C858.72,-367.73 915.14,-355.8 965,-347.5 991.69,-343.06 1021.06,-339.1 1047.19,-335.9"/>
<polygon fill="#757575" stroke="#757575" points="1047.54,-339.38 1057.05,-334.71 1046.7,-332.43 1047.54,-339.38"/>
</g>
<!-- usecases/commented.ts -->
<g id="node9" class="node">
<title>usecases/commented.ts</title>
<path fill="none" stroke="#cfffac" d="M1198.83,-298C1198.83,-298 1050.17,-298 1050.17,-298 1046.33,-298 1042.5,-294.17 1042.5,-290.33 1042.5,-290.33 1042.5,-282.67 1042.5,-282.67 1042.5,-278.83 1046.33,-275 1050.17,-275 1050.17,-275 1198.83,-275 1198.83,-275 1202.67,-275 1206.5,-278.83 1206.5,-282.67 1206.5,-282.67 1206.5,-290.33 1206.5,-290.33 1206.5,-294.17 1202.67,-298 1198.83,-298"/>
<text text-anchor="middle" x="1124.5" y="-282.8" font-family="Arial" font-size="14.00" fill="#cfffac">usecases/commented.ts</text>
</g>
<!-- application/mapResultToUsecase.ts&#45;&gt;usecases/commented.ts -->
<g id="edge7" class="edge">
<title>application/mapResultToUsecase.ts&#45;&gt;usecases/commented.ts</title>
<path fill="none" stroke="#757575" d="M790.06,-376.55C826.29,-358.35 899.18,-323.94 965,-306.5 986,-300.93 1009,-296.9 1030.79,-293.98"/>
<polygon fill="#757575" stroke="#757575" points="1031.08,-297.48 1040.56,-292.75 1030.2,-290.53 1031.08,-297.48"/>
</g>
<!-- usecases/merged.ts -->
<g id="node10" class="node">
<title>usecases/merged.ts</title>
<path fill="none" stroke="#cfffac" d="M1185.83,-257C1185.83,-257 1063.17,-257 1063.17,-257 1059.33,-257 1055.5,-253.17 1055.5,-249.33 1055.5,-249.33 1055.5,-241.67 1055.5,-241.67 1055.5,-237.83 1059.33,-234 1063.17,-234 1063.17,-234 1185.83,-234 1185.83,-234 1189.67,-234 1193.5,-237.83 1193.5,-241.67 1193.5,-241.67 1193.5,-249.33 1193.5,-249.33 1193.5,-253.17 1189.67,-257 1185.83,-257"/>
<text text-anchor="middle" x="1124.5" y="-241.8" font-family="Arial" font-size="14.00" fill="#cfffac">usecases/merged.ts</text>
</g>
<!-- application/mapResultToUsecase.ts&#45;&gt;usecases/merged.ts -->
<g id="edge8" class="edge">
<title>application/mapResultToUsecase.ts&#45;&gt;usecases/merged.ts</title>
<path fill="none" stroke="#757575" d="M781.26,-376.54C812.33,-351.21 889.48,-292.27 965,-265.5 989.93,-256.66 1018.29,-251.63 1044.06,-248.8"/>
<polygon fill="#757575" stroke="#757575" points="1044.2,-252.3 1053.81,-247.83 1043.51,-245.34 1044.2,-252.3"/>
</g>
<!-- usecases/opened.ts -->
<g id="node11" class="node">
<title>usecases/opened.ts</title>
<path fill="none" stroke="#cfffac" d="M1185.33,-216C1185.33,-216 1063.67,-216 1063.67,-216 1059.83,-216 1056,-212.17 1056,-208.33 1056,-208.33 1056,-200.67 1056,-200.67 1056,-196.83 1059.83,-193 1063.67,-193 1063.67,-193 1185.33,-193 1185.33,-193 1189.17,-193 1193,-196.83 1193,-200.67 1193,-200.67 1193,-208.33 1193,-208.33 1193,-212.17 1189.17,-216 1185.33,-216"/>
<text text-anchor="middle" x="1124.5" y="-200.8" font-family="Arial" font-size="14.00" fill="#cfffac">usecases/opened.ts</text>
</g>
<!-- application/mapResultToUsecase.ts&#45;&gt;usecases/opened.ts -->
<g id="edge9" class="edge">
<title>application/mapResultToUsecase.ts&#45;&gt;usecases/opened.ts</title>
<path fill="none" stroke="#757575" d="M776.67,-376.81C803.09,-345.78 880.21,-261.21 965,-224.5 989.61,-213.84 1018.24,-208.38 1044.34,-205.72"/>
<polygon fill="#757575" stroke="#757575" points="1044.59,-209.21 1054.24,-204.84 1043.97,-202.24 1044.59,-209.21"/>
</g>
<!-- usecases/pushed.ts -->
<g id="node12" class="node">
<title>usecases/pushed.ts</title>
<path fill="none" stroke="#cfffac" d="M1184.83,-585C1184.83,-585 1064.17,-585 1064.17,-585 1060.33,-585 1056.5,-581.17 1056.5,-577.33 1056.5,-577.33 1056.5,-569.67 1056.5,-569.67 1056.5,-565.83 1060.33,-562 1064.17,-562 1064.17,-562 1184.83,-562 1184.83,-562 1188.67,-562 1192.5,-565.83 1192.5,-569.67 1192.5,-569.67 1192.5,-577.33 1192.5,-577.33 1192.5,-581.17 1188.67,-585 1184.83,-585"/>
<text text-anchor="middle" x="1124.5" y="-569.8" font-family="Arial" font-size="14.00" fill="#cfffac">usecases/pushed.ts</text>
</g>
<!-- application/mapResultToUsecase.ts&#45;&gt;usecases/pushed.ts -->
<g id="edge10" class="edge">
<title>application/mapResultToUsecase.ts&#45;&gt;usecases/pushed.ts</title>
<path fill="none" stroke="#757575" d="M776.65,-400.26C803.03,-431.48 880.06,-516.57 965,-553.5 989.7,-564.24 1018.48,-569.71 1044.68,-572.36"/>
<polygon fill="#757575" stroke="#757575" points="1044.34,-575.85 1054.61,-573.23 1044.95,-568.87 1044.34,-575.85"/>
</g>
<!-- usecases/reviewPickedUp.ts -->
<g id="node13" class="node">
<title>usecases/reviewPickedUp.ts</title>
<path fill="none" stroke="#cfffac" d="M1210.83,-544C1210.83,-544 1038.17,-544 1038.17,-544 1034.33,-544 1030.5,-540.17 1030.5,-536.33 1030.5,-536.33 1030.5,-528.67 1030.5,-528.67 1030.5,-524.83 1034.33,-521 1038.17,-521 1038.17,-521 1210.83,-521 1210.83,-521 1214.67,-521 1218.5,-524.83 1218.5,-528.67 1218.5,-528.67 1218.5,-536.33 1218.5,-536.33 1218.5,-540.17 1214.67,-544 1210.83,-544"/>
<text text-anchor="middle" x="1124.5" y="-528.8" font-family="Arial" font-size="14.00" fill="#cfffac">usecases/reviewPickedUp.ts</text>
</g>
<!-- application/mapResultToUsecase.ts&#45;&gt;usecases/reviewPickedUp.ts -->
<g id="edge11" class="edge">
<title>application/mapResultToUsecase.ts&#45;&gt;usecases/reviewPickedUp.ts</title>
<path fill="none" stroke="#757575" d="M780.77,-400.17C811.5,-425.5 888.97,-485.39 965,-512.5 981.98,-518.56 1000.56,-522.83 1018.83,-525.83"/>
<polygon fill="#757575" stroke="#757575" points="1018.24,-529.28 1028.65,-527.31 1019.29,-522.35 1018.24,-529.28"/>
</g>
<!-- usecases/reviewTime.ts -->
<g id="node14" class="node">
<title>usecases/reviewTime.ts</title>
<path fill="none" stroke="#cfffac" d="M1197.33,-503C1197.33,-503 1051.67,-503 1051.67,-503 1047.83,-503 1044,-499.17 1044,-495.33 1044,-495.33 1044,-487.67 1044,-487.67 1044,-483.83 1047.83,-480 1051.67,-480 1051.67,-480 1197.33,-480 1197.33,-480 1201.17,-480 1205,-483.83 1205,-487.67 1205,-487.67 1205,-495.33 1205,-495.33 1205,-499.17 1201.17,-503 1197.33,-503"/>
<text text-anchor="middle" x="1124.5" y="-487.8" font-family="Arial" font-size="14.00" fill="#cfffac">usecases/reviewTime.ts</text>
</g>
<!-- application/mapResultToUsecase.ts&#45;&gt;usecases/reviewTime.ts -->
<g id="edge12" class="edge">
<title>application/mapResultToUsecase.ts&#45;&gt;usecases/reviewTime.ts</title>
<path fill="none" stroke="#757575" d="M789.75,-400.45C825.84,-418.85 898.92,-453.84 965,-471.5 986.55,-477.26 1010.2,-481.38 1032.5,-484.31"/>
<polygon fill="#757575" stroke="#757575" points="1031.82,-487.75 1042.17,-485.51 1032.68,-480.81 1031.82,-487.75"/>
</g>
<!-- usecases/reviewed.ts -->
<g id="node15" class="node">
<title>usecases/reviewed.ts</title>
<path fill="none" stroke="#cfffac" d="M1189.83,-462C1189.83,-462 1059.17,-462 1059.17,-462 1055.33,-462 1051.5,-458.17 1051.5,-454.33 1051.5,-454.33 1051.5,-446.67 1051.5,-446.67 1051.5,-442.83 1055.33,-439 1059.17,-439 1059.17,-439 1189.83,-439 1189.83,-439 1193.67,-439 1197.5,-442.83 1197.5,-446.67 1197.5,-446.67 1197.5,-454.33 1197.5,-454.33 1197.5,-458.17 1193.67,-462 1189.83,-462"/>
<text text-anchor="middle" x="1124.5" y="-446.8" font-family="Arial" font-size="14.00" fill="#cfffac">usecases/reviewed.ts</text>
</g>
<!-- application/mapResultToUsecase.ts&#45;&gt;usecases/reviewed.ts -->
<g id="edge13" class="edge">
<title>application/mapResultToUsecase.ts&#45;&gt;usecases/reviewed.ts</title>
<path fill="none" stroke="#757575" d="M819.33,-400.42C859.13,-409.22 915.33,-421.08 965,-429.5 989.22,-433.61 1015.63,-437.38 1039.83,-440.57"/>
<polygon fill="#757575" stroke="#757575" points="1039.27,-444.02 1049.64,-441.84 1040.17,-437.08 1039.27,-444.02"/>
</g>
<!-- domain/services/Metrics.ts -->
<g id="node17" class="node">
<title>domain/services/Metrics.ts</title>
<path fill="none" stroke="#c6c5fe" d="M1548.33,-23C1548.33,-23 1386.67,-23 1386.67,-23 1382.83,-23 1379,-19.17 1379,-15.33 1379,-15.33 1379,-7.67 1379,-7.67 1379,-3.83 1382.83,0 1386.67,0 1386.67,0 1548.33,0 1548.33,0 1552.17,0 1556,-3.83 1556,-7.67 1556,-7.67 1556,-15.33 1556,-15.33 1556,-19.17 1552.17,-23 1548.33,-23"/>
<text text-anchor="middle" x="1467.5" y="-7.8" font-family="Arial" font-size="14.00" fill="#c6c5fe">domain/services/Metrics.ts</text>
</g>
<!-- domain/services/Metrics.ts&#45;&gt;infrastructure/frameworks/time.ts -->
<g id="edge16" class="edge">
<title>domain/services/Metrics.ts&#45;&gt;infrastructure/frameworks/time.ts</title>
<path fill="none" stroke="#757575" d="M1556.46,-17.02C1576.14,-20.02 1596.62,-24.59 1615,-31.5 1692.42,-60.61 1770.18,-121.98 1806.82,-153.27"/>
<polygon fill="#757575" stroke="#757575" points="1804.22,-155.66 1814.08,-159.55 1808.8,-150.36 1804.22,-155.66"/>
</g>
<!-- infrastructure/frameworks/date.ts&#45;&gt;application/errors.ts -->
<g id="edge25" class="edge">
<title>infrastructure/frameworks/date.ts&#45;&gt;application/errors.ts</title>
<path fill="none" stroke="#757575" d="M1574.56,-253.5C1631.06,-253.5 1699.32,-253.5 1750.83,-253.5"/>
<polygon fill="#757575" stroke="#757575" points="1750.71,-257 1760.71,-253.5 1750.71,-250 1750.71,-257"/>
</g>
<!-- infrastructure/frameworks/date.ts&#45;&gt;infrastructure/frameworks/time.ts -->
<g id="edge26" class="edge">
<title>infrastructure/frameworks/date.ts&#45;&gt;infrastructure/frameworks/time.ts</title>
<path fill="none" stroke="#757575" d="M1521.62,-241.55C1586.19,-227.02 1695.07,-202.52 1764.28,-186.95"/>
<polygon fill="#757575" stroke="#757575" points="1764.99,-190.38 1773.98,-184.77 1763.46,-183.55 1764.99,-190.38"/>
</g>
<!-- infrastructure/adapters/web/AddMetrics.ts -->
<g id="node19" class="node">
<title>infrastructure/adapters/web/AddMetrics.ts</title>
<path fill="none" stroke="#c6c5fe" d="M258.33,-237C258.33,-237 7.67,-237 7.67,-237 3.83,-237 0,-233.17 0,-229.33 0,-229.33 0,-221.67 0,-221.67 0,-217.83 3.83,-214 7.67,-214 7.67,-214 258.33,-214 258.33,-214 262.17,-214 266,-217.83 266,-221.67 266,-221.67 266,-229.33 266,-229.33 266,-233.17 262.17,-237 258.33,-237"/>
<text text-anchor="middle" x="133" y="-221.8" font-family="Arial" font-size="14.00" fill="#c6c5fe">infrastructure/adapters/web/AddMetrics.ts</text>
</g>
<!-- infrastructure/frameworks/end.ts -->
<g id="node20" class="node">
<title>infrastructure/frameworks/end.ts</title>
<path fill="none" stroke="#cfffac" d="M863.33,-54C863.33,-54 668.67,-54 668.67,-54 664.83,-54 661,-50.17 661,-46.33 661,-46.33 661,-38.67 661,-38.67 661,-34.83 664.83,-31 668.67,-31 668.67,-31 863.33,-31 863.33,-31 867.17,-31 871,-34.83 871,-38.67 871,-38.67 871,-46.33 871,-46.33 871,-50.17 867.17,-54 863.33,-54"/>
<text text-anchor="middle" x="766" y="-38.8" font-family="Arial" font-size="14.00" fill="#cfffac">infrastructure/frameworks/end.ts</text>
</g>
<!-- infrastructure/adapters/web/AddMetrics.ts&#45;&gt;infrastructure/frameworks/end.ts -->
<g id="edge18" class="edge">
<title>infrastructure/adapters/web/AddMetrics.ts&#45;&gt;infrastructure/frameworks/end.ts</title>
<path fill="none" stroke="#757575" d="M143.03,-213.83C165.95,-185.23 229.71,-111.75 302,-81.5 413.49,-34.85 553.06,-29.44 649.66,-32.98"/>
<polygon fill="#757575" stroke="#757575" points="649.28,-36.47 659.41,-33.38 649.56,-29.48 649.28,-36.47"/>
</g>
<!-- usecases/addMetric.ts -->
<g id="node21" class="node">
<title>usecases/addMetric.ts</title>
<path fill="none" stroke="#c6c5fe" d="M502.83,-400C502.83,-400 366.17,-400 366.17,-400 362.33,-400 358.5,-396.17 358.5,-392.33 358.5,-392.33 358.5,-384.67 358.5,-384.67 358.5,-380.83 362.33,-377 366.17,-377 366.17,-377 502.83,-377 502.83,-377 506.67,-377 510.5,-380.83 510.5,-384.67 510.5,-384.67 510.5,-392.33 510.5,-392.33 510.5,-396.17 506.67,-400 502.83,-400"/>
<text text-anchor="middle" x="434.5" y="-384.8" font-family="Arial" font-size="14.00" fill="#c6c5fe">usecases/addMetric.ts</text>
</g>
<!-- infrastructure/adapters/web/AddMetrics.ts&#45;&gt;usecases/addMetric.ts -->
<g id="edge19" class="edge">
<title>infrastructure/adapters/web/AddMetrics.ts&#45;&gt;usecases/addMetric.ts</title>
<path fill="none" stroke="#757575" d="M156.02,-237.49C208.51,-266.05 341.12,-338.22 402.03,-371.37"/>
<polygon fill="#757575" stroke="#757575" points="400.06,-374.29 410.52,-375.99 403.41,-368.14 400.06,-374.29"/>
</g>
<!-- usecases/addMetric.ts&#45;&gt;application/getParser.ts -->
<g id="edge36" class="edge">
<title>usecases/addMetric.ts&#45;&gt;application/getParser.ts</title>
<path fill="none" stroke="#757575" d="M452.75,-400.33C506.78,-437.39 673.02,-551.41 738.3,-596.18"/>
<polygon fill="#757575" stroke="#757575" points="736.05,-598.89 746.27,-601.66 740.01,-593.11 736.05,-598.89"/>
</g>
<!-- usecases/addMetric.ts&#45;&gt;application/mapResultToUsecase.ts -->
<g id="edge37" class="edge">
<title>usecases/addMetric.ts&#45;&gt;application/mapResultToUsecase.ts</title>
<path fill="none" stroke="#757575" d="M510.68,-388.5C548.52,-388.5 595.41,-388.5 638.58,-388.5"/>
<polygon fill="#757575" stroke="#757575" points="638.54,-392 648.54,-388.5 638.54,-385 638.54,-392"/>
</g>
<!-- infrastructure/frameworks/getRepo.ts -->
<g id="node24" class="node">
<title>infrastructure/frameworks/getRepo.ts</title>
<path fill="none" stroke="#c6c5fe" d="M877.83,-175C877.83,-175 654.17,-175 654.17,-175 650.33,-175 646.5,-171.17 646.5,-167.33 646.5,-167.33 646.5,-159.67 646.5,-159.67 646.5,-155.83 650.33,-152 654.17,-152 654.17,-152 877.83,-152 877.83,-152 881.67,-152 885.5,-155.83 885.5,-159.67 885.5,-159.67 885.5,-167.33 885.5,-167.33 885.5,-171.17 881.67,-175 877.83,-175"/>
<text text-anchor="middle" x="766" y="-159.8" font-family="Arial" font-size="14.00" fill="#c6c5fe">infrastructure/frameworks/getRepo.ts</text>
</g>
<!-- usecases/addMetric.ts&#45;&gt;infrastructure/frameworks/getRepo.ts -->
<g id="edge39" class="edge">
<title>usecases/addMetric.ts&#45;&gt;infrastructure/frameworks/getRepo.ts</title>
<path fill="none" stroke="#757575" d="M452.75,-376.72C506.78,-339.82 673.02,-226.31 738.3,-181.73"/>
<polygon fill="#757575" stroke="#757575" points="739.99,-184.82 746.27,-176.29 736.04,-179.04 739.99,-184.82"/>
</g>
<!-- infrastructure/frameworks/getLowerCaseHeaders.ts -->
<g id="node32" class="node">
<title>infrastructure/frameworks/getLowerCaseHeaders.ts</title>
<path fill="none" stroke="#cfffac" d="M921.33,-667C921.33,-667 610.67,-667 610.67,-667 606.83,-667 603,-663.17 603,-659.33 603,-659.33 603,-651.67 603,-651.67 603,-647.83 606.83,-644 610.67,-644 610.67,-644 921.33,-644 921.33,-644 925.17,-644 929,-647.83 929,-651.67 929,-651.67 929,-659.33 929,-659.33 929,-663.17 925.17,-667 921.33,-667"/>
<text text-anchor="middle" x="766" y="-651.8" font-family="Arial" font-size="14.00" fill="#cfffac">infrastructure/frameworks/getLowerCaseHeaders.ts</text>
</g>
<!-- usecases/addMetric.ts&#45;&gt;infrastructure/frameworks/getLowerCaseHeaders.ts -->
<g id="edge38" class="edge">
<title>usecases/addMetric.ts&#45;&gt;infrastructure/frameworks/getLowerCaseHeaders.ts</title>
<path fill="none" stroke="#757575" d="M439.5,-400.43C453.92,-441.41 507.52,-577.11 603,-635.5 604.7,-636.54 606.44,-637.54 608.19,-638.5"/>
<polygon fill="#757575" stroke="#757575" points="606.65,-641.64 617.17,-642.89 609.73,-635.35 606.65,-641.64"/>
</g>
<!-- infrastructure/adapters/web/GetMetrics.ts -->
<g id="node22" class="node">
<title>infrastructure/adapters/web/GetMetrics.ts</title>
<path fill="none" stroke="#c6c5fe" d="M559.33,-114C559.33,-114 309.67,-114 309.67,-114 305.83,-114 302,-110.17 302,-106.33 302,-106.33 302,-98.67 302,-98.67 302,-94.83 305.83,-91 309.67,-91 309.67,-91 559.33,-91 559.33,-91 563.17,-91 567,-94.83 567,-98.67 567,-98.67 567,-106.33 567,-106.33 567,-110.17 563.17,-114 559.33,-114"/>
<text text-anchor="middle" x="434.5" y="-98.8" font-family="Arial" font-size="14.00" fill="#c6c5fe">infrastructure/adapters/web/GetMetrics.ts</text>
</g>
<!-- infrastructure/adapters/web/GetMetrics.ts&#45;&gt;infrastructure/frameworks/end.ts -->
<g id="edge20" class="edge">
<title>infrastructure/adapters/web/GetMetrics.ts&#45;&gt;infrastructure/frameworks/end.ts</title>
<path fill="none" stroke="#757575" d="M497.44,-90.56C519.43,-86.24 544.34,-81.26 567,-76.5 583.04,-73.13 586.9,-71.58 603,-68.5 625.72,-64.16 650.33,-59.95 673.34,-56.24"/>
<polygon fill="#757575" stroke="#757575" points="673.68,-59.73 683,-54.69 672.57,-52.81 673.68,-59.73"/>
</g>
<!-- infrastructure/frameworks/getDTO.ts -->
<g id="node23" class="node">
<title>infrastructure/frameworks/getDTO.ts</title>
<path fill="none" stroke="#cfffac" d="M876.33,-134C876.33,-134 655.67,-134 655.67,-134 651.83,-134 648,-130.17 648,-126.33 648,-126.33 648,-118.67 648,-118.67 648,-114.83 651.83,-111 655.67,-111 655.67,-111 876.33,-111 876.33,-111 880.17,-111 884,-114.83 884,-118.67 884,-118.67 884,-126.33 884,-126.33 884,-130.17 880.17,-134 876.33,-134"/>
<text text-anchor="middle" x="766" y="-118.8" font-family="Arial" font-size="14.00" fill="#cfffac">infrastructure/frameworks/getDTO.ts</text>
</g>
<!-- infrastructure/adapters/web/GetMetrics.ts&#45;&gt;infrastructure/frameworks/getDTO.ts -->
<g id="edge21" class="edge">
<title>infrastructure/adapters/web/GetMetrics.ts&#45;&gt;infrastructure/frameworks/getDTO.ts</title>
<path fill="none" stroke="#757575" d="M567.15,-110.49C589.92,-111.87 613.57,-113.31 636.27,-114.69"/>
<polygon fill="#757575" stroke="#757575" points="635.97,-118.17 646.17,-115.29 636.4,-111.19 635.97,-118.17"/>
</g>
<!-- infrastructure/adapters/web/GetMetrics.ts&#45;&gt;infrastructure/frameworks/getRepo.ts -->
<g id="edge22" class="edge">
<title>infrastructure/adapters/web/GetMetrics.ts&#45;&gt;infrastructure/frameworks/getRepo.ts</title>
<path fill="none" stroke="#757575" d="M480.02,-114.49C513.61,-123.2 560.95,-134.78 603,-142.5 617.81,-145.22 633.45,-147.72 648.94,-149.96"/>
<polygon fill="#757575" stroke="#757575" points="648.28,-153.41 658.68,-151.34 649.27,-146.48 648.28,-153.41"/>
</g>
<!-- usecases/getMetrics.ts -->
<g id="node25" class="node">
<title>usecases/getMetrics.ts</title>
<path fill="none" stroke="#c6c5fe" d="M1194.33,-83C1194.33,-83 1054.67,-83 1054.67,-83 1050.83,-83 1047,-79.17 1047,-75.33 1047,-75.33 1047,-67.67 1047,-67.67 1047,-63.83 1050.83,-60 1054.67,-60 1054.67,-60 1194.33,-60 1194.33,-60 1198.17,-60 1202,-63.83 1202,-67.67 1202,-67.67 1202,-75.33 1202,-75.33 1202,-79.17 1198.17,-83 1194.33,-83"/>
<text text-anchor="middle" x="1124.5" y="-67.8" font-family="Arial" font-size="14.00" fill="#c6c5fe">usecases/getMetrics.ts</text>
</g>
<!-- infrastructure/adapters/web/GetMetrics.ts&#45;&gt;usecases/getMetrics.ts -->
<g id="edge23" class="edge">
<title>infrastructure/adapters/web/GetMetrics.ts&#45;&gt;usecases/getMetrics.ts</title>
<path fill="none" stroke="#757575" d="M567.34,-96.56C704.93,-90.36 916.8,-80.81 1035.38,-75.47"/>
<polygon fill="#757575" stroke="#757575" points="1035.21,-78.98 1045.04,-75.04 1034.89,-71.99 1035.21,-78.98"/>
</g>
<!-- infrastructure/repositories/DynamoDbRepository.ts -->
<g id="node33" class="node">
<title>infrastructure/repositories/DynamoDbRepository.ts</title>
<path fill="none" stroke="#c6c5fe" d="M1276.33,-134C1276.33,-134 972.67,-134 972.67,-134 968.83,-134 965,-130.17 965,-126.33 965,-126.33 965,-118.67 965,-118.67 965,-114.83 968.83,-111 972.67,-111 972.67,-111 1276.33,-111 1276.33,-111 1280.17,-111 1284,-114.83 1284,-118.67 1284,-118.67 1284,-126.33 1284,-126.33 1284,-130.17 1280.17,-134 1276.33,-134"/>
<text text-anchor="middle" x="1124.5" y="-118.8" font-family="Arial" font-size="14.00" fill="#c6c5fe">infrastructure/repositories/DynamoDbRepository.ts</text>
</g>
<!-- infrastructure/frameworks/getRepo.ts&#45;&gt;infrastructure/repositories/DynamoDbRepository.ts -->
<g id="edge29" class="edge">
<title>infrastructure/frameworks/getRepo.ts&#45;&gt;infrastructure/repositories/DynamoDbRepository.ts</title>
<path fill="none" stroke="#757575" d="M871.07,-151.53C913.99,-146.6 963.89,-140.86 1007.94,-135.79"/>
<polygon fill="#757575" stroke="#757575" points="1008.26,-139.28 1017.79,-134.66 1007.46,-132.32 1008.26,-139.28"/>
</g>
<!-- infrastructure/repositories/LocalRepository.ts -->
<g id="node34" class="node">
<title>infrastructure/repositories/LocalRepository.ts</title>
<path fill="none" stroke="#c6c5fe" d="M1258.33,-175C1258.33,-175 990.67,-175 990.67,-175 986.83,-175 983,-171.17 983,-167.33 983,-167.33 983,-159.67 983,-159.67 983,-155.83 986.83,-152 990.67,-152 990.67,-152 1258.33,-152 1258.33,-152 1262.17,-152 1266,-155.83 1266,-159.67 1266,-159.67 1266,-167.33 1266,-167.33 1266,-171.17 1262.17,-175 1258.33,-175"/>
<text text-anchor="middle" x="1124.5" y="-159.8" font-family="Arial" font-size="14.00" fill="#c6c5fe">infrastructure/repositories/LocalRepository.ts</text>
</g>
<!-- infrastructure/frameworks/getRepo.ts&#45;&gt;infrastructure/repositories/LocalRepository.ts -->
<g id="edge30" class="edge">
<title>infrastructure/frameworks/getRepo.ts&#45;&gt;infrastructure/repositories/LocalRepository.ts</title>
<path fill="none" stroke="#757575" d="M885.71,-163.5C913.16,-163.5 942.73,-163.5 971.39,-163.5"/>
<polygon fill="#757575" stroke="#757575" points="971.23,-167 981.23,-163.5 971.23,-160 971.23,-167"/>
</g>
<!-- usecases/getMetrics.ts&#45;&gt;application/errors.ts -->
<g id="edge43" class="edge">
<title>usecases/getMetrics.ts&#45;&gt;application/errors.ts</title>
<path fill="none" stroke="#757575" d="M1202.3,-73.51C1331.66,-77.52 1582.18,-88.22 1615,-111.5 1647.13,-134.3 1621.96,-165.88 1651,-192.5 1678.64,-217.83 1717.28,-232.71 1751.46,-241.42"/>
<polygon fill="#757575" stroke="#757575" points="1750.37,-244.76 1760.91,-243.69 1752,-237.95 1750.37,-244.76"/>
</g>
<!-- usecases/getMetrics.ts&#45;&gt;domain/services/Metrics.ts -->
<g id="edge44" class="edge">
<title>usecases/getMetrics.ts&#45;&gt;domain/services/Metrics.ts</title>
<path fill="none" stroke="#757575" d="M1178.56,-59.58C1217.56,-51.07 1271.92,-39.72 1320,-31.5 1335.42,-28.87 1351.8,-26.35 1367.81,-24.05"/>
<polygon fill="#757575" stroke="#757575" points="1367.91,-27.57 1377.32,-22.7 1366.92,-20.64 1367.91,-27.57"/>
</g>
<!-- infrastructure/frameworks/validateDates.ts -->
<g id="node35" class="node">
<title>infrastructure/frameworks/validateDates.ts</title>
<path fill="none" stroke="#cfffac" d="M1594.33,-64C1594.33,-64 1340.67,-64 1340.67,-64 1336.83,-64 1333,-60.17 1333,-56.33 1333,-56.33 1333,-48.67 1333,-48.67 1333,-44.83 1336.83,-41 1340.67,-41 1340.67,-41 1594.33,-41 1594.33,-41 1598.17,-41 1602,-44.83 1602,-48.67 1602,-48.67 1602,-56.33 1602,-56.33 1602,-60.17 1598.17,-64 1594.33,-64"/>
<text text-anchor="middle" x="1467.5" y="-48.8" font-family="Arial" font-size="14.00" fill="#cfffac">infrastructure/frameworks/validateDates.ts</text>
</g>
<!-- usecases/getMetrics.ts&#45;&gt;infrastructure/frameworks/validateDates.ts -->
<g id="edge45" class="edge">
<title>usecases/getMetrics.ts&#45;&gt;infrastructure/frameworks/validateDates.ts</title>
<path fill="none" stroke="#757575" d="M1202.45,-67.21C1237.55,-65.26 1280.32,-62.87 1321.12,-60.6"/>
<polygon fill="#757575" stroke="#757575" points="1321.27,-64.1 1331.06,-60.05 1320.88,-57.11 1321.27,-64.1"/>
</g>
<!-- infrastructure/authorizers/Authorizer.ts -->
<g id="node26" class="node">
<title>infrastructure/authorizers/Authorizer.ts</title>
<path fill="none" stroke="#c6c5fe" d="M1239.33,-744C1239.33,-744 1009.67,-744 1009.67,-744 1005.83,-744 1002,-740.17 1002,-736.33 1002,-736.33 1002,-728.67 1002,-728.67 1002,-724.83 1005.83,-721 1009.67,-721 1009.67,-721 1239.33,-721 1239.33,-721 1243.17,-721 1247,-724.83 1247,-728.67 1247,-728.67 1247,-736.33 1247,-736.33 1247,-740.17 1243.17,-744 1239.33,-744"/>
<text text-anchor="middle" x="1124.5" y="-728.8" font-family="Arial" font-size="14.00" fill="#c6c5fe">infrastructure/authorizers/Authorizer.ts</text>
</g>
<!-- usecases/authorize.ts -->
<g id="node27" class="node">
<title>usecases/authorize.ts</title>
<path fill="none" stroke="#c6c5fe" d="M1533.33,-744C1533.33,-744 1401.67,-744 1401.67,-744 1397.83,-744 1394,-740.17 1394,-736.33 1394,-736.33 1394,-728.67 1394,-728.67 1394,-724.83 1397.83,-721 1401.67,-721 1401.67,-721 1533.33,-721 1533.33,-721 1537.17,-721 1541,-724.83 1541,-728.67 1541,-728.67 1541,-736.33 1541,-736.33 1541,-740.17 1537.17,-744 1533.33,-744"/>
<text text-anchor="middle" x="1467.5" y="-728.8" font-family="Arial" font-size="14.00" fill="#c6c5fe">usecases/authorize.ts</text>
</g>
<!-- infrastructure/authorizers/Authorizer.ts&#45;&gt;usecases/authorize.ts -->
<g id="edge24" class="edge">
<title>infrastructure/authorizers/Authorizer.ts&#45;&gt;usecases/authorize.ts</title>
<path fill="none" stroke="#757575" d="M1247.16,-732.5C1291.83,-732.5 1341.37,-732.5 1382.05,-732.5"/>
<polygon fill="#757575" stroke="#757575" points="1382.04,-736 1392.04,-732.5 1382.04,-729 1382.04,-736"/>
</g>
<!-- usecases/authorize.ts&#45;&gt;application/errors.ts -->
<g id="edge40" class="edge">
<title>usecases/authorize.ts&#45;&gt;application/errors.ts</title>
<path fill="none" stroke="#757575" d="M1541.42,-732.93C1566.83,-729.82 1594.18,-722.43 1615,-706.5 1763.16,-593.16 1812.94,-351.6 1825.17,-276.36"/>
<polygon fill="#757575" stroke="#757575" points="1828.57,-277.31 1826.65,-266.89 1821.65,-276.23 1828.57,-277.31"/>
</g>
<!-- infrastructure/frameworks/authorization/generatePolicy.ts -->
<g id="node29" class="node">
<title>infrastructure/frameworks/authorization/generatePolicy.ts</title>
<path fill="none" stroke="#cfffac" d="M2000.33,-764C2000.33,-764 1658.67,-764 1658.67,-764 1654.83,-764 1651,-760.17 1651,-756.33 1651,-756.33 1651,-748.67 1651,-748.67 1651,-744.83 1654.83,-741 1658.67,-741 1658.67,-741 2000.33,-741 2000.33,-741 2004.17,-741 2008,-744.83 2008,-748.67 2008,-748.67 2008,-756.33 2008,-756.33 2008,-760.17 2004.17,-764 2000.33,-764"/>
<text text-anchor="middle" x="1829.5" y="-748.8" font-family="Arial" font-size="14.00" fill="#cfffac">infrastructure/frameworks/authorization/generatePolicy.ts</text>
</g>
<!-- usecases/authorize.ts&#45;&gt;infrastructure/frameworks/authorization/generatePolicy.ts -->
<g id="edge41" class="edge">
<title>usecases/authorize.ts&#45;&gt;infrastructure/frameworks/authorization/generatePolicy.ts</title>
<path fill="none" stroke="#757575" d="M1541.35,-736.55C1570.09,-738.14 1604.55,-740.06 1639.47,-742"/>
<polygon fill="#757575" stroke="#757575" points="1639.13,-745.48 1649.3,-742.54 1639.51,-738.5 1639.13,-745.48"/>
</g>
<!-- infrastructure/frameworks/authorization/handleCors.ts -->
<g id="node30" class="node">
<title>infrastructure/frameworks/authorization/handleCors.ts</title>
<path fill="none" stroke="#cfffac" d="M1990.83,-723C1990.83,-723 1668.17,-723 1668.17,-723 1664.33,-723 1660.5,-719.17 1660.5,-715.33 1660.5,-715.33 1660.5,-707.67 1660.5,-707.67 1660.5,-703.83 1664.33,-700 1668.17,-700 1668.17,-700 1990.83,-700 1990.83,-700 1994.67,-700 1998.5,-703.83 1998.5,-707.67 1998.5,-707.67 1998.5,-715.33 1998.5,-715.33 1998.5,-719.17 1994.67,-723 1990.83,-723"/>
<text text-anchor="middle" x="1829.5" y="-707.8" font-family="Arial" font-size="14.00" fill="#cfffac">infrastructure/frameworks/authorization/handleCors.ts</text>
</g>
<!-- usecases/authorize.ts&#45;&gt;infrastructure/frameworks/authorization/handleCors.ts -->
<g id="edge42" class="edge">
<title>usecases/authorize.ts&#45;&gt;infrastructure/frameworks/authorization/handleCors.ts</title>
<path fill="none" stroke="#757575" d="M1541.35,-728.25C1572.67,-726.42 1610.8,-724.2 1648.9,-721.98"/>
<polygon fill="#757575" stroke="#757575" points="1648.89,-725.48 1658.67,-721.41 1648.48,-718.5 1648.89,-725.48"/>
</g>
<!-- infrastructure/frameworks/addCustomMetric.ts -->
<g id="node28" class="node">
<title>infrastructure/frameworks/addCustomMetric.ts</title>
<path fill="none" stroke="#cfffac" d="M1607.33,-185C1607.33,-185 1327.67,-185 1327.67,-185 1323.83,-185 1320,-181.17 1320,-177.33 1320,-177.33 1320,-169.67 1320,-169.67 1320,-165.83 1323.83,-162 1327.67,-162 1327.67,-162 1607.33,-162 1607.33,-162 1611.17,-162 1615,-165.83 1615,-169.67 1615,-169.67 1615,-177.33 1615,-177.33 1615,-181.17 1611.17,-185 1607.33,-185"/>
<text text-anchor="middle" x="1467.5" y="-169.8" font-family="Arial" font-size="14.00" fill="#cfffac">infrastructure/frameworks/addCustomMetric.ts</text>
</g>
<!-- infrastructure/frameworks/getCleanedItems.ts -->
<g id="node31" class="node">
<title>infrastructure/frameworks/getCleanedItems.ts</title>
<path fill="none" stroke="#c6c5fe" d="M1604.83,-144C1604.83,-144 1330.17,-144 1330.17,-144 1326.33,-144 1322.5,-140.17 1322.5,-136.33 1322.5,-136.33 1322.5,-128.67 1322.5,-128.67 1322.5,-124.83 1326.33,-121 1330.17,-121 1330.17,-121 1604.83,-121 1604.83,-121 1608.67,-121 1612.5,-124.83 1612.5,-128.67 1612.5,-128.67 1612.5,-136.33 1612.5,-136.33 1612.5,-140.17 1608.67,-144 1604.83,-144"/>
<text text-anchor="middle" x="1467.5" y="-128.8" font-family="Arial" font-size="14.00" fill="#c6c5fe">infrastructure/frameworks/getCleanedItems.ts</text>
</g>
<!-- infrastructure/frameworks/getCleanedItems.ts&#45;&gt;application/errors.ts -->
<g id="edge27" class="edge">
<title>infrastructure/frameworks/getCleanedItems.ts&#45;&gt;application/errors.ts</title>
<path fill="none" stroke="#757575" d="M1596.86,-144.5C1603.13,-146.79 1609.21,-149.44 1615,-152.5 1636.14,-163.69 1631.05,-179.3 1651,-192.5 1683.86,-214.24 1725.28,-229.05 1759.84,-238.63"/>
<polygon fill="#757575" stroke="#757575" points="1758.77,-241.97 1769.33,-241.17 1760.58,-235.21 1758.77,-241.97"/>
</g>
<!-- infrastructure/frameworks/getCleanedItems.ts&#45;&gt;infrastructure/frameworks/time.ts -->
<g id="edge28" class="edge">
<title>infrastructure/frameworks/getCleanedItems.ts&#45;&gt;infrastructure/frameworks/time.ts</title>
<path fill="none" stroke="#757575" d="M1576.02,-144.45C1618.53,-149.17 1667.5,-154.61 1710.94,-159.44"/>
<polygon fill="#757575" stroke="#757575" points="1710.32,-162.89 1720.65,-160.52 1711.09,-155.93 1710.32,-162.89"/>
</g>
<!-- infrastructure/repositories/DynamoDbRepository.ts&#45;&gt;application/errors.ts -->
<g id="edge31" class="edge">
<title>infrastructure/repositories/DynamoDbRepository.ts&#45;&gt;application/errors.ts</title>
<path fill="none" stroke="#757575" d="M1267.97,-134.37C1273.52,-136.73 1278.89,-139.43 1284,-142.5 1307.79,-156.78 1296.16,-179.31 1320,-193.5 1338.26,-204.37 1613.03,-232.48 1750.87,-246.01"/>
<polygon fill="#757575" stroke="#757575" points="1750.36,-249.48 1760.65,-246.97 1751.04,-242.51 1750.36,-249.48"/>
</g>
<!-- infrastructure/repositories/DynamoDbRepository.ts&#45;&gt;infrastructure/frameworks/date.ts -->
<g id="edge33" class="edge">
<title>infrastructure/repositories/DynamoDbRepository.ts&#45;&gt;infrastructure/frameworks/date.ts</title>
<path fill="none" stroke="#757575" d="M1271.44,-134.41C1275.81,-136.8 1280.02,-139.49 1284,-142.5 1316.71,-167.26 1287.92,-201.93 1320,-227.5 1328.79,-234.5 1338.82,-239.88 1349.42,-243.97"/>
<polygon fill="#757575" stroke="#757575" points="1348.15,-247.24 1358.75,-247.17 1350.42,-240.62 1348.15,-247.24"/>
</g>
<!-- infrastructure/repositories/DynamoDbRepository.ts&#45;&gt;infrastructure/frameworks/addCustomMetric.ts -->
<g id="edge32" class="edge">
<title>infrastructure/repositories/DynamoDbRepository.ts&#45;&gt;infrastructure/frameworks/addCustomMetric.ts</title>
<path fill="none" stroke="#757575" d="M1236.68,-134.45C1252.62,-136.76 1268.77,-139.44 1284,-142.5 1300.28,-145.77 1303.75,-149.09 1320,-152.5 1332.67,-155.16 1346.03,-157.58 1359.32,-159.76"/>
<polygon fill="#757575" stroke="#757575" points="1358.52,-163.18 1368.95,-161.3 1359.62,-156.27 1358.52,-163.18"/>
</g>
<!-- infrastructure/repositories/DynamoDbRepository.ts&#45;&gt;infrastructure/frameworks/getCleanedItems.ts -->
<g id="edge34" class="edge">
<title>infrastructure/repositories/DynamoDbRepository.ts&#45;&gt;infrastructure/frameworks/getCleanedItems.ts</title>
<path fill="none" stroke="#757575" d="M1284.02,-127.15C1292.95,-127.41 1301.92,-127.67 1310.84,-127.94"/>
<polygon fill="#757575" stroke="#757575" points="1310.48,-131.43 1320.58,-128.22 1310.69,-124.43 1310.48,-131.43"/>
</g>
<!-- infrastructure/repositories/LocalRepository.ts&#45;&gt;infrastructure/frameworks/date.ts -->
<g id="edge35" class="edge">
<title>infrastructure/repositories/LocalRepository.ts&#45;&gt;infrastructure/frameworks/date.ts</title>
<path fill="none" stroke="#757575" d="M1266.13,-175.22C1272.3,-177.6 1278.3,-180.34 1284,-183.5 1306.11,-195.73 1298.2,-214.72 1320,-227.5 1329.1,-232.83 1339.02,-237.13 1349.27,-240.58"/>
<polygon fill="#757575" stroke="#757575" points="1348.01,-243.85 1358.6,-243.43 1350.06,-237.16 1348.01,-243.85"/>
</g>
</g>
</svg>
