<?xml version="1.0" encoding="UTF-8" standalone="no"?>
<!DOCTYPE svg PUBLIC "-//W3C//DTD SVG 1.1//EN"
 "http://www.w3.org/Graphics/SVG/1.1/DTD/svg11.dtd">
<!-- Generated by graphviz version 7.0.6 (20230106.0513)
 -->
<!-- Title: G Pages: 1 -->
<svg width="1615pt" height="599pt"
 viewBox="0.00 0.00 1615.20 599.20" xmlns="http://www.w3.org/2000/svg" xmlns:xlink="http://www.w3.org/1999/xlink">
<g id="graph0" class="graph" transform="scale(1 1) rotate(0) translate(21.6 577.6)">
<title>G</title>
<polygon fill="#111111" stroke="none" points="-21.6,21.6 -21.6,-577.6 1593.6,-577.6 1593.6,21.6 -21.6,21.6"/>
<!-- application/getExpiryTime.ts -->
<g id="node1" class="node">
<title>application/getExpiryTime.ts</title>
<path fill="none" stroke="#cfffac" d="M1509.83,-105C1509.83,-105 1339.17,-105 1339.17,-105 1335.33,-105 1331.5,-101.17 1331.5,-97.33 1331.5,-97.33 1331.5,-89.67 1331.5,-89.67 1331.5,-85.83 1335.33,-82 1339.17,-82 1339.17,-82 1509.83,-82 1509.83,-82 1513.67,-82 1517.5,-85.83 1517.5,-89.67 1517.5,-89.67 1517.5,-97.33 1517.5,-97.33 1517.5,-101.17 1513.67,-105 1509.83,-105"/>
<text text-anchor="middle" x="1424.5" y="-89.8" font-family="Arial" font-size="14.00" fill="#cfffac">application/getExpiryTime.ts</text>
</g>
<!-- application/getParser.ts -->
<g id="node2" class="node">
<title>application/getParser.ts</title>
<path fill="none" stroke="#c6c5fe" d="M787.83,-515C787.83,-515 646.17,-515 646.17,-515 642.33,-515 638.5,-511.17 638.5,-507.33 638.5,-507.33 638.5,-499.67 638.5,-499.67 638.5,-495.83 642.33,-492 646.17,-492 646.17,-492 787.83,-492 787.83,-492 791.67,-492 795.5,-495.83 795.5,-499.67 795.5,-499.67 795.5,-507.33 795.5,-507.33 795.5,-511.17 791.67,-515 787.83,-515"/>
<text text-anchor="middle" x="717" y="-499.8" font-family="Arial" font-size="14.00" fill="#c6c5fe">application/getParser.ts</text>
</g>
<!-- domain/services/GitHubParser.ts -->
<g id="node3" class="node">
<title>domain/services/GitHubParser.ts</title>
<path fill="none" stroke="#cfffac" d="M1181.33,-556C1181.33,-556 981.67,-556 981.67,-556 977.83,-556 974,-552.17 974,-548.33 974,-548.33 974,-540.67 974,-540.67 974,-536.83 977.83,-533 981.67,-533 981.67,-533 1181.33,-533 1181.33,-533 1185.17,-533 1189,-536.83 1189,-540.67 1189,-540.67 1189,-548.33 1189,-548.33 1189,-552.17 1185.17,-556 1181.33,-556"/>
<text text-anchor="middle" x="1081.5" y="-540.8" font-family="Arial" font-size="14.00" fill="#cfffac">domain/services/GitHubParser.ts</text>
</g>
<!-- application/getParser.ts&#45;&gt;domain/services/GitHubParser.ts -->
<g id="edge1" class="edge">
<title>application/getParser.ts&#45;&gt;domain/services/GitHubParser.ts</title>
<path fill="none" stroke="#757575" d="M795.77,-512.3C844.62,-517.82 908.55,-525.05 963.46,-531.26"/>
<polygon fill="#757575" stroke="#757575" points="962.84,-534.71 973.17,-532.36 963.62,-527.76 962.84,-534.71"/>
</g>
<!-- domain/services/Result.ts -->
<g id="node4" class="node">
<title>domain/services/Result.ts</title>
<path fill="none" stroke="#cfffac" d="M1159.33,-515C1159.33,-515 1003.67,-515 1003.67,-515 999.83,-515 996,-511.17 996,-507.33 996,-507.33 996,-499.67 996,-499.67 996,-495.83 999.83,-492 1003.67,-492 1003.67,-492 1159.33,-492 1159.33,-492 1163.17,-492 1167,-495.83 1167,-499.67 1167,-499.67 1167,-507.33 1167,-507.33 1167,-511.17 1163.17,-515 1159.33,-515"/>
<text text-anchor="middle" x="1081.5" y="-499.8" font-family="Arial" font-size="14.00" fill="#cfffac">domain/services/Result.ts</text>
</g>
<!-- application/getParser.ts&#45;&gt;domain/services/Result.ts -->
<g id="edge2" class="edge">
<title>application/getParser.ts&#45;&gt;domain/services/Result.ts</title>
<path fill="none" stroke="#757575" d="M795.77,-503.5C850.98,-503.5 925.46,-503.5 984.39,-503.5"/>
<polygon fill="#757575" stroke="#757575" points="984.07,-507 994.07,-503.5 984.07,-500 984.07,-507"/>
</g>
<!-- application/getRequestDTO.ts -->
<g id="node5" class="node">
<title>application/getRequestDTO.ts</title>
<path fill="none" stroke="#cfffac" d="M497.83,-112C497.83,-112 316.17,-112 316.17,-112 312.33,-112 308.5,-108.17 308.5,-104.33 308.5,-104.33 308.5,-96.67 308.5,-96.67 308.5,-92.83 312.33,-89 316.17,-89 316.17,-89 497.83,-89 497.83,-89 501.67,-89 505.5,-92.83 505.5,-96.67 505.5,-96.67 505.5,-104.33 505.5,-104.33 505.5,-108.17 501.67,-112 497.83,-112"/>
<text text-anchor="middle" x="407" y="-96.8" font-family="Arial" font-size="14.00" fill="#cfffac">application/getRequestDTO.ts</text>
</g>
<!-- application/mapResultToUsecase.ts -->
<g id="node6" class="node">
<title>application/mapResultToUsecase.ts</title>
<path fill="none" stroke="#c6c5fe" d="M824.83,-269C824.83,-269 609.17,-269 609.17,-269 605.33,-269 601.5,-265.17 601.5,-261.33 601.5,-261.33 601.5,-253.67 601.5,-253.67 601.5,-249.83 605.33,-246 609.17,-246 609.17,-246 824.83,-246 824.83,-246 828.67,-246 832.5,-249.83 832.5,-253.67 832.5,-253.67 832.5,-261.33 832.5,-261.33 832.5,-265.17 828.67,-269 824.83,-269"/>
<text text-anchor="middle" x="717" y="-253.8" font-family="Arial" font-size="14.00" fill="#c6c5fe">application/mapResultToUsecase.ts</text>
</g>
<!-- usecases/approved.ts -->
<g id="node7" class="node">
<title>usecases/approved.ts</title>
<path fill="none" stroke="#cfffac" d="M1147.83,-474C1147.83,-474 1015.17,-474 1015.17,-474 1011.33,-474 1007.5,-470.17 1007.5,-466.33 1007.5,-466.33 1007.5,-458.67 1007.5,-458.67 1007.5,-454.83 1011.33,-451 1015.17,-451 1015.17,-451 1147.83,-451 1147.83,-451 1151.67,-451 1155.5,-454.83 1155.5,-458.67 1155.5,-458.67 1155.5,-466.33 1155.5,-466.33 1155.5,-470.17 1151.67,-474 1147.83,-474"/>
<text text-anchor="middle" x="1081.5" y="-458.8" font-family="Arial" font-size="14.00" fill="#cfffac">usecases/approved.ts</text>
</g>
<!-- application/mapResultToUsecase.ts&#45;&gt;usecases/approved.ts -->
<g id="edge3" class="edge">
<title>application/mapResultToUsecase.ts&#45;&gt;usecases/approved.ts</title>
<path fill="none" stroke="#757575" d="M726.56,-269.21C751.94,-302.93 830.78,-400.55 922,-442.5 944.84,-453 971.36,-458.57 996.11,-461.39"/>
<polygon fill="#757575" stroke="#757575" points="995.54,-464.85 1005.83,-462.35 996.22,-457.89 995.54,-464.85"/>
</g>
<!-- usecases/changesRequested.ts -->
<g id="node8" class="node">
<title>usecases/changesRequested.ts</title>
<path fill="none" stroke="#cfffac" d="M1177.83,-433C1177.83,-433 985.17,-433 985.17,-433 981.33,-433 977.5,-429.17 977.5,-425.33 977.5,-425.33 977.5,-417.67 977.5,-417.67 977.5,-413.83 981.33,-410 985.17,-410 985.17,-410 1177.83,-410 1177.83,-410 1181.67,-410 1185.5,-413.83 1185.5,-417.67 1185.5,-417.67 1185.5,-425.33 1185.5,-425.33 1185.5,-429.17 1181.67,-433 1177.83,-433"/>
<text text-anchor="middle" x="1081.5" y="-417.8" font-family="Arial" font-size="14.00" fill="#cfffac">usecases/changesRequested.ts</text>
</g>
<!-- application/mapResultToUsecase.ts&#45;&gt;usecases/changesRequested.ts -->
<g id="edge4" class="edge">
<title>application/mapResultToUsecase.ts&#45;&gt;usecases/changesRequested.ts</title>
<path fill="none" stroke="#757575" d="M730.09,-269.25C759.85,-297.38 840.19,-368.62 922,-400.5 935.94,-405.93 951.05,-410.01 966.2,-413.06"/>
<polygon fill="#757575" stroke="#757575" points="965.26,-416.45 975.73,-414.83 966.54,-409.56 965.26,-416.45"/>
</g>
<!-- usecases/closed.ts -->
<g id="node9" class="node">
<title>usecases/closed.ts</title>
<path fill="none" stroke="#cfffac" d="M1139.33,-392C1139.33,-392 1023.67,-392 1023.67,-392 1019.83,-392 1016,-388.17 1016,-384.33 1016,-384.33 1016,-376.67 1016,-376.67 1016,-372.83 1019.83,-369 1023.67,-369 1023.67,-369 1139.33,-369 1139.33,-369 1143.17,-369 1147,-372.83 1147,-376.67 1147,-376.67 1147,-384.33 1147,-384.33 1147,-388.17 1143.17,-392 1139.33,-392"/>
<text text-anchor="middle" x="1081.5" y="-376.8" font-family="Arial" font-size="14.00" fill="#cfffac">usecases/closed.ts</text>
</g>
<!-- application/mapResultToUsecase.ts&#45;&gt;usecases/closed.ts -->
<g id="edge5" class="edge">
<title>application/mapResultToUsecase.ts&#45;&gt;usecases/closed.ts</title>
<path fill="none" stroke="#757575" d="M736.52,-269.43C771.32,-291.22 849.51,-337.26 922,-359.5 948.35,-367.59 978.11,-372.56 1004.67,-375.62"/>
<polygon fill="#757575" stroke="#757575" points="1004.02,-379.07 1014.33,-376.65 1004.76,-372.11 1004.02,-379.07"/>
</g>
<!-- usecases/commented.ts -->
<g id="node10" class="node">
<title>usecases/commented.ts</title>
<path fill="none" stroke="#cfffac" d="M1155.83,-351C1155.83,-351 1007.17,-351 1007.17,-351 1003.33,-351 999.5,-347.17 999.5,-343.33 999.5,-343.33 999.5,-335.67 999.5,-335.67 999.5,-331.83 1003.33,-328 1007.17,-328 1007.17,-328 1155.83,-328 1155.83,-328 1159.67,-328 1163.5,-331.83 1163.5,-335.67 1163.5,-335.67 1163.5,-343.33 1163.5,-343.33 1163.5,-347.17 1159.67,-351 1155.83,-351"/>
<text text-anchor="middle" x="1081.5" y="-335.8" font-family="Arial" font-size="14.00" fill="#cfffac">usecases/commented.ts</text>
</g>
<!-- application/mapResultToUsecase.ts&#45;&gt;usecases/commented.ts -->
<g id="edge6" class="edge">
<title>application/mapResultToUsecase.ts&#45;&gt;usecases/commented.ts</title>
<path fill="none" stroke="#757575" d="M751.86,-269.43C791.99,-283.15 861.1,-305.45 922,-318.5 943.15,-323.03 966.11,-326.75 987.81,-329.73"/>
<polygon fill="#757575" stroke="#757575" points="987.16,-333.18 997.53,-331.02 988.08,-326.24 987.16,-333.18"/>
</g>
<!-- usecases/merged.ts -->
<g id="node11" class="node">
<title>usecases/merged.ts</title>
<path fill="none" stroke="#cfffac" d="M1142.83,-310C1142.83,-310 1020.17,-310 1020.17,-310 1016.33,-310 1012.5,-306.17 1012.5,-302.33 1012.5,-302.33 1012.5,-294.67 1012.5,-294.67 1012.5,-290.83 1016.33,-287 1020.17,-287 1020.17,-287 1142.83,-287 1142.83,-287 1146.67,-287 1150.5,-290.83 1150.5,-294.67 1150.5,-294.67 1150.5,-302.33 1150.5,-302.33 1150.5,-306.17 1146.67,-310 1142.83,-310"/>
<text text-anchor="middle" x="1081.5" y="-294.8" font-family="Arial" font-size="14.00" fill="#cfffac">usecases/merged.ts</text>
</g>
<!-- application/mapResultToUsecase.ts&#45;&gt;usecases/merged.ts -->
<g id="edge7" class="edge">
<title>application/mapResultToUsecase.ts&#45;&gt;usecases/merged.ts</title>
<path fill="none" stroke="#757575" d="M823.82,-269.47C880.38,-275.87 948.87,-283.61 1000.87,-289.49"/>
<polygon fill="#757575" stroke="#757575" points="1000.2,-292.94 1010.53,-290.59 1000.99,-285.98 1000.2,-292.94"/>
</g>
<!-- usecases/opened.ts -->
<g id="node12" class="node">
<title>usecases/opened.ts</title>
<path fill="none" stroke="#cfffac" d="M1142.33,-269C1142.33,-269 1020.67,-269 1020.67,-269 1016.83,-269 1013,-265.17 1013,-261.33 1013,-261.33 1013,-253.67 1013,-253.67 1013,-249.83 1016.83,-246 1020.67,-246 1020.67,-246 1142.33,-246 1142.33,-246 1146.17,-246 1150,-249.83 1150,-253.67 1150,-253.67 1150,-261.33 1150,-261.33 1150,-265.17 1146.17,-269 1142.33,-269"/>
<text text-anchor="middle" x="1081.5" y="-253.8" font-family="Arial" font-size="14.00" fill="#cfffac">usecases/opened.ts</text>
</g>
<!-- application/mapResultToUsecase.ts&#45;&gt;usecases/opened.ts -->
<g id="edge8" class="edge">
<title>application/mapResultToUsecase.ts&#45;&gt;usecases/opened.ts</title>
<path fill="none" stroke="#757575" d="M832.7,-257.5C887.64,-257.5 952.05,-257.5 1001.43,-257.5"/>
<polygon fill="#757575" stroke="#757575" points="1001.18,-261 1011.18,-257.5 1001.18,-254 1001.18,-261"/>
</g>
<!-- usecases/pushed.ts -->
<g id="node13" class="node">
<title>usecases/pushed.ts</title>
<path fill="none" stroke="#cfffac" d="M1141.83,-228C1141.83,-228 1021.17,-228 1021.17,-228 1017.33,-228 1013.5,-224.17 1013.5,-220.33 1013.5,-220.33 1013.5,-212.67 1013.5,-212.67 1013.5,-208.83 1017.33,-205 1021.17,-205 1021.17,-205 1141.83,-205 1141.83,-205 1145.67,-205 1149.5,-208.83 1149.5,-212.67 1149.5,-212.67 1149.5,-220.33 1149.5,-220.33 1149.5,-224.17 1145.67,-228 1141.83,-228"/>
<text text-anchor="middle" x="1081.5" y="-212.8" font-family="Arial" font-size="14.00" fill="#cfffac">usecases/pushed.ts</text>
</g>
<!-- application/mapResultToUsecase.ts&#45;&gt;usecases/pushed.ts -->
<g id="edge9" class="edge">
<title>application/mapResultToUsecase.ts&#45;&gt;usecases/pushed.ts</title>
<path fill="none" stroke="#757575" d="M823.82,-245.53C880.77,-239.09 949.81,-231.28 1001.94,-225.39"/>
<polygon fill="#757575" stroke="#757575" points="1002.08,-228.89 1011.62,-224.29 1001.29,-221.94 1002.08,-228.89"/>
</g>
<!-- usecases/reviewPickedUp.ts -->
<g id="node14" class="node">
<title>usecases/reviewPickedUp.ts</title>
<path fill="none" stroke="#cfffac" d="M1167.83,-187C1167.83,-187 995.17,-187 995.17,-187 991.33,-187 987.5,-183.17 987.5,-179.33 987.5,-179.33 987.5,-171.67 987.5,-171.67 987.5,-167.83 991.33,-164 995.17,-164 995.17,-164 1167.83,-164 1167.83,-164 1171.67,-164 1175.5,-167.83 1175.5,-171.67 1175.5,-171.67 1175.5,-179.33 1175.5,-179.33 1175.5,-183.17 1171.67,-187 1167.83,-187"/>
<text text-anchor="middle" x="1081.5" y="-171.8" font-family="Arial" font-size="14.00" fill="#cfffac">usecases/reviewPickedUp.ts</text>
</g>
<!-- application/mapResultToUsecase.ts&#45;&gt;usecases/reviewPickedUp.ts -->
<g id="edge10" class="edge">
<title>application/mapResultToUsecase.ts&#45;&gt;usecases/reviewPickedUp.ts</title>
<path fill="none" stroke="#757575" d="M832.83,-246.71C851.18,-242.46 869.53,-236.59 886,-228.5 905.48,-218.93 902.3,-204.62 922,-195.5 938.75,-187.74 957.51,-182.67 976.09,-179.4"/>
<polygon fill="#757575" stroke="#757575" points="976.48,-182.88 985.82,-177.87 975.39,-175.97 976.48,-182.88"/>
</g>
<!-- usecases/reviewTime.ts -->
<g id="node15" class="node">
<title>usecases/reviewTime.ts</title>
<path fill="none" stroke="#cfffac" d="M1154.33,-146C1154.33,-146 1008.67,-146 1008.67,-146 1004.83,-146 1001,-142.17 1001,-138.33 1001,-138.33 1001,-130.67 1001,-130.67 1001,-126.83 1004.83,-123 1008.67,-123 1008.67,-123 1154.33,-123 1154.33,-123 1158.17,-123 1162,-126.83 1162,-130.67 1162,-130.67 1162,-138.33 1162,-138.33 1162,-142.17 1158.17,-146 1154.33,-146"/>
<text text-anchor="middle" x="1081.5" y="-130.8" font-family="Arial" font-size="14.00" fill="#cfffac">usecases/reviewTime.ts</text>
</g>
<!-- application/mapResultToUsecase.ts&#45;&gt;usecases/reviewTime.ts -->
<g id="edge11" class="edge">
<title>application/mapResultToUsecase.ts&#45;&gt;usecases/reviewTime.ts</title>
<path fill="none" stroke="#757575" d="M832.89,-252.57C851.94,-247.73 870.5,-240.15 886,-228.5 915.24,-206.53 892.27,-175.8 922,-154.5 941.46,-140.55 965.82,-133.74 989.56,-130.83"/>
<polygon fill="#757575" stroke="#757575" points="989.66,-134.34 999.27,-129.88 988.98,-127.37 989.66,-134.34"/>
</g>
<!-- usecases/reviewed.ts -->
<g id="node16" class="node">
<title>usecases/reviewed.ts</title>
<path fill="none" stroke="#cfffac" d="M1146.83,-105C1146.83,-105 1016.17,-105 1016.17,-105 1012.33,-105 1008.5,-101.17 1008.5,-97.33 1008.5,-97.33 1008.5,-89.67 1008.5,-89.67 1008.5,-85.83 1012.33,-82 1016.17,-82 1016.17,-82 1146.83,-82 1146.83,-82 1150.67,-82 1154.5,-85.83 1154.5,-89.67 1154.5,-89.67 1154.5,-97.33 1154.5,-97.33 1154.5,-101.17 1150.67,-105 1146.83,-105"/>
<text text-anchor="middle" x="1081.5" y="-89.8" font-family="Arial" font-size="14.00" fill="#cfffac">usecases/reviewed.ts</text>
</g>
<!-- application/mapResultToUsecase.ts&#45;&gt;usecases/reviewed.ts -->
<g id="edge12" class="edge">
<title>application/mapResultToUsecase.ts&#45;&gt;usecases/reviewed.ts</title>
<path fill="none" stroke="#757575" d="M832.67,-254.89C852.18,-249.9 870.97,-241.66 886,-228.5 926.29,-193.22 880.92,-147.86 922,-113.5 942.66,-96.22 970.46,-89.17 997.01,-87.08"/>
<polygon fill="#757575" stroke="#757575" points="996.98,-90.59 1006.77,-86.55 996.6,-83.6 996.98,-90.59"/>
</g>
<!-- domain/services/Metrics.ts -->
<g id="node17" class="node">
<title>domain/services/Metrics.ts</title>
<path fill="none" stroke="#cfffac" d="M797.83,-31C797.83,-31 636.17,-31 636.17,-31 632.33,-31 628.5,-27.17 628.5,-23.33 628.5,-23.33 628.5,-15.67 628.5,-15.67 628.5,-11.83 632.33,-8 636.17,-8 636.17,-8 797.83,-8 797.83,-8 801.67,-8 805.5,-11.83 805.5,-15.67 805.5,-15.67 805.5,-23.33 805.5,-23.33 805.5,-27.17 801.67,-31 797.83,-31"/>
<text text-anchor="middle" x="717" y="-15.8" font-family="Arial" font-size="14.00" fill="#cfffac">domain/services/Metrics.ts</text>
</g>
<!-- infrastructure/adapters/web/AddMetrics.ts -->
<g id="node18" class="node">
<title>infrastructure/adapters/web/AddMetrics.ts</title>
<path fill="none" stroke="#c6c5fe" d="M258.33,-168C258.33,-168 7.67,-168 7.67,-168 3.83,-168 0,-164.17 0,-160.33 0,-160.33 0,-152.67 0,-152.67 0,-148.83 3.83,-145 7.67,-145 7.67,-145 258.33,-145 258.33,-145 262.17,-145 266,-148.83 266,-152.67 266,-152.67 266,-160.33 266,-160.33 266,-164.17 262.17,-168 258.33,-168"/>
<text text-anchor="middle" x="133" y="-152.8" font-family="Arial" font-size="14.00" fill="#c6c5fe">infrastructure/adapters/web/AddMetrics.ts</text>
</g>
<!-- infrastructure/frameworks/end.ts -->
<g id="node19" class="node">
<title>infrastructure/frameworks/end.ts</title>
<path fill="none" stroke="#cfffac" d="M504.33,-163C504.33,-163 309.67,-163 309.67,-163 305.83,-163 302,-159.17 302,-155.33 302,-155.33 302,-147.67 302,-147.67 302,-143.83 305.83,-140 309.67,-140 309.67,-140 504.33,-140 504.33,-140 508.17,-140 512,-143.83 512,-147.67 512,-147.67 512,-155.33 512,-155.33 512,-159.17 508.17,-163 504.33,-163"/>
<text text-anchor="middle" x="407" y="-147.8" font-family="Arial" font-size="14.00" fill="#cfffac">infrastructure/frameworks/end.ts</text>
</g>
<!-- infrastructure/adapters/web/AddMetrics.ts&#45;&gt;infrastructure/frameworks/end.ts -->
<g id="edge13" class="edge">
<title>infrastructure/adapters/web/AddMetrics.ts&#45;&gt;infrastructure/frameworks/end.ts</title>
<path fill="none" stroke="#757575" d="M266.41,-154.07C274.4,-153.92 282.41,-153.77 290.32,-153.63"/>
<polygon fill="#757575" stroke="#757575" points="290.38,-157.13 300.31,-153.44 290.25,-150.13 290.38,-157.13"/>
</g>
<!-- usecases/addMetric.ts -->
<g id="node20" class="node">
<title>usecases/addMetric.ts</title>
<path fill="none" stroke="#c6c5fe" d="M475.33,-220C475.33,-220 338.67,-220 338.67,-220 334.83,-220 331,-216.17 331,-212.33 331,-212.33 331,-204.67 331,-204.67 331,-200.83 334.83,-197 338.67,-197 338.67,-197 475.33,-197 475.33,-197 479.17,-197 483,-200.83 483,-204.67 483,-204.67 483,-212.33 483,-212.33 483,-216.17 479.17,-220 475.33,-220"/>
<text text-anchor="middle" x="407" y="-204.8" font-family="Arial" font-size="14.00" fill="#c6c5fe">usecases/addMetric.ts</text>
</g>
<!-- infrastructure/adapters/web/AddMetrics.ts&#45;&gt;usecases/addMetric.ts -->
<g id="edge14" class="edge">
<title>infrastructure/adapters/web/AddMetrics.ts&#45;&gt;usecases/addMetric.ts</title>
<path fill="none" stroke="#757575" d="M196.74,-168.5C237.21,-176.23 290.02,-186.33 332.46,-194.44"/>
<polygon fill="#757575" stroke="#757575" points="331.61,-197.84 342.09,-196.28 332.92,-190.97 331.61,-197.84"/>
</g>
<!-- usecases/addMetric.ts&#45;&gt;application/getParser.ts -->
<g id="edge25" class="edge">
<title>usecases/addMetric.ts&#45;&gt;application/getParser.ts</title>
<path fill="none" stroke="#757575" d="M420.46,-220.43C467.77,-265.75 636.65,-427.5 695.56,-483.92"/>
<polygon fill="#757575" stroke="#757575" points="692.99,-486.31 702.63,-490.7 697.83,-481.25 692.99,-486.31"/>
</g>
<!-- usecases/addMetric.ts&#45;&gt;application/mapResultToUsecase.ts -->
<g id="edge26" class="edge">
<title>usecases/addMetric.ts&#45;&gt;application/mapResultToUsecase.ts</title>
<path fill="none" stroke="#757575" d="M483.35,-220.49C527.52,-227.51 583.5,-236.42 629.48,-243.73"/>
<polygon fill="#757575" stroke="#757575" points="628.71,-247.16 639.14,-245.27 629.81,-240.24 628.71,-247.16"/>
</g>
<!-- infrastructure/frameworks/getRepo.ts -->
<g id="node22" class="node">
<title>infrastructure/frameworks/getRepo.ts</title>
<path fill="none" stroke="#c6c5fe" d="M828.83,-72C828.83,-72 605.17,-72 605.17,-72 601.33,-72 597.5,-68.17 597.5,-64.33 597.5,-64.33 597.5,-56.67 597.5,-56.67 597.5,-52.83 601.33,-49 605.17,-49 605.17,-49 828.83,-49 828.83,-49 832.67,-49 836.5,-52.83 836.5,-56.67 836.5,-56.67 836.5,-64.33 836.5,-64.33 836.5,-68.17 832.67,-72 828.83,-72"/>
<text text-anchor="middle" x="717" y="-56.8" font-family="Arial" font-size="14.00" fill="#c6c5fe">infrastructure/frameworks/getRepo.ts</text>
</g>
<!-- usecases/addMetric.ts&#45;&gt;infrastructure/frameworks/getRepo.ts -->
<g id="edge28" class="edge">
<title>usecases/addMetric.ts&#45;&gt;infrastructure/frameworks/getRepo.ts</title>
<path fill="none" stroke="#757575" d="M446.11,-196.54C466.03,-189.88 490.65,-181.03 512,-171.5 576.38,-142.75 647.99,-101.48 686.92,-78.21"/>
<polygon fill="#757575" stroke="#757575" points="688.48,-81.36 695.25,-73.21 684.87,-75.36 688.48,-81.36"/>
</g>
<!-- infrastructure/frameworks/getLowerCaseHeaders.ts -->
<g id="node29" class="node">
<title>infrastructure/frameworks/getLowerCaseHeaders.ts</title>
<path fill="none" stroke="#cfffac" d="M872.33,-220C872.33,-220 561.67,-220 561.67,-220 557.83,-220 554,-216.17 554,-212.33 554,-212.33 554,-204.67 554,-204.67 554,-200.83 557.83,-197 561.67,-197 561.67,-197 872.33,-197 872.33,-197 876.17,-197 880,-200.83 880,-204.67 880,-204.67 880,-212.33 880,-212.33 880,-216.17 876.17,-220 872.33,-220"/>
<text text-anchor="middle" x="717" y="-204.8" font-family="Arial" font-size="14.00" fill="#cfffac">infrastructure/frameworks/getLowerCaseHeaders.ts</text>
</g>
<!-- usecases/addMetric.ts&#45;&gt;infrastructure/frameworks/getLowerCaseHeaders.ts -->
<g id="edge27" class="edge">
<title>usecases/addMetric.ts&#45;&gt;infrastructure/frameworks/getLowerCaseHeaders.ts</title>
<path fill="none" stroke="#757575" d="M483.35,-208.5C501.45,-208.5 521.54,-208.5 542.11,-208.5"/>
<polygon fill="#757575" stroke="#757575" points="542.07,-212 552.07,-208.5 542.07,-205 542.07,-212"/>
</g>
<!-- infrastructure/adapters/web/GetMetrics.ts -->
<g id="node21" class="node">
<title>infrastructure/adapters/web/GetMetrics.ts</title>
<path fill="none" stroke="#c6c5fe" d="M257.83,-107C257.83,-107 8.17,-107 8.17,-107 4.33,-107 0.5,-103.17 0.5,-99.33 0.5,-99.33 0.5,-91.67 0.5,-91.67 0.5,-87.83 4.33,-84 8.17,-84 8.17,-84 257.83,-84 257.83,-84 261.67,-84 265.5,-87.83 265.5,-91.67 265.5,-91.67 265.5,-99.33 265.5,-99.33 265.5,-103.17 261.67,-107 257.83,-107"/>
<text text-anchor="middle" x="133" y="-91.8" font-family="Arial" font-size="14.00" fill="#c6c5fe">infrastructure/adapters/web/GetMetrics.ts</text>
</g>
<!-- infrastructure/adapters/web/GetMetrics.ts&#45;&gt;application/getRequestDTO.ts -->
<g id="edge15" class="edge">
<title>infrastructure/adapters/web/GetMetrics.ts&#45;&gt;application/getRequestDTO.ts</title>
<path fill="none" stroke="#757575" d="M265.62,-97.92C276.06,-98.11 286.54,-98.3 296.81,-98.49"/>
<polygon fill="#757575" stroke="#757575" points="296.72,-101.99 306.78,-98.68 296.85,-94.99 296.72,-101.99"/>
</g>
<!-- infrastructure/adapters/web/GetMetrics.ts&#45;&gt;infrastructure/frameworks/end.ts -->
<g id="edge16" class="edge">
<title>infrastructure/adapters/web/GetMetrics.ts&#45;&gt;infrastructure/frameworks/end.ts</title>
<path fill="none" stroke="#757575" d="M192.02,-107.44C234.45,-116.18 292.17,-128.07 336.98,-137.29"/>
<polygon fill="#757575" stroke="#757575" points="336.09,-140.68 346.59,-139.27 337.5,-133.82 336.09,-140.68"/>
</g>
<!-- infrastructure/adapters/web/GetMetrics.ts&#45;&gt;infrastructure/frameworks/getRepo.ts -->
<g id="edge17" class="edge">
<title>infrastructure/adapters/web/GetMetrics.ts&#45;&gt;infrastructure/frameworks/getRepo.ts</title>
<path fill="none" stroke="#757575" d="M251.89,-83.54C268.7,-82.04 285.78,-80.64 302,-79.5 396.94,-72.8 504.3,-67.96 585.9,-64.83"/>
<polygon fill="#757575" stroke="#757575" points="585.86,-68.34 595.72,-64.46 585.6,-61.34 585.86,-68.34"/>
</g>
<!-- usecases/getMetrics.ts -->
<g id="node23" class="node">
<title>usecases/getMetrics.ts</title>
<path fill="none" stroke="#c6c5fe" d="M476.83,-32C476.83,-32 337.17,-32 337.17,-32 333.33,-32 329.5,-28.17 329.5,-24.33 329.5,-24.33 329.5,-16.67 329.5,-16.67 329.5,-12.83 333.33,-9 337.17,-9 337.17,-9 476.83,-9 476.83,-9 480.67,-9 484.5,-12.83 484.5,-16.67 484.5,-16.67 484.5,-24.33 484.5,-24.33 484.5,-28.17 480.67,-32 476.83,-32"/>
<text text-anchor="middle" x="407" y="-16.8" font-family="Arial" font-size="14.00" fill="#c6c5fe">usecases/getMetrics.ts</text>
</g>
<!-- infrastructure/adapters/web/GetMetrics.ts&#45;&gt;usecases/getMetrics.ts -->
<g id="edge18" class="edge">
<title>infrastructure/adapters/web/GetMetrics.ts&#45;&gt;usecases/getMetrics.ts</title>
<path fill="none" stroke="#757575" d="M173.25,-83.58C207.22,-73.38 257.72,-58.49 302,-46.5 316.1,-42.68 331.33,-38.76 345.67,-35.16"/>
<polygon fill="#757575" stroke="#757575" points="346.11,-38.66 354.97,-32.84 344.42,-31.87 346.11,-38.66"/>
</g>
<!-- infrastructure/repositories/DynamoDbRepository.ts -->
<g id="node30" class="node">
<title>infrastructure/repositories/DynamoDbRepository.ts</title>
<path fill="none" stroke="#c6c5fe" d="M1233.33,-64C1233.33,-64 929.67,-64 929.67,-64 925.83,-64 922,-60.17 922,-56.33 922,-56.33 922,-48.67 922,-48.67 922,-44.83 925.83,-41 929.67,-41 929.67,-41 1233.33,-41 1233.33,-41 1237.17,-41 1241,-44.83 1241,-48.67 1241,-48.67 1241,-56.33 1241,-56.33 1241,-60.17 1237.17,-64 1233.33,-64"/>
<text text-anchor="middle" x="1081.5" y="-48.8" font-family="Arial" font-size="14.00" fill="#c6c5fe">infrastructure/repositories/DynamoDbRepository.ts</text>
</g>
<!-- infrastructure/frameworks/getRepo.ts&#45;&gt;infrastructure/repositories/DynamoDbRepository.ts -->
<g id="edge20" class="edge">
<title>infrastructure/frameworks/getRepo.ts&#45;&gt;infrastructure/repositories/DynamoDbRepository.ts</title>
<path fill="none" stroke="#757575" d="M836.95,-57.87C860.4,-57.36 885.43,-56.8 910.19,-56.26"/>
<polygon fill="#757575" stroke="#757575" points="910.11,-59.76 920.03,-56.04 909.95,-52.76 910.11,-59.76"/>
</g>
<!-- infrastructure/repositories/LocalRepository.ts -->
<g id="node31" class="node">
<title>infrastructure/repositories/LocalRepository.ts</title>
<path fill="none" stroke="#cfffac" d="M1215.33,-23C1215.33,-23 947.67,-23 947.67,-23 943.83,-23 940,-19.17 940,-15.33 940,-15.33 940,-7.67 940,-7.67 940,-3.83 943.83,0 947.67,0 947.67,0 1215.33,0 1215.33,0 1219.17,0 1223,-3.83 1223,-7.67 1223,-7.67 1223,-15.33 1223,-15.33 1223,-19.17 1219.17,-23 1215.33,-23"/>
<text text-anchor="middle" x="1081.5" y="-7.8" font-family="Arial" font-size="14.00" fill="#cfffac">infrastructure/repositories/LocalRepository.ts</text>
</g>
<!-- infrastructure/frameworks/getRepo.ts&#45;&gt;infrastructure/repositories/LocalRepository.ts -->
<g id="edge21" class="edge">
<title>infrastructure/frameworks/getRepo.ts&#45;&gt;infrastructure/repositories/LocalRepository.ts</title>
<path fill="none" stroke="#757575" d="M825.77,-48.56C845.84,-45.9 866.6,-42.86 886,-39.5 902.15,-36.7 905.85,-34.31 922,-31.5 935.37,-29.18 949.42,-27.01 963.39,-25.03"/>
<polygon fill="#757575" stroke="#757575" points="963.65,-28.52 973.08,-23.68 962.69,-21.59 963.65,-28.52"/>
</g>
<!-- usecases/getMetrics.ts&#45;&gt;domain/services/Metrics.ts -->
<g id="edge30" class="edge">
<title>usecases/getMetrics.ts&#45;&gt;domain/services/Metrics.ts</title>
<path fill="none" stroke="#757575" d="M484.93,-20.25C524.84,-20.12 574.05,-19.96 616.79,-19.82"/>
<polygon fill="#757575" stroke="#757575" points="616.58,-23.32 626.57,-19.79 616.56,-16.32 616.58,-23.32"/>
</g>
<!-- infrastructure/authorizers/Authorizer.ts -->
<g id="node24" class="node">
<title>infrastructure/authorizers/Authorizer.ts</title>
<path fill="none" stroke="#c6c5fe" d="M247.83,-556C247.83,-556 18.17,-556 18.17,-556 14.33,-556 10.5,-552.17 10.5,-548.33 10.5,-548.33 10.5,-540.67 10.5,-540.67 10.5,-536.83 14.33,-533 18.17,-533 18.17,-533 247.83,-533 247.83,-533 251.67,-533 255.5,-536.83 255.5,-540.67 255.5,-540.67 255.5,-548.33 255.5,-548.33 255.5,-552.17 251.67,-556 247.83,-556"/>
<text text-anchor="middle" x="133" y="-540.8" font-family="Arial" font-size="14.00" fill="#c6c5fe">infrastructure/authorizers/Authorizer.ts</text>
</g>
<!-- usecases/authorize.ts -->
<g id="node25" class="node">
<title>usecases/authorize.ts</title>
<path fill="none" stroke="#c6c5fe" d="M472.83,-556C472.83,-556 341.17,-556 341.17,-556 337.33,-556 333.5,-552.17 333.5,-548.33 333.5,-548.33 333.5,-540.67 333.5,-540.67 333.5,-536.83 337.33,-533 341.17,-533 341.17,-533 472.83,-533 472.83,-533 476.67,-533 480.5,-536.83 480.5,-540.67 480.5,-540.67 480.5,-548.33 480.5,-548.33 480.5,-552.17 476.67,-556 472.83,-556"/>
<text text-anchor="middle" x="407" y="-540.8" font-family="Arial" font-size="14.00" fill="#c6c5fe">usecases/authorize.ts</text>
</g>
<!-- infrastructure/authorizers/Authorizer.ts&#45;&gt;usecases/authorize.ts -->
<g id="edge19" class="edge">
<title>infrastructure/authorizers/Authorizer.ts&#45;&gt;usecases/authorize.ts</title>
<path fill="none" stroke="#757575" d="M255.68,-544.5C278,-544.5 300.84,-544.5 321.75,-544.5"/>
<polygon fill="#757575" stroke="#757575" points="321.65,-548 331.65,-544.5 321.65,-541 321.65,-548"/>
</g>
<!-- infrastructure/frameworks/authorization/handleCors.ts -->
<g id="node27" class="node">
<title>infrastructure/frameworks/authorization/handleCors.ts</title>
<path fill="none" stroke="#cfffac" d="M878.33,-556C878.33,-556 555.67,-556 555.67,-556 551.83,-556 548,-552.17 548,-548.33 548,-548.33 548,-540.67 548,-540.67 548,-536.83 551.83,-533 555.67,-533 555.67,-533 878.33,-533 878.33,-533 882.17,-533 886,-536.83 886,-540.67 886,-540.67 886,-548.33 886,-548.33 886,-552.17 882.17,-556 878.33,-556"/>
<text text-anchor="middle" x="717" y="-540.8" font-family="Arial" font-size="14.00" fill="#cfffac">infrastructure/frameworks/authorization/handleCors.ts</text>
</g>
<!-- usecases/authorize.ts&#45;&gt;infrastructure/frameworks/authorization/handleCors.ts -->
<g id="edge29" class="edge">
<title>usecases/authorize.ts&#45;&gt;infrastructure/frameworks/authorization/handleCors.ts</title>
<path fill="none" stroke="#757575" d="M480.99,-544.5C497.94,-544.5 516.73,-544.5 536.07,-544.5"/>
<polygon fill="#757575" stroke="#757575" points="536,-548 546,-544.5 536,-541 536,-548"/>
</g>
<!-- infrastructure/frameworks/addCustomMetric.ts -->
<g id="node26" class="node">
<title>infrastructure/frameworks/addCustomMetric.ts</title>
<path fill="none" stroke="#cfffac" d="M1564.33,-64C1564.33,-64 1284.67,-64 1284.67,-64 1280.83,-64 1277,-60.17 1277,-56.33 1277,-56.33 1277,-48.67 1277,-48.67 1277,-44.83 1280.83,-41 1284.67,-41 1284.67,-41 1564.33,-41 1564.33,-41 1568.17,-41 1572,-44.83 1572,-48.67 1572,-48.67 1572,-56.33 1572,-56.33 1572,-60.17 1568.17,-64 1564.33,-64"/>
<text text-anchor="middle" x="1424.5" y="-48.8" font-family="Arial" font-size="14.00" fill="#cfffac">infrastructure/frameworks/addCustomMetric.ts</text>
</g>
<!-- infrastructure/frameworks/getCleanedItems.ts -->
<g id="node28" class="node">
<title>infrastructure/frameworks/getCleanedItems.ts</title>
<path fill="none" stroke="#cfffac" d="M1561.83,-23C1561.83,-23 1287.17,-23 1287.17,-23 1283.33,-23 1279.5,-19.17 1279.5,-15.33 1279.5,-15.33 1279.5,-7.67 1279.5,-7.67 1279.5,-3.83 1283.33,0 1287.17,0 1287.17,0 1561.83,0 1561.83,0 1565.67,0 1569.5,-3.83 1569.5,-7.67 1569.5,-7.67 1569.5,-15.33 1569.5,-15.33 1569.5,-19.17 1565.67,-23 1561.83,-23"/>
<text text-anchor="middle" x="1424.5" y="-7.8" font-family="Arial" font-size="14.00" fill="#cfffac">infrastructure/frameworks/getCleanedItems.ts</text>
</g>
<!-- infrastructure/repositories/DynamoDbRepository.ts&#45;&gt;application/getExpiryTime.ts -->
<g id="edge22" class="edge">
<title>infrastructure/repositories/DynamoDbRepository.ts&#45;&gt;application/getExpiryTime.ts</title>
<path fill="none" stroke="#757575" d="M1182.05,-64.47C1225.36,-69.68 1276.11,-75.78 1319.87,-81.04"/>
<polygon fill="#757575" stroke="#757575" points="1319.28,-84.49 1329.63,-82.21 1320.11,-77.54 1319.28,-84.49"/>
</g>
<!-- infrastructure/repositories/DynamoDbRepository.ts&#45;&gt;infrastructure/frameworks/addCustomMetric.ts -->
<g id="edge23" class="edge">
<title>infrastructure/repositories/DynamoDbRepository.ts&#45;&gt;infrastructure/frameworks/addCustomMetric.ts</title>
<path fill="none" stroke="#757575" d="M1241.02,-52.5C1249.06,-52.5 1257.13,-52.5 1265.17,-52.5"/>
<polygon fill="#757575" stroke="#757575" points="1264.99,-56 1274.99,-52.5 1264.99,-49 1264.99,-56"/>
</g>
<!-- infrastructure/repositories/DynamoDbRepository.ts&#45;&gt;infrastructure/frameworks/getCleanedItems.ts -->
<g id="edge24" class="edge">
<title>infrastructure/repositories/DynamoDbRepository.ts&#45;&gt;infrastructure/frameworks/getCleanedItems.ts</title>
<path fill="none" stroke="#757575" d="M1182.05,-40.53C1222.92,-35.62 1270.42,-29.91 1312.42,-24.86"/>
<polygon fill="#757575" stroke="#757575" points="1312.81,-28.33 1322.33,-23.66 1311.98,-21.38 1312.81,-28.33"/>
</g>
</g>
</svg>
