<?xml version="1.0" encoding="UTF-8" standalone="no"?>
<!DOCTYPE svg PUBLIC "-//W3C//DTD SVG 1.1//EN"
 "http://www.w3.org/Graphics/SVG/1.1/DTD/svg11.dtd">
<!-- Generated by graphviz version 12.0.0 (20240704.0754)
 -->
<!-- Title: G Pages: 1 -->
<svg width="1761pt" height="697pt"
 viewBox="0.00 0.00 1761.20 696.95" xmlns="http://www.w3.org/2000/svg" xmlns:xlink="http://www.w3.org/1999/xlink">
<g id="graph0" class="graph" transform="scale(1 1) rotate(0) translate(21.6 675.35)">
<title>G</title>
<polygon fill="#111111" stroke="none" points="-21.6,21.6 -21.6,-675.35 1739.6,-675.35 1739.6,21.6 -21.6,21.6"/>
<!-- application/createQueryStringParamsObjectFromString.ts -->
<g id="node1" class="node">
<title>application/createQueryStringParamsObjectFromString.ts</title>
<path fill="none" stroke="#cfffac" d="M657.08,-488.75C657.08,-488.75 309.67,-488.75 309.67,-488.75 305.71,-488.75 301.75,-484.79 301.75,-480.83 301.75,-480.83 301.75,-472.92 301.75,-472.92 301.75,-468.96 305.71,-465 309.67,-465 309.67,-465 657.08,-465 657.08,-465 661.04,-465 665,-468.96 665,-472.92 665,-472.92 665,-480.83 665,-480.83 665,-484.79 661.04,-488.75 657.08,-488.75"/>
<text text-anchor="middle" x="483.38" y="-471.45" font-family="Arial" font-size="14.00" fill="#cfffac">application/createQueryStringParamsObjectFromString.ts</text>
</g>
<!-- application/getExpiryTime.ts -->
<g id="node2" class="node">
<title>application/getExpiryTime.ts</title>
<path fill="none" stroke="#cfffac" d="M1657.96,-590.75C1657.96,-590.75 1488.29,-590.75 1488.29,-590.75 1484.33,-590.75 1480.38,-586.79 1480.38,-582.83 1480.38,-582.83 1480.38,-574.92 1480.38,-574.92 1480.38,-570.96 1484.33,-567 1488.29,-567 1488.29,-567 1657.96,-567 1657.96,-567 1661.92,-567 1665.88,-570.96 1665.88,-574.92 1665.88,-574.92 1665.88,-582.83 1665.88,-582.83 1665.88,-586.79 1661.92,-590.75 1657.96,-590.75"/>
<text text-anchor="middle" x="1573.12" y="-573.45" font-family="Arial" font-size="14.00" fill="#cfffac">application/getExpiryTime.ts</text>
</g>
<!-- application/getParser.ts -->
<g id="node3" class="node">
<title>application/getParser.ts</title>
<path fill="none" stroke="#c6c5fe" d="M939.71,-443.75C939.71,-443.75 799.29,-443.75 799.29,-443.75 795.33,-443.75 791.38,-439.79 791.38,-435.83 791.38,-435.83 791.38,-427.92 791.38,-427.92 791.38,-423.96 795.33,-420 799.29,-420 799.29,-420 939.71,-420 939.71,-420 943.67,-420 947.62,-423.96 947.62,-427.92 947.62,-427.92 947.62,-435.83 947.62,-435.83 947.62,-439.79 943.67,-443.75 939.71,-443.75"/>
<text text-anchor="middle" x="869.5" y="-426.45" font-family="Arial" font-size="14.00" fill="#c6c5fe">application/getParser.ts</text>
</g>
<!-- domain/services/GitHubParser.ts -->
<g id="node4" class="node">
<title>domain/services/GitHubParser.ts</title>
<path fill="none" stroke="#cfffac" d="M1332.21,-485.75C1332.21,-485.75 1134.04,-485.75 1134.04,-485.75 1130.08,-485.75 1126.12,-481.79 1126.12,-477.83 1126.12,-477.83 1126.12,-469.92 1126.12,-469.92 1126.12,-465.96 1130.08,-462 1134.04,-462 1134.04,-462 1332.21,-462 1332.21,-462 1336.17,-462 1340.12,-465.96 1340.12,-469.92 1340.12,-469.92 1340.12,-477.83 1340.12,-477.83 1340.12,-481.79 1336.17,-485.75 1332.21,-485.75"/>
<text text-anchor="middle" x="1233.12" y="-468.45" font-family="Arial" font-size="14.00" fill="#cfffac">domain/services/GitHubParser.ts</text>
</g>
<!-- application/getParser.ts&#45;&gt;domain/services/GitHubParser.ts -->
<g id="edge1" class="edge">
<title>application/getParser.ts&#45;&gt;domain/services/GitHubParser.ts</title>
<path fill="none" stroke="#757575" d="M948.08,-440.89C996.62,-446.52 1060.08,-453.89 1114.71,-460.24"/>
<polygon fill="#757575" stroke="#757575" points="1114.03,-463.68 1124.36,-461.36 1114.83,-456.73 1114.03,-463.68"/>
</g>
<!-- domain/services/Result.ts -->
<g id="node5" class="node">
<title>domain/services/Result.ts</title>
<path fill="none" stroke="#cfffac" d="M1310.46,-443.75C1310.46,-443.75 1155.79,-443.75 1155.79,-443.75 1151.83,-443.75 1147.88,-439.79 1147.88,-435.83 1147.88,-435.83 1147.88,-427.92 1147.88,-427.92 1147.88,-423.96 1151.83,-420 1155.79,-420 1155.79,-420 1310.46,-420 1310.46,-420 1314.42,-420 1318.38,-423.96 1318.38,-427.92 1318.38,-427.92 1318.38,-435.83 1318.38,-435.83 1318.38,-439.79 1314.42,-443.75 1310.46,-443.75"/>
<text text-anchor="middle" x="1233.12" y="-426.45" font-family="Arial" font-size="14.00" fill="#cfffac">domain/services/Result.ts</text>
</g>
<!-- application/getParser.ts&#45;&gt;domain/services/Result.ts -->
<g id="edge2" class="edge">
<title>application/getParser.ts&#45;&gt;domain/services/Result.ts</title>
<path fill="none" stroke="#757575" d="M948.08,-431.88C1003.16,-431.88 1077.45,-431.88 1136.25,-431.88"/>
<polygon fill="#757575" stroke="#757575" points="1135.9,-435.38 1145.9,-431.88 1135.9,-428.38 1135.9,-435.38"/>
</g>
<!-- application/getRequestDTO.ts -->
<g id="node6" class="node">
<title>application/getRequestDTO.ts</title>
<path fill="none" stroke="#cfffac" d="M573.83,-446.75C573.83,-446.75 392.92,-446.75 392.92,-446.75 388.96,-446.75 385,-442.79 385,-438.83 385,-438.83 385,-430.92 385,-430.92 385,-426.96 388.96,-423 392.92,-423 392.92,-423 573.83,-423 573.83,-423 577.79,-423 581.75,-426.96 581.75,-430.92 581.75,-430.92 581.75,-438.83 581.75,-438.83 581.75,-442.79 577.79,-446.75 573.83,-446.75"/>
<text text-anchor="middle" x="483.38" y="-429.45" font-family="Arial" font-size="14.00" fill="#cfffac">application/getRequestDTO.ts</text>
</g>
<!-- application/mapResultToUsecase.ts -->
<g id="node7" class="node">
<title>application/mapResultToUsecase.ts</title>
<path fill="none" stroke="#c6c5fe" d="M976.83,-254.75C976.83,-254.75 762.17,-254.75 762.17,-254.75 758.21,-254.75 754.25,-250.79 754.25,-246.83 754.25,-246.83 754.25,-238.92 754.25,-238.92 754.25,-234.96 758.21,-231 762.17,-231 762.17,-231 976.83,-231 976.83,-231 980.79,-231 984.75,-234.96 984.75,-238.92 984.75,-238.92 984.75,-246.83 984.75,-246.83 984.75,-250.79 980.79,-254.75 976.83,-254.75"/>
<text text-anchor="middle" x="869.5" y="-237.45" font-family="Arial" font-size="14.00" fill="#c6c5fe">application/mapResultToUsecase.ts</text>
</g>
<!-- usecases/approved.ts -->
<g id="node8" class="node">
<title>usecases/approved.ts</title>
<path fill="none" stroke="#cfffac" d="M1298.83,-233.75C1298.83,-233.75 1167.42,-233.75 1167.42,-233.75 1163.46,-233.75 1159.5,-229.79 1159.5,-225.83 1159.5,-225.83 1159.5,-217.92 1159.5,-217.92 1159.5,-213.96 1163.46,-210 1167.42,-210 1167.42,-210 1298.83,-210 1298.83,-210 1302.79,-210 1306.75,-213.96 1306.75,-217.92 1306.75,-217.92 1306.75,-225.83 1306.75,-225.83 1306.75,-229.79 1302.79,-233.75 1298.83,-233.75"/>
<text text-anchor="middle" x="1233.12" y="-216.45" font-family="Arial" font-size="14.00" fill="#cfffac">usecases/approved.ts</text>
</g>
<!-- application/mapResultToUsecase.ts&#45;&gt;usecases/approved.ts -->
<g id="edge3" class="edge">
<title>application/mapResultToUsecase.ts&#45;&gt;usecases/approved.ts</title>
<path fill="none" stroke="#757575" d="M984.92,-236.23C1037.7,-233.17 1099.24,-229.59 1147.71,-226.78"/>
<polygon fill="#757575" stroke="#757575" points="1147.82,-230.28 1157.6,-226.2 1147.41,-223.29 1147.82,-230.28"/>
</g>
<!-- usecases/changesRequested.ts -->
<g id="node9" class="node">
<title>usecases/changesRequested.ts</title>
<path fill="none" stroke="#cfffac" d="M1328.83,-191.75C1328.83,-191.75 1137.42,-191.75 1137.42,-191.75 1133.46,-191.75 1129.5,-187.79 1129.5,-183.83 1129.5,-183.83 1129.5,-175.92 1129.5,-175.92 1129.5,-171.96 1133.46,-168 1137.42,-168 1137.42,-168 1328.83,-168 1328.83,-168 1332.79,-168 1336.75,-171.96 1336.75,-175.92 1336.75,-175.92 1336.75,-183.83 1336.75,-183.83 1336.75,-187.79 1332.79,-191.75 1328.83,-191.75"/>
<text text-anchor="middle" x="1233.12" y="-174.45" font-family="Arial" font-size="14.00" fill="#cfffac">usecases/changesRequested.ts</text>
</g>
<!-- application/mapResultToUsecase.ts&#45;&gt;usecases/changesRequested.ts -->
<g id="edge4" class="edge">
<title>application/mapResultToUsecase.ts&#45;&gt;usecases/changesRequested.ts</title>
<path fill="none" stroke="#757575" d="M984.97,-234.79C1002.99,-231.73 1021.21,-227.56 1038,-221.88 1055.55,-215.94 1056.48,-206.88 1074,-200.88 1088.02,-196.07 1103.09,-192.36 1118.15,-189.49"/>
<polygon fill="#757575" stroke="#757575" points="1118.38,-193.01 1127.62,-187.81 1117.16,-186.11 1118.38,-193.01"/>
</g>
<!-- usecases/closed.ts -->
<g id="node10" class="node">
<title>usecases/closed.ts</title>
<path fill="none" stroke="#cfffac" d="M1290.21,-149.75C1290.21,-149.75 1176.04,-149.75 1176.04,-149.75 1172.08,-149.75 1168.12,-145.79 1168.12,-141.83 1168.12,-141.83 1168.12,-133.92 1168.12,-133.92 1168.12,-129.96 1172.08,-126 1176.04,-126 1176.04,-126 1290.21,-126 1290.21,-126 1294.17,-126 1298.12,-129.96 1298.12,-133.92 1298.12,-133.92 1298.12,-141.83 1298.12,-141.83 1298.12,-145.79 1294.17,-149.75 1290.21,-149.75"/>
<text text-anchor="middle" x="1233.12" y="-132.45" font-family="Arial" font-size="14.00" fill="#cfffac">usecases/closed.ts</text>
</g>
<!-- application/mapResultToUsecase.ts&#45;&gt;usecases/closed.ts -->
<g id="edge5" class="edge">
<title>application/mapResultToUsecase.ts&#45;&gt;usecases/closed.ts</title>
<path fill="none" stroke="#757575" d="M985.06,-242.81C1003.84,-238.9 1022.27,-232.36 1038,-221.88 1064.83,-203.98 1047.24,-176.87 1074,-158.88 1097.94,-142.78 1128.57,-136.31 1156.49,-134.29"/>
<polygon fill="#757575" stroke="#757575" points="1156.53,-137.79 1166.34,-133.78 1156.17,-130.8 1156.53,-137.79"/>
</g>
<!-- usecases/commented.ts -->
<g id="node11" class="node">
<title>usecases/commented.ts</title>
<path fill="none" stroke="#cfffac" d="M1306.71,-107.75C1306.71,-107.75 1159.54,-107.75 1159.54,-107.75 1155.58,-107.75 1151.62,-103.79 1151.62,-99.83 1151.62,-99.83 1151.62,-91.92 1151.62,-91.92 1151.62,-87.96 1155.58,-84 1159.54,-84 1159.54,-84 1306.71,-84 1306.71,-84 1310.67,-84 1314.62,-87.96 1314.62,-91.92 1314.62,-91.92 1314.62,-99.83 1314.62,-99.83 1314.62,-103.79 1310.67,-107.75 1306.71,-107.75"/>
<text text-anchor="middle" x="1233.12" y="-90.45" font-family="Arial" font-size="14.00" fill="#cfffac">usecases/commented.ts</text>
</g>
<!-- application/mapResultToUsecase.ts&#45;&gt;usecases/commented.ts -->
<g id="edge6" class="edge">
<title>application/mapResultToUsecase.ts&#45;&gt;usecases/commented.ts</title>
<path fill="none" stroke="#757575" d="M985.11,-245.6C1004.31,-241.49 1022.88,-234.17 1038,-221.88 1076.28,-190.75 1035.83,-148.14 1074,-116.88 1092.49,-101.73 1116.5,-94.41 1140.19,-91.36"/>
<polygon fill="#757575" stroke="#757575" points="1140.3,-94.86 1149.89,-90.37 1139.59,-87.9 1140.3,-94.86"/>
</g>
<!-- usecases/merged.ts -->
<g id="node12" class="node">
<title>usecases/merged.ts</title>
<path fill="none" stroke="#cfffac" d="M1293.96,-65.75C1293.96,-65.75 1172.29,-65.75 1172.29,-65.75 1168.33,-65.75 1164.38,-61.79 1164.38,-57.83 1164.38,-57.83 1164.38,-49.92 1164.38,-49.92 1164.38,-45.96 1168.33,-42 1172.29,-42 1172.29,-42 1293.96,-42 1293.96,-42 1297.92,-42 1301.88,-45.96 1301.88,-49.92 1301.88,-49.92 1301.88,-57.83 1301.88,-57.83 1301.88,-61.79 1297.92,-65.75 1293.96,-65.75"/>
<text text-anchor="middle" x="1233.12" y="-48.45" font-family="Arial" font-size="14.00" fill="#cfffac">usecases/merged.ts</text>
</g>
<!-- application/mapResultToUsecase.ts&#45;&gt;usecases/merged.ts -->
<g id="edge7" class="edge">
<title>application/mapResultToUsecase.ts&#45;&gt;usecases/merged.ts</title>
<path fill="none" stroke="#757575" d="M985.18,-246.89C1004.6,-242.71 1023.23,-235.03 1038,-221.88 1088.23,-177.14 1023.94,-119.8 1074,-74.88 1095.2,-55.86 1124.88,-48.73 1152.81,-47.01"/>
<polygon fill="#757575" stroke="#757575" points="1152.85,-50.51 1162.71,-46.64 1152.59,-43.51 1152.85,-50.51"/>
</g>
<!-- usecases/opened.ts -->
<g id="node13" class="node">
<title>usecases/opened.ts</title>
<path fill="none" stroke="#cfffac" d="M1293.21,-23.75C1293.21,-23.75 1173.04,-23.75 1173.04,-23.75 1169.08,-23.75 1165.12,-19.79 1165.12,-15.83 1165.12,-15.83 1165.12,-7.92 1165.12,-7.92 1165.12,-3.96 1169.08,0 1173.04,0 1173.04,0 1293.21,0 1293.21,0 1297.17,0 1301.12,-3.96 1301.12,-7.92 1301.12,-7.92 1301.12,-15.83 1301.12,-15.83 1301.12,-19.79 1297.17,-23.75 1293.21,-23.75"/>
<text text-anchor="middle" x="1233.12" y="-6.45" font-family="Arial" font-size="14.00" fill="#cfffac">usecases/opened.ts</text>
</g>
<!-- application/mapResultToUsecase.ts&#45;&gt;usecases/opened.ts -->
<g id="edge8" class="edge">
<title>application/mapResultToUsecase.ts&#45;&gt;usecases/opened.ts</title>
<path fill="none" stroke="#757575" d="M984.88,-247.69C1004.56,-243.5 1023.36,-235.61 1038,-221.88 1100.35,-163.36 1011.86,-91.62 1074,-32.88 1095.05,-12.97 1125.3,-5.83 1153.72,-4.34"/>
<polygon fill="#757575" stroke="#757575" points="1153.5,-7.85 1163.4,-4.07 1153.31,-0.85 1153.5,-7.85"/>
</g>
<!-- usecases/pushed.ts -->
<g id="node14" class="node">
<title>usecases/pushed.ts</title>
<path fill="none" stroke="#cfffac" d="M1292.83,-401.75C1292.83,-401.75 1173.42,-401.75 1173.42,-401.75 1169.46,-401.75 1165.5,-397.79 1165.5,-393.83 1165.5,-393.83 1165.5,-385.92 1165.5,-385.92 1165.5,-381.96 1169.46,-378 1173.42,-378 1173.42,-378 1292.83,-378 1292.83,-378 1296.79,-378 1300.75,-381.96 1300.75,-385.92 1300.75,-385.92 1300.75,-393.83 1300.75,-393.83 1300.75,-397.79 1296.79,-401.75 1292.83,-401.75"/>
<text text-anchor="middle" x="1233.12" y="-384.45" font-family="Arial" font-size="14.00" fill="#cfffac">usecases/pushed.ts</text>
</g>
<!-- application/mapResultToUsecase.ts&#45;&gt;usecases/pushed.ts -->
<g id="edge9" class="edge">
<title>application/mapResultToUsecase.ts&#45;&gt;usecases/pushed.ts</title>
<path fill="none" stroke="#757575" d="M885.17,-255.08C917.16,-280.96 996.52,-341.19 1074,-368.88 1099.22,-377.89 1127.94,-383.09 1153.93,-386.07"/>
<polygon fill="#757575" stroke="#757575" points="1153.45,-389.54 1163.76,-387.09 1154.18,-382.57 1153.45,-389.54"/>
</g>
<!-- usecases/reviewPickedUp.ts -->
<g id="node15" class="node">
<title>usecases/reviewPickedUp.ts</title>
<path fill="none" stroke="#cfffac" d="M1319.08,-359.75C1319.08,-359.75 1147.17,-359.75 1147.17,-359.75 1143.21,-359.75 1139.25,-355.79 1139.25,-351.83 1139.25,-351.83 1139.25,-343.92 1139.25,-343.92 1139.25,-339.96 1143.21,-336 1147.17,-336 1147.17,-336 1319.08,-336 1319.08,-336 1323.04,-336 1327,-339.96 1327,-343.92 1327,-343.92 1327,-351.83 1327,-351.83 1327,-355.79 1323.04,-359.75 1319.08,-359.75"/>
<text text-anchor="middle" x="1233.12" y="-342.45" font-family="Arial" font-size="14.00" fill="#cfffac">usecases/reviewPickedUp.ts</text>
</g>
<!-- application/mapResultToUsecase.ts&#45;&gt;usecases/reviewPickedUp.ts -->
<g id="edge10" class="edge">
<title>application/mapResultToUsecase.ts&#45;&gt;usecases/reviewPickedUp.ts</title>
<path fill="none" stroke="#757575" d="M894.53,-255.21C931.89,-273.82 1006.62,-308.82 1074,-326.88 1091.17,-331.47 1109.67,-335.09 1127.75,-337.92"/>
<polygon fill="#757575" stroke="#757575" points="1127.04,-341.35 1137.44,-339.36 1128.07,-334.43 1127.04,-341.35"/>
</g>
<!-- usecases/reviewTime.ts -->
<g id="node16" class="node">
<title>usecases/reviewTime.ts</title>
<path fill="none" stroke="#cfffac" d="M1305.58,-317.75C1305.58,-317.75 1160.67,-317.75 1160.67,-317.75 1156.71,-317.75 1152.75,-313.79 1152.75,-309.83 1152.75,-309.83 1152.75,-301.92 1152.75,-301.92 1152.75,-297.96 1156.71,-294 1160.67,-294 1160.67,-294 1305.58,-294 1305.58,-294 1309.54,-294 1313.5,-297.96 1313.5,-301.92 1313.5,-301.92 1313.5,-309.83 1313.5,-309.83 1313.5,-313.79 1309.54,-317.75 1305.58,-317.75"/>
<text text-anchor="middle" x="1233.12" y="-300.45" font-family="Arial" font-size="14.00" fill="#cfffac">usecases/reviewTime.ts</text>
</g>
<!-- application/mapResultToUsecase.ts&#45;&gt;usecases/reviewTime.ts -->
<g id="edge11" class="edge">
<title>application/mapResultToUsecase.ts&#45;&gt;usecases/reviewTime.ts</title>
<path fill="none" stroke="#757575" d="M924.72,-255.17C965.6,-264.16 1023.14,-276.26 1074,-284.88 1095.62,-288.54 1119,-291.94 1140.98,-294.9"/>
<polygon fill="#757575" stroke="#757575" points="1140.45,-298.36 1150.83,-296.21 1141.37,-291.42 1140.45,-298.36"/>
</g>
<!-- usecases/reviewed.ts -->
<g id="node17" class="node">
<title>usecases/reviewed.ts</title>
<path fill="none" stroke="#cfffac" d="M1297.71,-275.75C1297.71,-275.75 1168.54,-275.75 1168.54,-275.75 1164.58,-275.75 1160.62,-271.79 1160.62,-267.83 1160.62,-267.83 1160.62,-259.92 1160.62,-259.92 1160.62,-255.96 1164.58,-252 1168.54,-252 1168.54,-252 1297.71,-252 1297.71,-252 1301.67,-252 1305.62,-255.96 1305.62,-259.92 1305.62,-259.92 1305.62,-267.83 1305.62,-267.83 1305.62,-271.79 1301.67,-275.75 1297.71,-275.75"/>
<text text-anchor="middle" x="1233.12" y="-258.45" font-family="Arial" font-size="14.00" fill="#cfffac">usecases/reviewed.ts</text>
</g>
<!-- application/mapResultToUsecase.ts&#45;&gt;usecases/reviewed.ts -->
<g id="edge12" class="edge">
<title>application/mapResultToUsecase.ts&#45;&gt;usecases/reviewed.ts</title>
<path fill="none" stroke="#757575" d="M984.92,-249.52C1038.08,-252.61 1100.13,-256.21 1148.77,-259.03"/>
<polygon fill="#757575" stroke="#757575" points="1148.5,-262.52 1158.68,-259.61 1148.9,-255.54 1148.5,-262.52"/>
</g>
<!-- domain/services/Metrics.ts -->
<g id="node18" class="node">
<title>domain/services/Metrics.ts</title>
<path fill="none" stroke="#cfffac" d="M949.83,-611.75C949.83,-611.75 789.17,-611.75 789.17,-611.75 785.21,-611.75 781.25,-607.79 781.25,-603.83 781.25,-603.83 781.25,-595.92 781.25,-595.92 781.25,-591.96 785.21,-588 789.17,-588 789.17,-588 949.83,-588 949.83,-588 953.79,-588 957.75,-591.96 957.75,-595.92 957.75,-595.92 957.75,-603.83 957.75,-603.83 957.75,-607.79 953.79,-611.75 949.83,-611.75"/>
<text text-anchor="middle" x="869.5" y="-594.45" font-family="Arial" font-size="14.00" fill="#cfffac">domain/services/Metrics.ts</text>
</g>
<!-- infrastructure/adapters/web/AddMetrics.ts -->
<g id="node19" class="node">
<title>infrastructure/adapters/web/AddMetrics.ts</title>
<path fill="none" stroke="#c6c5fe" d="M257.83,-383.75C257.83,-383.75 7.92,-383.75 7.92,-383.75 3.96,-383.75 0,-379.79 0,-375.83 0,-375.83 0,-367.92 0,-367.92 0,-363.96 3.96,-360 7.92,-360 7.92,-360 257.83,-360 257.83,-360 261.79,-360 265.75,-363.96 265.75,-367.92 265.75,-367.92 265.75,-375.83 265.75,-375.83 265.75,-379.79 261.79,-383.75 257.83,-383.75"/>
<text text-anchor="middle" x="132.88" y="-366.45" font-family="Arial" font-size="14.00" fill="#c6c5fe">infrastructure/adapters/web/AddMetrics.ts</text>
</g>
<!-- infrastructure/frameworks/end.ts -->
<g id="node20" class="node">
<title>infrastructure/frameworks/end.ts</title>
<path fill="none" stroke="#cfffac" d="M580.21,-404.75C580.21,-404.75 386.54,-404.75 386.54,-404.75 382.58,-404.75 378.62,-400.79 378.62,-396.83 378.62,-396.83 378.62,-388.92 378.62,-388.92 378.62,-384.96 382.58,-381 386.54,-381 386.54,-381 580.21,-381 580.21,-381 584.17,-381 588.12,-384.96 588.12,-388.92 588.12,-388.92 588.12,-396.83 588.12,-396.83 588.12,-400.79 584.17,-404.75 580.21,-404.75"/>
<text text-anchor="middle" x="483.38" y="-387.45" font-family="Arial" font-size="14.00" fill="#cfffac">infrastructure/frameworks/end.ts</text>
</g>
<!-- infrastructure/adapters/web/AddMetrics.ts&#45;&gt;infrastructure/frameworks/end.ts -->
<g id="edge13" class="edge">
<title>infrastructure/adapters/web/AddMetrics.ts&#45;&gt;infrastructure/frameworks/end.ts</title>
<path fill="none" stroke="#757575" d="M266.12,-379.84C299.28,-381.84 334.6,-383.97 366.87,-385.91"/>
<polygon fill="#757575" stroke="#757575" points="366.44,-389.4 376.64,-386.5 366.86,-382.41 366.44,-389.4"/>
</g>
<!-- usecases/addMetric.ts -->
<g id="node21" class="node">
<title>usecases/addMetric.ts</title>
<path fill="none" stroke="#c6c5fe" d="M550.96,-362.75C550.96,-362.75 415.79,-362.75 415.79,-362.75 411.83,-362.75 407.88,-358.79 407.88,-354.83 407.88,-354.83 407.88,-346.92 407.88,-346.92 407.88,-342.96 411.83,-339 415.79,-339 415.79,-339 550.96,-339 550.96,-339 554.92,-339 558.88,-342.96 558.88,-346.92 558.88,-346.92 558.88,-354.83 558.88,-354.83 558.88,-358.79 554.92,-362.75 550.96,-362.75"/>
<text text-anchor="middle" x="483.38" y="-345.45" font-family="Arial" font-size="14.00" fill="#c6c5fe">usecases/addMetric.ts</text>
</g>
<!-- infrastructure/adapters/web/AddMetrics.ts&#45;&gt;usecases/addMetric.ts -->
<g id="edge14" class="edge">
<title>infrastructure/adapters/web/AddMetrics.ts&#45;&gt;usecases/addMetric.ts</title>
<path fill="none" stroke="#757575" d="M266.12,-363.91C309.76,-361.28 357.14,-358.42 396.39,-356.06"/>
<polygon fill="#757575" stroke="#757575" points="396.49,-359.56 406.26,-355.46 396.07,-352.57 396.49,-359.56"/>
</g>
<!-- usecases/addMetric.ts&#45;&gt;application/getParser.ts -->
<g id="edge25" class="edge">
<title>usecases/addMetric.ts&#45;&gt;application/getParser.ts</title>
<path fill="none" stroke="#757575" d="M559.09,-356.67C591.8,-359.95 630.51,-364.84 665,-371.88 720.21,-383.14 782.1,-402.36 822.98,-416.02"/>
<polygon fill="#757575" stroke="#757575" points="821.64,-419.26 832.23,-419.14 823.88,-412.63 821.64,-419.26"/>
</g>
<!-- usecases/addMetric.ts&#45;&gt;application/mapResultToUsecase.ts -->
<g id="edge26" class="edge">
<title>usecases/addMetric.ts&#45;&gt;application/mapResultToUsecase.ts</title>
<path fill="none" stroke="#757575" d="M528.07,-338.59C598.44,-318.8 736.78,-279.91 813.67,-258.29"/>
<polygon fill="#757575" stroke="#757575" points="814.42,-261.72 823.1,-255.64 812.52,-254.98 814.42,-261.72"/>
</g>
<!-- infrastructure/frameworks/getRepo.ts -->
<g id="node23" class="node">
<title>infrastructure/frameworks/getRepo.ts</title>
<path fill="none" stroke="#c6c5fe" d="M980.58,-527.75C980.58,-527.75 758.42,-527.75 758.42,-527.75 754.46,-527.75 750.5,-523.79 750.5,-519.83 750.5,-519.83 750.5,-511.92 750.5,-511.92 750.5,-507.96 754.46,-504 758.42,-504 758.42,-504 980.58,-504 980.58,-504 984.54,-504 988.5,-507.96 988.5,-511.92 988.5,-511.92 988.5,-519.83 988.5,-519.83 988.5,-523.79 984.54,-527.75 980.58,-527.75"/>
<text text-anchor="middle" x="869.5" y="-510.45" font-family="Arial" font-size="14.00" fill="#c6c5fe">infrastructure/frameworks/getRepo.ts</text>
</g>
<!-- usecases/addMetric.ts&#45;&gt;infrastructure/frameworks/getRepo.ts -->
<g id="edge28" class="edge">
<title>usecases/addMetric.ts&#45;&gt;infrastructure/frameworks/getRepo.ts</title>
<path fill="none" stroke="#757575" d="M559.09,-343.36C594.27,-343.62 634.99,-349.8 665,-371.88 696.74,-395.22 672.34,-425.84 701,-452.88 725.67,-476.14 759.74,-491.02 790.72,-500.43"/>
<polygon fill="#757575" stroke="#757575" points="789.5,-503.72 800.08,-503.12 791.43,-496.99 789.5,-503.72"/>
</g>
<!-- infrastructure/frameworks/getLowerCaseHeaders.ts -->
<g id="node30" class="node">
<title>infrastructure/frameworks/getLowerCaseHeaders.ts</title>
<path fill="none" stroke="#cfffac" d="M1024.08,-212.75C1024.08,-212.75 714.92,-212.75 714.92,-212.75 710.96,-212.75 707,-208.79 707,-204.83 707,-204.83 707,-196.92 707,-196.92 707,-192.96 710.96,-189 714.92,-189 714.92,-189 1024.08,-189 1024.08,-189 1028.04,-189 1032,-192.96 1032,-196.92 1032,-196.92 1032,-204.83 1032,-204.83 1032,-208.79 1028.04,-212.75 1024.08,-212.75"/>
<text text-anchor="middle" x="869.5" y="-195.45" font-family="Arial" font-size="14.00" fill="#cfffac">infrastructure/frameworks/getLowerCaseHeaders.ts</text>
</g>
<!-- usecases/addMetric.ts&#45;&gt;infrastructure/frameworks/getLowerCaseHeaders.ts -->
<g id="edge27" class="edge">
<title>usecases/addMetric.ts&#45;&gt;infrastructure/frameworks/getLowerCaseHeaders.ts</title>
<path fill="none" stroke="#757575" d="M499.81,-338.55C533.84,-312.12 618.83,-250.11 701,-221.88 707.55,-219.63 714.31,-217.61 721.2,-215.81"/>
<polygon fill="#757575" stroke="#757575" points="721.76,-219.28 730.64,-213.51 720.1,-212.48 721.76,-219.28"/>
</g>
<!-- infrastructure/adapters/web/GetMetrics.ts -->
<g id="node22" class="node">
<title>infrastructure/adapters/web/GetMetrics.ts</title>
<path fill="none" stroke="#c6c5fe" d="M257.08,-488.75C257.08,-488.75 8.67,-488.75 8.67,-488.75 4.71,-488.75 0.75,-484.79 0.75,-480.83 0.75,-480.83 0.75,-472.92 0.75,-472.92 0.75,-468.96 4.71,-465 8.67,-465 8.67,-465 257.08,-465 257.08,-465 261.04,-465 265,-468.96 265,-472.92 265,-472.92 265,-480.83 265,-480.83 265,-484.79 261.04,-488.75 257.08,-488.75"/>
<text text-anchor="middle" x="132.88" y="-471.45" font-family="Arial" font-size="14.00" fill="#c6c5fe">infrastructure/adapters/web/GetMetrics.ts</text>
</g>
<!-- infrastructure/adapters/web/GetMetrics.ts&#45;&gt;application/createQueryStringParamsObjectFromString.ts -->
<g id="edge15" class="edge">
<title>infrastructure/adapters/web/GetMetrics.ts&#45;&gt;application/createQueryStringParamsObjectFromString.ts</title>
<path fill="none" stroke="#757575" d="M265.13,-476.88C273.29,-476.88 281.58,-476.88 289.93,-476.88"/>
<polygon fill="#757575" stroke="#757575" points="289.83,-480.38 299.83,-476.88 289.83,-473.38 289.83,-480.38"/>
</g>
<!-- infrastructure/adapters/web/GetMetrics.ts&#45;&gt;application/getRequestDTO.ts -->
<g id="edge16" class="edge">
<title>infrastructure/adapters/web/GetMetrics.ts&#45;&gt;application/getRequestDTO.ts</title>
<path fill="none" stroke="#757575" d="M231.5,-464.52C254.54,-461.64 279,-458.62 301.75,-455.88 325.02,-453.07 349.98,-450.12 373.7,-447.35"/>
<polygon fill="#757575" stroke="#757575" points="373.83,-450.86 383.36,-446.23 373.02,-443.91 373.83,-450.86"/>
</g>
<!-- infrastructure/adapters/web/GetMetrics.ts&#45;&gt;infrastructure/frameworks/end.ts -->
<g id="edge17" class="edge">
<title>infrastructure/adapters/web/GetMetrics.ts&#45;&gt;infrastructure/frameworks/end.ts</title>
<path fill="none" stroke="#757575" d="M160.57,-464.54C193.16,-450.02 250.31,-426.32 301.75,-413.88 322.65,-408.82 345.22,-404.96 367.09,-402.03"/>
<polygon fill="#757575" stroke="#757575" points="367.47,-405.51 376.95,-400.77 366.59,-398.57 367.47,-405.51"/>
</g>
<!-- infrastructure/adapters/web/GetMetrics.ts&#45;&gt;infrastructure/frameworks/getRepo.ts -->
<g id="edge18" class="edge">
<title>infrastructure/adapters/web/GetMetrics.ts&#45;&gt;infrastructure/frameworks/getRepo.ts</title>
<path fill="none" stroke="#757575" d="M219.98,-489.2C246.19,-492.53 275.1,-495.79 301.75,-497.88 451.34,-509.58 623.72,-513.73 738.71,-515.17"/>
<polygon fill="#757575" stroke="#757575" points="738.45,-518.67 748.49,-515.29 738.54,-511.67 738.45,-518.67"/>
</g>
<!-- usecases/getMetrics.ts -->
<g id="node24" class="node">
<title>usecases/getMetrics.ts</title>
<path fill="none" stroke="#c6c5fe" d="M552.46,-569.75C552.46,-569.75 414.29,-569.75 414.29,-569.75 410.33,-569.75 406.38,-565.79 406.38,-561.83 406.38,-561.83 406.38,-553.92 406.38,-553.92 406.38,-549.96 410.33,-546 414.29,-546 414.29,-546 552.46,-546 552.46,-546 556.42,-546 560.38,-549.96 560.38,-553.92 560.38,-553.92 560.38,-561.83 560.38,-561.83 560.38,-565.79 556.42,-569.75 552.46,-569.75"/>
<text text-anchor="middle" x="483.38" y="-552.45" font-family="Arial" font-size="14.00" fill="#c6c5fe">usecases/getMetrics.ts</text>
</g>
<!-- infrastructure/adapters/web/GetMetrics.ts&#45;&gt;usecases/getMetrics.ts -->
<g id="edge19" class="edge">
<title>infrastructure/adapters/web/GetMetrics.ts&#45;&gt;usecases/getMetrics.ts</title>
<path fill="none" stroke="#757575" d="M166.56,-489.14C200.07,-501.3 253.9,-519.68 301.75,-530.88 331.86,-537.92 365.25,-543.52 395.05,-547.74"/>
<polygon fill="#757575" stroke="#757575" points="394.39,-551.19 404.78,-549.09 395.35,-544.25 394.39,-551.19"/>
</g>
<!-- infrastructure/repositories/DynamoDbRepository.ts -->
<g id="node31" class="node">
<title>infrastructure/repositories/DynamoDbRepository.ts</title>
<path fill="none" stroke="#c6c5fe" d="M1384.33,-569.75C1384.33,-569.75 1081.92,-569.75 1081.92,-569.75 1077.96,-569.75 1074,-565.79 1074,-561.83 1074,-561.83 1074,-553.92 1074,-553.92 1074,-549.96 1077.96,-546 1081.92,-546 1081.92,-546 1384.33,-546 1384.33,-546 1388.29,-546 1392.25,-549.96 1392.25,-553.92 1392.25,-553.92 1392.25,-561.83 1392.25,-561.83 1392.25,-565.79 1388.29,-569.75 1384.33,-569.75"/>
<text text-anchor="middle" x="1233.12" y="-552.45" font-family="Arial" font-size="14.00" fill="#c6c5fe">infrastructure/repositories/DynamoDbRepository.ts</text>
</g>
<!-- infrastructure/frameworks/getRepo.ts&#45;&gt;infrastructure/repositories/DynamoDbRepository.ts -->
<g id="edge21" class="edge">
<title>infrastructure/frameworks/getRepo.ts&#45;&gt;infrastructure/repositories/DynamoDbRepository.ts</title>
<path fill="none" stroke="#757575" d="M977.04,-528.25C1020.17,-533.26 1070.11,-539.06 1114.31,-544.19"/>
<polygon fill="#757575" stroke="#757575" points="1113.88,-547.66 1124.22,-545.34 1114.69,-540.71 1113.88,-547.66"/>
</g>
<!-- infrastructure/repositories/LocalRepository.ts -->
<g id="node32" class="node">
<title>infrastructure/repositories/LocalRepository.ts</title>
<path fill="none" stroke="#cfffac" d="M1366.33,-527.75C1366.33,-527.75 1099.92,-527.75 1099.92,-527.75 1095.96,-527.75 1092,-523.79 1092,-519.83 1092,-519.83 1092,-511.92 1092,-511.92 1092,-507.96 1095.96,-504 1099.92,-504 1099.92,-504 1366.33,-504 1366.33,-504 1370.29,-504 1374.25,-507.96 1374.25,-511.92 1374.25,-511.92 1374.25,-519.83 1374.25,-519.83 1374.25,-523.79 1370.29,-527.75 1366.33,-527.75"/>
<text text-anchor="middle" x="1233.12" y="-510.45" font-family="Arial" font-size="14.00" fill="#cfffac">infrastructure/repositories/LocalRepository.ts</text>
</g>
<!-- infrastructure/frameworks/getRepo.ts&#45;&gt;infrastructure/repositories/LocalRepository.ts -->
<g id="edge22" class="edge">
<title>infrastructure/frameworks/getRepo.ts&#45;&gt;infrastructure/repositories/LocalRepository.ts</title>
<path fill="none" stroke="#757575" d="M988.91,-515.88C1018.17,-515.88 1049.92,-515.88 1080.52,-515.88"/>
<polygon fill="#757575" stroke="#757575" points="1080.22,-519.38 1090.22,-515.88 1080.22,-512.38 1080.22,-519.38"/>
</g>
<!-- usecases/getMetrics.ts&#45;&gt;domain/services/Metrics.ts -->
<g id="edge30" class="edge">
<title>usecases/getMetrics.ts&#45;&gt;domain/services/Metrics.ts</title>
<path fill="none" stroke="#757575" d="M560.73,-566.22C620.71,-572.78 704.69,-581.96 769.78,-589.08"/>
<polygon fill="#757575" stroke="#757575" points="769.05,-592.52 779.37,-590.13 769.81,-585.56 769.05,-592.52"/>
</g>
<!-- infrastructure/frameworks/addCustomMetric.ts -->
<g id="node27" class="node">
<title>infrastructure/frameworks/addCustomMetric.ts</title>
<path fill="none" stroke="#cfffac" d="M1008.71,-569.75C1008.71,-569.75 730.29,-569.75 730.29,-569.75 726.33,-569.75 722.38,-565.79 722.38,-561.83 722.38,-561.83 722.38,-553.92 722.38,-553.92 722.38,-549.96 726.33,-546 730.29,-546 730.29,-546 1008.71,-546 1008.71,-546 1012.67,-546 1016.62,-549.96 1016.62,-553.92 1016.62,-553.92 1016.62,-561.83 1016.62,-561.83 1016.62,-565.79 1012.67,-569.75 1008.71,-569.75"/>
<text text-anchor="middle" x="869.5" y="-552.45" font-family="Arial" font-size="14.00" fill="#cfffac">infrastructure/frameworks/addCustomMetric.ts</text>
</g>
<!-- usecases/getMetrics.ts&#45;&gt;infrastructure/frameworks/addCustomMetric.ts -->
<g id="edge31" class="edge">
<title>usecases/getMetrics.ts&#45;&gt;infrastructure/frameworks/addCustomMetric.ts</title>
<path fill="none" stroke="#757575" d="M560.73,-557.88C603.63,-557.88 658.82,-557.88 710.6,-557.88"/>
<polygon fill="#757575" stroke="#757575" points="710.42,-561.38 720.42,-557.88 710.42,-554.38 710.42,-561.38"/>
</g>
<!-- infrastructure/authorizers/Authorizer.ts -->
<g id="node25" class="node">
<title>infrastructure/authorizers/Authorizer.ts</title>
<path fill="none" stroke="#c6c5fe" d="M246.96,-653.75C246.96,-653.75 18.79,-653.75 18.79,-653.75 14.83,-653.75 10.88,-649.79 10.88,-645.83 10.88,-645.83 10.88,-637.92 10.88,-637.92 10.88,-633.96 14.83,-630 18.79,-630 18.79,-630 246.96,-630 246.96,-630 250.92,-630 254.88,-633.96 254.88,-637.92 254.88,-637.92 254.88,-645.83 254.88,-645.83 254.88,-649.79 250.92,-653.75 246.96,-653.75"/>
<text text-anchor="middle" x="132.88" y="-636.45" font-family="Arial" font-size="14.00" fill="#c6c5fe">infrastructure/authorizers/Authorizer.ts</text>
</g>
<!-- usecases/authorize.ts -->
<g id="node26" class="node">
<title>usecases/authorize.ts</title>
<path fill="none" stroke="#c6c5fe" d="M548.71,-653.75C548.71,-653.75 418.04,-653.75 418.04,-653.75 414.08,-653.75 410.12,-649.79 410.12,-645.83 410.12,-645.83 410.12,-637.92 410.12,-637.92 410.12,-633.96 414.08,-630 418.04,-630 418.04,-630 548.71,-630 548.71,-630 552.67,-630 556.62,-633.96 556.62,-637.92 556.62,-637.92 556.62,-645.83 556.62,-645.83 556.62,-649.79 552.67,-653.75 548.71,-653.75"/>
<text text-anchor="middle" x="483.38" y="-636.45" font-family="Arial" font-size="14.00" fill="#c6c5fe">usecases/authorize.ts</text>
</g>
<!-- infrastructure/authorizers/Authorizer.ts&#45;&gt;usecases/authorize.ts -->
<g id="edge20" class="edge">
<title>infrastructure/authorizers/Authorizer.ts&#45;&gt;usecases/authorize.ts</title>
<path fill="none" stroke="#757575" d="M255.27,-641.88C302.52,-641.88 355.49,-641.88 398.38,-641.88"/>
<polygon fill="#757575" stroke="#757575" points="398.11,-645.38 408.11,-641.88 398.11,-638.38 398.11,-645.38"/>
</g>
<!-- infrastructure/frameworks/authorization/handleCors.ts -->
<g id="node28" class="node">
<title>infrastructure/frameworks/authorization/handleCors.ts</title>
<path fill="none" stroke="#cfffac" d="M1030.08,-653.75C1030.08,-653.75 708.92,-653.75 708.92,-653.75 704.96,-653.75 701,-649.79 701,-645.83 701,-645.83 701,-637.92 701,-637.92 701,-633.96 704.96,-630 708.92,-630 708.92,-630 1030.08,-630 1030.08,-630 1034.04,-630 1038,-633.96 1038,-637.92 1038,-637.92 1038,-645.83 1038,-645.83 1038,-649.79 1034.04,-653.75 1030.08,-653.75"/>
<text text-anchor="middle" x="869.5" y="-636.45" font-family="Arial" font-size="14.00" fill="#cfffac">infrastructure/frameworks/authorization/handleCors.ts</text>
</g>
<!-- usecases/authorize.ts&#45;&gt;infrastructure/frameworks/authorization/handleCors.ts -->
<g id="edge29" class="edge">
<title>usecases/authorize.ts&#45;&gt;infrastructure/frameworks/authorization/handleCors.ts</title>
<path fill="none" stroke="#757575" d="M557.08,-641.88C594.73,-641.88 642.53,-641.88 689.3,-641.88"/>
<polygon fill="#757575" stroke="#757575" points="689.01,-645.38 699.01,-641.88 689.01,-638.38 689.01,-645.38"/>
</g>
<!-- infrastructure/frameworks/getCleanedItems.ts -->
<g id="node29" class="node">
<title>infrastructure/frameworks/getCleanedItems.ts</title>
<path fill="none" stroke="#cfffac" d="M1710.08,-548.75C1710.08,-548.75 1436.17,-548.75 1436.17,-548.75 1432.21,-548.75 1428.25,-544.79 1428.25,-540.83 1428.25,-540.83 1428.25,-532.92 1428.25,-532.92 1428.25,-528.96 1432.21,-525 1436.17,-525 1436.17,-525 1710.08,-525 1710.08,-525 1714.04,-525 1718,-528.96 1718,-532.92 1718,-532.92 1718,-540.83 1718,-540.83 1718,-544.79 1714.04,-548.75 1710.08,-548.75"/>
<text text-anchor="middle" x="1573.12" y="-531.45" font-family="Arial" font-size="14.00" fill="#cfffac">infrastructure/frameworks/getCleanedItems.ts</text>
</g>
<!-- infrastructure/repositories/DynamoDbRepository.ts&#45;&gt;application/getExpiryTime.ts -->
<g id="edge23" class="edge">
<title>infrastructure/repositories/DynamoDbRepository.ts&#45;&gt;application/getExpiryTime.ts</title>
<path fill="none" stroke="#757575" d="M1392.73,-567.73C1418.65,-569.34 1444.88,-570.97 1469,-572.47"/>
<polygon fill="#757575" stroke="#757575" points="1468.58,-575.95 1478.78,-573.08 1469.02,-568.96 1468.58,-575.95"/>
</g>
<!-- infrastructure/repositories/DynamoDbRepository.ts&#45;&gt;infrastructure/frameworks/getCleanedItems.ts -->
<g id="edge24" class="edge">
<title>infrastructure/repositories/DynamoDbRepository.ts&#45;&gt;infrastructure/frameworks/getCleanedItems.ts</title>
<path fill="none" stroke="#757575" d="M1392.73,-548.02C1400.72,-547.52 1408.74,-547.03 1416.71,-546.53"/>
<polygon fill="#757575" stroke="#757575" points="1416.68,-550.04 1426.44,-545.93 1416.25,-543.05 1416.68,-550.04"/>
</g>
</g>
</svg>
