<?xml version="1.0" encoding="UTF-8" standalone="no"?>
<!DOCTYPE svg PUBLIC "-//W3C//DTD SVG 1.1//EN"
 "http://www.w3.org/Graphics/SVG/1.1/DTD/svg11.dtd">
<!-- Generated by graphviz version 7.0.6 (20230106.0513)
 -->
<!-- Title: G Pages: 1 -->
<svg width="1769pt" height="640pt"
 viewBox="0.00 0.00 1769.20 640.20" xmlns="http://www.w3.org/2000/svg" xmlns:xlink="http://www.w3.org/1999/xlink">
<g id="graph0" class="graph" transform="scale(1 1) rotate(0) translate(21.6 618.6)">
<title>G</title>
<polygon fill="#111111" stroke="none" points="-21.6,21.6 -21.6,-618.6 1747.6,-618.6 1747.6,21.6 -21.6,21.6"/>
<!-- application/createQueryStringParamsObjectFromString.ts -->
<g id="node1" class="node">
<title>application/createQueryStringParamsObjectFromString.ts</title>
<path fill="none" stroke="#cfffac" d="M658.33,-464C658.33,-464 309.67,-464 309.67,-464 305.83,-464 302,-460.17 302,-456.33 302,-456.33 302,-448.67 302,-448.67 302,-444.83 305.83,-441 309.67,-441 309.67,-441 658.33,-441 658.33,-441 662.17,-441 666,-444.83 666,-448.67 666,-448.67 666,-456.33 666,-456.33 666,-460.17 662.17,-464 658.33,-464"/>
<text text-anchor="middle" x="484" y="-448.8" font-family="Arial" font-size="14.00" fill="#cfffac">application/createQueryStringParamsObjectFromString.ts</text>
</g>
<!-- application/getExpiryTime.ts -->
<g id="node2" class="node">
<title>application/getExpiryTime.ts</title>
<path fill="none" stroke="#cfffac" d="M1663.83,-597C1663.83,-597 1493.17,-597 1493.17,-597 1489.33,-597 1485.5,-593.17 1485.5,-589.33 1485.5,-589.33 1485.5,-581.67 1485.5,-581.67 1485.5,-577.83 1489.33,-574 1493.17,-574 1493.17,-574 1663.83,-574 1663.83,-574 1667.67,-574 1671.5,-577.83 1671.5,-581.67 1671.5,-581.67 1671.5,-589.33 1671.5,-589.33 1671.5,-593.17 1667.67,-597 1663.83,-597"/>
<text text-anchor="middle" x="1578.5" y="-581.8" font-family="Arial" font-size="14.00" fill="#cfffac">application/getExpiryTime.ts</text>
</g>
<!-- application/getParser.ts -->
<g id="node3" class="node">
<title>application/getParser.ts</title>
<path fill="none" stroke="#c6c5fe" d="M941.83,-64C941.83,-64 800.17,-64 800.17,-64 796.33,-64 792.5,-60.17 792.5,-56.33 792.5,-56.33 792.5,-48.67 792.5,-48.67 792.5,-44.83 796.33,-41 800.17,-41 800.17,-41 941.83,-41 941.83,-41 945.67,-41 949.5,-44.83 949.5,-48.67 949.5,-48.67 949.5,-56.33 949.5,-56.33 949.5,-60.17 945.67,-64 941.83,-64"/>
<text text-anchor="middle" x="871" y="-48.8" font-family="Arial" font-size="14.00" fill="#c6c5fe">application/getParser.ts</text>
</g>
<!-- domain/services/GitHubParser.ts -->
<g id="node4" class="node">
<title>domain/services/GitHubParser.ts</title>
<path fill="none" stroke="#cfffac" d="M1335.33,-64C1335.33,-64 1135.67,-64 1135.67,-64 1131.83,-64 1128,-60.17 1128,-56.33 1128,-56.33 1128,-48.67 1128,-48.67 1128,-44.83 1131.83,-41 1135.67,-41 1135.67,-41 1335.33,-41 1335.33,-41 1339.17,-41 1343,-44.83 1343,-48.67 1343,-48.67 1343,-56.33 1343,-56.33 1343,-60.17 1339.17,-64 1335.33,-64"/>
<text text-anchor="middle" x="1235.5" y="-48.8" font-family="Arial" font-size="14.00" fill="#cfffac">domain/services/GitHubParser.ts</text>
</g>
<!-- application/getParser.ts&#45;&gt;domain/services/GitHubParser.ts -->
<g id="edge1" class="edge">
<title>application/getParser.ts&#45;&gt;domain/services/GitHubParser.ts</title>
<path fill="none" stroke="#757575" d="M949.77,-52.5C998.22,-52.5 1061.52,-52.5 1116.13,-52.5"/>
<polygon fill="#757575" stroke="#757575" points="1116.13,-56 1126.13,-52.5 1116.13,-49 1116.13,-56"/>
</g>
<!-- domain/services/Result.ts -->
<g id="node5" class="node">
<title>domain/services/Result.ts</title>
<path fill="none" stroke="#cfffac" d="M1313.33,-23C1313.33,-23 1157.67,-23 1157.67,-23 1153.83,-23 1150,-19.17 1150,-15.33 1150,-15.33 1150,-7.67 1150,-7.67 1150,-3.83 1153.83,0 1157.67,0 1157.67,0 1313.33,0 1313.33,0 1317.17,0 1321,-3.83 1321,-7.67 1321,-7.67 1321,-15.33 1321,-15.33 1321,-19.17 1317.17,-23 1313.33,-23"/>
<text text-anchor="middle" x="1235.5" y="-7.8" font-family="Arial" font-size="14.00" fill="#cfffac">domain/services/Result.ts</text>
</g>
<!-- application/getParser.ts&#45;&gt;domain/services/Result.ts -->
<g id="edge2" class="edge">
<title>application/getParser.ts&#45;&gt;domain/services/Result.ts</title>
<path fill="none" stroke="#757575" d="M949.77,-43.7C1004.98,-37.46 1079.46,-29.04 1138.39,-22.37"/>
<polygon fill="#757575" stroke="#757575" points="1138.54,-25.88 1148.08,-21.27 1137.75,-18.92 1138.54,-25.88"/>
</g>
<!-- application/getRequestDTO.ts -->
<g id="node6" class="node">
<title>application/getRequestDTO.ts</title>
<path fill="none" stroke="#cfffac" d="M574.83,-423C574.83,-423 393.17,-423 393.17,-423 389.33,-423 385.5,-419.17 385.5,-415.33 385.5,-415.33 385.5,-407.67 385.5,-407.67 385.5,-403.83 389.33,-400 393.17,-400 393.17,-400 574.83,-400 574.83,-400 578.67,-400 582.5,-403.83 582.5,-407.67 582.5,-407.67 582.5,-415.33 582.5,-415.33 582.5,-419.17 578.67,-423 574.83,-423"/>
<text text-anchor="middle" x="484" y="-407.8" font-family="Arial" font-size="14.00" fill="#cfffac">application/getRequestDTO.ts</text>
</g>
<!-- application/mapResultToUsecase.ts -->
<g id="node7" class="node">
<title>application/mapResultToUsecase.ts</title>
<path fill="none" stroke="#c6c5fe" d="M978.83,-310C978.83,-310 763.17,-310 763.17,-310 759.33,-310 755.5,-306.17 755.5,-302.33 755.5,-302.33 755.5,-294.67 755.5,-294.67 755.5,-290.83 759.33,-287 763.17,-287 763.17,-287 978.83,-287 978.83,-287 982.67,-287 986.5,-290.83 986.5,-294.67 986.5,-294.67 986.5,-302.33 986.5,-302.33 986.5,-306.17 982.67,-310 978.83,-310"/>
<text text-anchor="middle" x="871" y="-294.8" font-family="Arial" font-size="14.00" fill="#c6c5fe">application/mapResultToUsecase.ts</text>
</g>
<!-- usecases/approved.ts -->
<g id="node8" class="node">
<title>usecases/approved.ts</title>
<path fill="none" stroke="#cfffac" d="M1301.83,-310C1301.83,-310 1169.17,-310 1169.17,-310 1165.33,-310 1161.5,-306.17 1161.5,-302.33 1161.5,-302.33 1161.5,-294.67 1161.5,-294.67 1161.5,-290.83 1165.33,-287 1169.17,-287 1169.17,-287 1301.83,-287 1301.83,-287 1305.67,-287 1309.5,-290.83 1309.5,-294.67 1309.5,-294.67 1309.5,-302.33 1309.5,-302.33 1309.5,-306.17 1305.67,-310 1301.83,-310"/>
<text text-anchor="middle" x="1235.5" y="-294.8" font-family="Arial" font-size="14.00" fill="#cfffac">usecases/approved.ts</text>
</g>
<!-- application/mapResultToUsecase.ts&#45;&gt;usecases/approved.ts -->
<g id="edge3" class="edge">
<title>application/mapResultToUsecase.ts&#45;&gt;usecases/approved.ts</title>
<path fill="none" stroke="#757575" d="M986.7,-298.5C1039.51,-298.5 1101.07,-298.5 1149.62,-298.5"/>
<polygon fill="#757575" stroke="#757575" points="1149.52,-302 1159.52,-298.5 1149.52,-295 1149.52,-302"/>
</g>
<!-- usecases/changesRequested.ts -->
<g id="node9" class="node">
<title>usecases/changesRequested.ts</title>
<path fill="none" stroke="#cfffac" d="M1331.83,-269C1331.83,-269 1139.17,-269 1139.17,-269 1135.33,-269 1131.5,-265.17 1131.5,-261.33 1131.5,-261.33 1131.5,-253.67 1131.5,-253.67 1131.5,-249.83 1135.33,-246 1139.17,-246 1139.17,-246 1331.83,-246 1331.83,-246 1335.67,-246 1339.5,-249.83 1339.5,-253.67 1339.5,-253.67 1339.5,-261.33 1339.5,-261.33 1339.5,-265.17 1335.67,-269 1331.83,-269"/>
<text text-anchor="middle" x="1235.5" y="-253.8" font-family="Arial" font-size="14.00" fill="#cfffac">usecases/changesRequested.ts</text>
</g>
<!-- application/mapResultToUsecase.ts&#45;&gt;usecases/changesRequested.ts -->
<g id="edge4" class="edge">
<title>application/mapResultToUsecase.ts&#45;&gt;usecases/changesRequested.ts</title>
<path fill="none" stroke="#757575" d="M977.82,-286.53C1022.33,-281.5 1074.21,-275.63 1119.64,-270.49"/>
<polygon fill="#757575" stroke="#757575" points="1120,-273.97 1129.54,-269.37 1119.21,-267.02 1120,-273.97"/>
</g>
<!-- usecases/closed.ts -->
<g id="node10" class="node">
<title>usecases/closed.ts</title>
<path fill="none" stroke="#cfffac" d="M1293.33,-228C1293.33,-228 1177.67,-228 1177.67,-228 1173.83,-228 1170,-224.17 1170,-220.33 1170,-220.33 1170,-212.67 1170,-212.67 1170,-208.83 1173.83,-205 1177.67,-205 1177.67,-205 1293.33,-205 1293.33,-205 1297.17,-205 1301,-208.83 1301,-212.67 1301,-212.67 1301,-220.33 1301,-220.33 1301,-224.17 1297.17,-228 1293.33,-228"/>
<text text-anchor="middle" x="1235.5" y="-212.8" font-family="Arial" font-size="14.00" fill="#cfffac">usecases/closed.ts</text>
</g>
<!-- application/mapResultToUsecase.ts&#45;&gt;usecases/closed.ts -->
<g id="edge5" class="edge">
<title>application/mapResultToUsecase.ts&#45;&gt;usecases/closed.ts</title>
<path fill="none" stroke="#757575" d="M986.58,-295.47C1005.15,-291.85 1023.64,-286.17 1040,-277.5 1061.43,-266.15 1054.58,-247.87 1076,-236.5 1100.87,-223.3 1130.93,-217.43 1158.16,-215.14"/>
<polygon fill="#757575" stroke="#757575" points="1158.38,-218.63 1168.13,-214.47 1157.91,-211.65 1158.38,-218.63"/>
</g>
<!-- usecases/commented.ts -->
<g id="node11" class="node">
<title>usecases/commented.ts</title>
<path fill="none" stroke="#cfffac" d="M1309.83,-187C1309.83,-187 1161.17,-187 1161.17,-187 1157.33,-187 1153.5,-183.17 1153.5,-179.33 1153.5,-179.33 1153.5,-171.67 1153.5,-171.67 1153.5,-167.83 1157.33,-164 1161.17,-164 1161.17,-164 1309.83,-164 1309.83,-164 1313.67,-164 1317.5,-167.83 1317.5,-171.67 1317.5,-171.67 1317.5,-179.33 1317.5,-179.33 1317.5,-183.17 1313.67,-187 1309.83,-187"/>
<text text-anchor="middle" x="1235.5" y="-171.8" font-family="Arial" font-size="14.00" fill="#cfffac">usecases/commented.ts</text>
</g>
<!-- application/mapResultToUsecase.ts&#45;&gt;usecases/commented.ts -->
<g id="edge6" class="edge">
<title>application/mapResultToUsecase.ts&#45;&gt;usecases/commented.ts</title>
<path fill="none" stroke="#757575" d="M986.99,-300.04C1006.03,-296 1024.57,-289.01 1040,-277.5 1071.91,-253.71 1044.11,-219.31 1076,-195.5 1094.81,-181.45 1118.51,-174.51 1141.81,-171.51"/>
<polygon fill="#757575" stroke="#757575" points="1142.1,-175 1151.69,-170.49 1141.39,-168.03 1142.1,-175"/>
</g>
<!-- usecases/merged.ts -->
<g id="node12" class="node">
<title>usecases/merged.ts</title>
<path fill="none" stroke="#cfffac" d="M1296.83,-146C1296.83,-146 1174.17,-146 1174.17,-146 1170.33,-146 1166.5,-142.17 1166.5,-138.33 1166.5,-138.33 1166.5,-130.67 1166.5,-130.67 1166.5,-126.83 1170.33,-123 1174.17,-123 1174.17,-123 1296.83,-123 1296.83,-123 1300.67,-123 1304.5,-126.83 1304.5,-130.67 1304.5,-130.67 1304.5,-138.33 1304.5,-138.33 1304.5,-142.17 1300.67,-146 1296.83,-146"/>
<text text-anchor="middle" x="1235.5" y="-130.8" font-family="Arial" font-size="14.00" fill="#cfffac">usecases/merged.ts</text>
</g>
<!-- application/mapResultToUsecase.ts&#45;&gt;usecases/merged.ts -->
<g id="edge7" class="edge">
<title>application/mapResultToUsecase.ts&#45;&gt;usecases/merged.ts</title>
<path fill="none" stroke="#757575" d="M986.98,-301.94C1006.35,-297.79 1025,-290.27 1040,-277.5 1083.37,-240.58 1032.65,-191.45 1076,-154.5 1097.52,-136.16 1127.04,-129.25 1154.77,-127.59"/>
<polygon fill="#757575" stroke="#757575" points="1154.73,-131.09 1164.6,-127.23 1154.48,-124.09 1154.73,-131.09"/>
</g>
<!-- usecases/opened.ts -->
<g id="node13" class="node">
<title>usecases/opened.ts</title>
<path fill="none" stroke="#cfffac" d="M1296.33,-105C1296.33,-105 1174.67,-105 1174.67,-105 1170.83,-105 1167,-101.17 1167,-97.33 1167,-97.33 1167,-89.67 1167,-89.67 1167,-85.83 1170.83,-82 1174.67,-82 1174.67,-82 1296.33,-82 1296.33,-82 1300.17,-82 1304,-85.83 1304,-89.67 1304,-89.67 1304,-97.33 1304,-97.33 1304,-101.17 1300.17,-105 1296.33,-105"/>
<text text-anchor="middle" x="1235.5" y="-89.8" font-family="Arial" font-size="14.00" fill="#cfffac">usecases/opened.ts</text>
</g>
<!-- application/mapResultToUsecase.ts&#45;&gt;usecases/opened.ts -->
<g id="edge8" class="edge">
<title>application/mapResultToUsecase.ts&#45;&gt;usecases/opened.ts</title>
<path fill="none" stroke="#757575" d="M986.85,-302.95C1006.46,-298.77 1025.23,-290.97 1040,-277.5 1095.13,-227.21 1020.9,-163.82 1076,-113.5 1097.15,-94.18 1127.03,-87.2 1155.15,-85.74"/>
<polygon fill="#757575" stroke="#757575" points="1155.23,-89.24 1165.14,-85.47 1155.05,-82.24 1155.23,-89.24"/>
</g>
<!-- usecases/pushed.ts -->
<g id="node14" class="node">
<title>usecases/pushed.ts</title>
<path fill="none" stroke="#cfffac" d="M1295.83,-474C1295.83,-474 1175.17,-474 1175.17,-474 1171.33,-474 1167.5,-470.17 1167.5,-466.33 1167.5,-466.33 1167.5,-458.67 1167.5,-458.67 1167.5,-454.83 1171.33,-451 1175.17,-451 1175.17,-451 1295.83,-451 1295.83,-451 1299.67,-451 1303.5,-454.83 1303.5,-458.67 1303.5,-458.67 1303.5,-466.33 1303.5,-466.33 1303.5,-470.17 1299.67,-474 1295.83,-474"/>
<text text-anchor="middle" x="1235.5" y="-458.8" font-family="Arial" font-size="14.00" fill="#cfffac">usecases/pushed.ts</text>
</g>
<!-- application/mapResultToUsecase.ts&#45;&gt;usecases/pushed.ts -->
<g id="edge9" class="edge">
<title>application/mapResultToUsecase.ts&#45;&gt;usecases/pushed.ts</title>
<path fill="none" stroke="#757575" d="M884.09,-310.25C913.85,-338.38 994.19,-409.62 1076,-441.5 1101.01,-451.24 1129.74,-456.62 1155.81,-459.55"/>
<polygon fill="#757575" stroke="#757575" points="1155.38,-463.02 1165.68,-460.54 1156.08,-456.05 1155.38,-463.02"/>
</g>
<!-- usecases/reviewPickedUp.ts -->
<g id="node15" class="node">
<title>usecases/reviewPickedUp.ts</title>
<path fill="none" stroke="#cfffac" d="M1321.83,-433C1321.83,-433 1149.17,-433 1149.17,-433 1145.33,-433 1141.5,-429.17 1141.5,-425.33 1141.5,-425.33 1141.5,-417.67 1141.5,-417.67 1141.5,-413.83 1145.33,-410 1149.17,-410 1149.17,-410 1321.83,-410 1321.83,-410 1325.67,-410 1329.5,-413.83 1329.5,-417.67 1329.5,-417.67 1329.5,-425.33 1329.5,-425.33 1329.5,-429.17 1325.67,-433 1321.83,-433"/>
<text text-anchor="middle" x="1235.5" y="-417.8" font-family="Arial" font-size="14.00" fill="#cfffac">usecases/reviewPickedUp.ts</text>
</g>
<!-- application/mapResultToUsecase.ts&#45;&gt;usecases/reviewPickedUp.ts -->
<g id="edge10" class="edge">
<title>application/mapResultToUsecase.ts&#45;&gt;usecases/reviewPickedUp.ts</title>
<path fill="none" stroke="#757575" d="M890.52,-310.43C925.32,-332.22 1003.51,-378.26 1076,-400.5 1093.14,-405.76 1111.72,-409.7 1129.93,-412.66"/>
<polygon fill="#757575" stroke="#757575" points="1129.29,-416.1 1139.7,-414.14 1130.34,-409.18 1129.29,-416.1"/>
</g>
<!-- usecases/reviewTime.ts -->
<g id="node16" class="node">
<title>usecases/reviewTime.ts</title>
<path fill="none" stroke="#cfffac" d="M1308.33,-392C1308.33,-392 1162.67,-392 1162.67,-392 1158.83,-392 1155,-388.17 1155,-384.33 1155,-384.33 1155,-376.67 1155,-376.67 1155,-372.83 1158.83,-369 1162.67,-369 1162.67,-369 1308.33,-369 1308.33,-369 1312.17,-369 1316,-372.83 1316,-376.67 1316,-376.67 1316,-384.33 1316,-384.33 1316,-388.17 1312.17,-392 1308.33,-392"/>
<text text-anchor="middle" x="1235.5" y="-376.8" font-family="Arial" font-size="14.00" fill="#cfffac">usecases/reviewTime.ts</text>
</g>
<!-- application/mapResultToUsecase.ts&#45;&gt;usecases/reviewTime.ts -->
<g id="edge11" class="edge">
<title>application/mapResultToUsecase.ts&#45;&gt;usecases/reviewTime.ts</title>
<path fill="none" stroke="#757575" d="M905.86,-310.43C945.99,-324.15 1015.1,-346.45 1076,-359.5 1097.71,-364.15 1121.33,-367.95 1143.54,-370.97"/>
<polygon fill="#757575" stroke="#757575" points="1142.79,-374.4 1153.16,-372.23 1143.7,-367.46 1142.79,-374.4"/>
</g>
<!-- usecases/reviewed.ts -->
<g id="node17" class="node">
<title>usecases/reviewed.ts</title>
<path fill="none" stroke="#cfffac" d="M1300.83,-351C1300.83,-351 1170.17,-351 1170.17,-351 1166.33,-351 1162.5,-347.17 1162.5,-343.33 1162.5,-343.33 1162.5,-335.67 1162.5,-335.67 1162.5,-331.83 1166.33,-328 1170.17,-328 1170.17,-328 1300.83,-328 1300.83,-328 1304.67,-328 1308.5,-331.83 1308.5,-335.67 1308.5,-335.67 1308.5,-343.33 1308.5,-343.33 1308.5,-347.17 1304.67,-351 1300.83,-351"/>
<text text-anchor="middle" x="1235.5" y="-335.8" font-family="Arial" font-size="14.00" fill="#cfffac">usecases/reviewed.ts</text>
</g>
<!-- application/mapResultToUsecase.ts&#45;&gt;usecases/reviewed.ts -->
<g id="edge12" class="edge">
<title>application/mapResultToUsecase.ts&#45;&gt;usecases/reviewed.ts</title>
<path fill="none" stroke="#757575" d="M977.82,-310.47C1032.9,-316.7 1099.29,-324.21 1150.75,-330.03"/>
<polygon fill="#757575" stroke="#757575" points="1150.33,-333.5 1160.66,-331.15 1151.12,-326.55 1150.33,-333.5"/>
</g>
<!-- domain/services/Metrics.ts -->
<g id="node18" class="node">
<title>domain/services/Metrics.ts</title>
<path fill="none" stroke="#cfffac" d="M951.83,-545C951.83,-545 790.17,-545 790.17,-545 786.33,-545 782.5,-541.17 782.5,-537.33 782.5,-537.33 782.5,-529.67 782.5,-529.67 782.5,-525.83 786.33,-522 790.17,-522 790.17,-522 951.83,-522 951.83,-522 955.67,-522 959.5,-525.83 959.5,-529.67 959.5,-529.67 959.5,-537.33 959.5,-537.33 959.5,-541.17 955.67,-545 951.83,-545"/>
<text text-anchor="middle" x="871" y="-529.8" font-family="Arial" font-size="14.00" fill="#cfffac">domain/services/Metrics.ts</text>
</g>
<!-- infrastructure/adapters/web/AddMetrics.ts -->
<g id="node19" class="node">
<title>infrastructure/adapters/web/AddMetrics.ts</title>
<path fill="none" stroke="#c6c5fe" d="M258.33,-341C258.33,-341 7.67,-341 7.67,-341 3.83,-341 0,-337.17 0,-333.33 0,-333.33 0,-325.67 0,-325.67 0,-321.83 3.83,-318 7.67,-318 7.67,-318 258.33,-318 258.33,-318 262.17,-318 266,-321.83 266,-325.67 266,-325.67 266,-333.33 266,-333.33 266,-337.17 262.17,-341 258.33,-341"/>
<text text-anchor="middle" x="133" y="-325.8" font-family="Arial" font-size="14.00" fill="#c6c5fe">infrastructure/adapters/web/AddMetrics.ts</text>
</g>
<!-- infrastructure/frameworks/end.ts -->
<g id="node20" class="node">
<title>infrastructure/frameworks/end.ts</title>
<path fill="none" stroke="#cfffac" d="M581.33,-372C581.33,-372 386.67,-372 386.67,-372 382.83,-372 379,-368.17 379,-364.33 379,-364.33 379,-356.67 379,-356.67 379,-352.83 382.83,-349 386.67,-349 386.67,-349 581.33,-349 581.33,-349 585.17,-349 589,-352.83 589,-356.67 589,-356.67 589,-364.33 589,-364.33 589,-368.17 585.17,-372 581.33,-372"/>
<text text-anchor="middle" x="484" y="-356.8" font-family="Arial" font-size="14.00" fill="#cfffac">infrastructure/frameworks/end.ts</text>
</g>
<!-- infrastructure/adapters/web/AddMetrics.ts&#45;&gt;infrastructure/frameworks/end.ts -->
<g id="edge13" class="edge">
<title>infrastructure/adapters/web/AddMetrics.ts&#45;&gt;infrastructure/frameworks/end.ts</title>
<path fill="none" stroke="#757575" d="M266.44,-341.26C299.64,-344.21 335.01,-347.35 367.33,-350.23"/>
<polygon fill="#757575" stroke="#757575" points="366.84,-353.7 377.11,-351.09 367.46,-346.72 366.84,-353.7"/>
</g>
<!-- usecases/addMetric.ts -->
<g id="node21" class="node">
<title>usecases/addMetric.ts</title>
<path fill="none" stroke="#c6c5fe" d="M552.33,-310C552.33,-310 415.67,-310 415.67,-310 411.83,-310 408,-306.17 408,-302.33 408,-302.33 408,-294.67 408,-294.67 408,-290.83 411.83,-287 415.67,-287 415.67,-287 552.33,-287 552.33,-287 556.17,-287 560,-290.83 560,-294.67 560,-294.67 560,-302.33 560,-302.33 560,-306.17 556.17,-310 552.33,-310"/>
<text text-anchor="middle" x="484" y="-294.8" font-family="Arial" font-size="14.00" fill="#c6c5fe">usecases/addMetric.ts</text>
</g>
<!-- infrastructure/adapters/web/AddMetrics.ts&#45;&gt;usecases/addMetric.ts -->
<g id="edge14" class="edge">
<title>infrastructure/adapters/web/AddMetrics.ts&#45;&gt;usecases/addMetric.ts</title>
<path fill="none" stroke="#757575" d="M266.44,-317.74C309.88,-313.88 357.01,-309.69 396.18,-306.21"/>
<polygon fill="#757575" stroke="#757575" points="396.38,-309.71 406.03,-305.34 395.76,-302.74 396.38,-309.71"/>
</g>
<!-- usecases/addMetric.ts&#45;&gt;application/getParser.ts -->
<g id="edge26" class="edge">
<title>usecases/addMetric.ts&#45;&gt;application/getParser.ts</title>
<path fill="none" stroke="#757575" d="M503.57,-286.63C565.83,-246.85 767.45,-118.03 841.97,-70.41"/>
<polygon fill="#757575" stroke="#757575" points="843.8,-73.39 850.34,-65.06 840.03,-67.5 843.8,-73.39"/>
</g>
<!-- usecases/addMetric.ts&#45;&gt;application/mapResultToUsecase.ts -->
<g id="edge27" class="edge">
<title>usecases/addMetric.ts&#45;&gt;application/mapResultToUsecase.ts</title>
<path fill="none" stroke="#757575" d="M560.15,-298.5C612.37,-298.5 683.23,-298.5 744,-298.5"/>
<polygon fill="#757575" stroke="#757575" points="743.71,-302 753.71,-298.5 743.71,-295 743.71,-302"/>
</g>
<!-- infrastructure/frameworks/getRepo.ts -->
<g id="node23" class="node">
<title>infrastructure/frameworks/getRepo.ts</title>
<path fill="none" stroke="#c6c5fe" d="M982.83,-504C982.83,-504 759.17,-504 759.17,-504 755.33,-504 751.5,-500.17 751.5,-496.33 751.5,-496.33 751.5,-488.67 751.5,-488.67 751.5,-484.83 755.33,-481 759.17,-481 759.17,-481 982.83,-481 982.83,-481 986.67,-481 990.5,-484.83 990.5,-488.67 990.5,-488.67 990.5,-496.33 990.5,-496.33 990.5,-500.17 986.67,-504 982.83,-504"/>
<text text-anchor="middle" x="871" y="-488.8" font-family="Arial" font-size="14.00" fill="#c6c5fe">infrastructure/frameworks/getRepo.ts</text>
</g>
<!-- usecases/addMetric.ts&#45;&gt;infrastructure/frameworks/getRepo.ts -->
<g id="edge29" class="edge">
<title>usecases/addMetric.ts&#45;&gt;infrastructure/frameworks/getRepo.ts</title>
<path fill="none" stroke="#757575" d="M560.4,-308.28C593.82,-314.44 632.95,-324.22 666,-339.5 741.25,-374.3 815.57,-440.06 850.05,-472.86"/>
<polygon fill="#757575" stroke="#757575" points="847.59,-475.35 857.22,-479.77 852.45,-470.31 847.59,-475.35"/>
</g>
<!-- infrastructure/frameworks/getLowerCaseHeaders.ts -->
<g id="node30" class="node">
<title>infrastructure/frameworks/getLowerCaseHeaders.ts</title>
<path fill="none" stroke="#cfffac" d="M1026.33,-269C1026.33,-269 715.67,-269 715.67,-269 711.83,-269 708,-265.17 708,-261.33 708,-261.33 708,-253.67 708,-253.67 708,-249.83 711.83,-246 715.67,-246 715.67,-246 1026.33,-246 1026.33,-246 1030.17,-246 1034,-249.83 1034,-253.67 1034,-253.67 1034,-261.33 1034,-261.33 1034,-265.17 1030.17,-269 1026.33,-269"/>
<text text-anchor="middle" x="871" y="-253.8" font-family="Arial" font-size="14.00" fill="#cfffac">infrastructure/frameworks/getLowerCaseHeaders.ts</text>
</g>
<!-- usecases/addMetric.ts&#45;&gt;infrastructure/frameworks/getLowerCaseHeaders.ts -->
<g id="edge28" class="edge">
<title>usecases/addMetric.ts&#45;&gt;infrastructure/frameworks/getLowerCaseHeaders.ts</title>
<path fill="none" stroke="#757575" d="M560.15,-290.5C612.99,-284.87 684.91,-277.21 746.16,-270.69"/>
<polygon fill="#757575" stroke="#757575" points="746.38,-274.18 755.96,-269.65 745.64,-267.22 746.38,-274.18"/>
</g>
<!-- infrastructure/adapters/web/GetMetrics.ts -->
<g id="node22" class="node">
<title>infrastructure/adapters/web/GetMetrics.ts</title>
<path fill="none" stroke="#c6c5fe" d="M257.83,-464C257.83,-464 8.17,-464 8.17,-464 4.33,-464 0.5,-460.17 0.5,-456.33 0.5,-456.33 0.5,-448.67 0.5,-448.67 0.5,-444.83 4.33,-441 8.17,-441 8.17,-441 257.83,-441 257.83,-441 261.67,-441 265.5,-444.83 265.5,-448.67 265.5,-448.67 265.5,-456.33 265.5,-456.33 265.5,-460.17 261.67,-464 257.83,-464"/>
<text text-anchor="middle" x="133" y="-448.8" font-family="Arial" font-size="14.00" fill="#c6c5fe">infrastructure/adapters/web/GetMetrics.ts</text>
</g>
<!-- infrastructure/adapters/web/GetMetrics.ts&#45;&gt;application/createQueryStringParamsObjectFromString.ts -->
<g id="edge15" class="edge">
<title>infrastructure/adapters/web/GetMetrics.ts&#45;&gt;application/createQueryStringParamsObjectFromString.ts</title>
<path fill="none" stroke="#757575" d="M265.94,-452.5C273.88,-452.5 281.94,-452.5 290.06,-452.5"/>
<polygon fill="#757575" stroke="#757575" points="290.05,-456 300.05,-452.5 290.05,-449 290.05,-456"/>
</g>
<!-- infrastructure/adapters/web/GetMetrics.ts&#45;&gt;application/getRequestDTO.ts -->
<g id="edge16" class="edge">
<title>infrastructure/adapters/web/GetMetrics.ts&#45;&gt;application/getRequestDTO.ts</title>
<path fill="none" stroke="#757575" d="M227.72,-440.54C251.91,-437.52 277.92,-434.34 302,-431.5 325.31,-428.76 350.32,-425.92 374.09,-423.28"/>
<polygon fill="#757575" stroke="#757575" points="374.22,-426.79 383.77,-422.21 373.45,-419.83 374.22,-426.79"/>
</g>
<!-- infrastructure/adapters/web/GetMetrics.ts&#45;&gt;infrastructure/frameworks/end.ts -->
<g id="edge17" class="edge">
<title>infrastructure/adapters/web/GetMetrics.ts&#45;&gt;infrastructure/frameworks/end.ts</title>
<path fill="none" stroke="#757575" d="M161.42,-440.55C194.26,-426.66 251.21,-403.95 302,-390.5 326.54,-384 353.35,-378.64 378.63,-374.34"/>
<polygon fill="#757575" stroke="#757575" points="378.95,-377.83 388.25,-372.75 377.81,-370.93 378.95,-377.83"/>
</g>
<!-- infrastructure/adapters/web/GetMetrics.ts&#45;&gt;infrastructure/frameworks/getRepo.ts -->
<g id="edge18" class="edge">
<title>infrastructure/adapters/web/GetMetrics.ts&#45;&gt;infrastructure/frameworks/getRepo.ts</title>
<path fill="none" stroke="#757575" d="M217.59,-464.47C244.49,-467.91 274.46,-471.32 302,-473.5 451.92,-485.35 624.68,-489.83 739.93,-491.51"/>
<polygon fill="#757575" stroke="#757575" points="739.68,-495 749.73,-491.64 739.78,-488 739.68,-495"/>
</g>
<!-- usecases/getMetrics.ts -->
<g id="node24" class="node">
<title>usecases/getMetrics.ts</title>
<path fill="none" stroke="#c6c5fe" d="M553.83,-545C553.83,-545 414.17,-545 414.17,-545 410.33,-545 406.5,-541.17 406.5,-537.33 406.5,-537.33 406.5,-529.67 406.5,-529.67 406.5,-525.83 410.33,-522 414.17,-522 414.17,-522 553.83,-522 553.83,-522 557.67,-522 561.5,-525.83 561.5,-529.67 561.5,-529.67 561.5,-537.33 561.5,-537.33 561.5,-541.17 557.67,-545 553.83,-545"/>
<text text-anchor="middle" x="484" y="-529.8" font-family="Arial" font-size="14.00" fill="#c6c5fe">usecases/getMetrics.ts</text>
</g>
<!-- infrastructure/adapters/web/GetMetrics.ts&#45;&gt;usecases/getMetrics.ts -->
<g id="edge19" class="edge">
<title>infrastructure/adapters/web/GetMetrics.ts&#45;&gt;usecases/getMetrics.ts</title>
<path fill="none" stroke="#757575" d="M165.77,-464.43C199.23,-476.58 253.67,-495.21 302,-506.5 332.04,-513.52 365.33,-519.1 395.08,-523.32"/>
<polygon fill="#757575" stroke="#757575" points="394.41,-526.76 404.8,-524.66 395.37,-519.83 394.41,-526.76"/>
</g>
<!-- infrastructure/repositories/DynamoDbRepository.ts -->
<g id="node31" class="node">
<title>infrastructure/repositories/DynamoDbRepository.ts</title>
<path fill="none" stroke="#c6c5fe" d="M1387.33,-556C1387.33,-556 1083.67,-556 1083.67,-556 1079.83,-556 1076,-552.17 1076,-548.33 1076,-548.33 1076,-540.67 1076,-540.67 1076,-536.83 1079.83,-533 1083.67,-533 1083.67,-533 1387.33,-533 1387.33,-533 1391.17,-533 1395,-536.83 1395,-540.67 1395,-540.67 1395,-548.33 1395,-548.33 1395,-552.17 1391.17,-556 1387.33,-556"/>
<text text-anchor="middle" x="1235.5" y="-540.8" font-family="Arial" font-size="14.00" fill="#c6c5fe">infrastructure/repositories/DynamoDbRepository.ts</text>
</g>
<!-- infrastructure/frameworks/getRepo.ts&#45;&gt;infrastructure/repositories/DynamoDbRepository.ts -->
<g id="edge21" class="edge">
<title>infrastructure/frameworks/getRepo.ts&#45;&gt;infrastructure/repositories/DynamoDbRepository.ts</title>
<path fill="none" stroke="#757575" d="M989.02,-504.5C1006.2,-507.02 1023.62,-510 1040,-513.5 1056.36,-516.99 1059.64,-521 1076,-524.5 1086.78,-526.81 1098.03,-528.88 1109.35,-530.74"/>
<polygon fill="#757575" stroke="#757575" points="1108.76,-534.19 1119.19,-532.29 1109.85,-527.28 1108.76,-534.19"/>
</g>
<!-- infrastructure/repositories/LocalRepository.ts -->
<g id="node32" class="node">
<title>infrastructure/repositories/LocalRepository.ts</title>
<path fill="none" stroke="#cfffac" d="M1369.33,-515C1369.33,-515 1101.67,-515 1101.67,-515 1097.83,-515 1094,-511.17 1094,-507.33 1094,-507.33 1094,-499.67 1094,-499.67 1094,-495.83 1097.83,-492 1101.67,-492 1101.67,-492 1369.33,-492 1369.33,-492 1373.17,-492 1377,-495.83 1377,-499.67 1377,-499.67 1377,-507.33 1377,-507.33 1377,-511.17 1373.17,-515 1369.33,-515"/>
<text text-anchor="middle" x="1235.5" y="-499.8" font-family="Arial" font-size="14.00" fill="#cfffac">infrastructure/repositories/LocalRepository.ts</text>
</g>
<!-- infrastructure/frameworks/getRepo.ts&#45;&gt;infrastructure/repositories/LocalRepository.ts -->
<g id="edge22" class="edge">
<title>infrastructure/frameworks/getRepo.ts&#45;&gt;infrastructure/repositories/LocalRepository.ts</title>
<path fill="none" stroke="#757575" d="M990.95,-496.11C1020.18,-497 1051.87,-497.96 1082.43,-498.89"/>
<polygon fill="#757575" stroke="#757575" points="1082.01,-502.37 1092.11,-499.18 1082.22,-495.38 1082.01,-502.37"/>
</g>
<!-- usecases/getMetrics.ts&#45;&gt;domain/services/Metrics.ts -->
<g id="edge31" class="edge">
<title>usecases/getMetrics.ts&#45;&gt;domain/services/Metrics.ts</title>
<path fill="none" stroke="#757575" d="M561.99,-533.5C621.91,-533.5 705.55,-533.5 770.54,-533.5"/>
<polygon fill="#757575" stroke="#757575" points="770.53,-537 780.53,-533.5 770.53,-530 770.53,-537"/>
</g>
<!-- infrastructure/authorizers/Authorizer.ts -->
<g id="node25" class="node">
<title>infrastructure/authorizers/Authorizer.ts</title>
<path fill="none" stroke="#c6c5fe" d="M247.83,-586C247.83,-586 18.17,-586 18.17,-586 14.33,-586 10.5,-582.17 10.5,-578.33 10.5,-578.33 10.5,-570.67 10.5,-570.67 10.5,-566.83 14.33,-563 18.17,-563 18.17,-563 247.83,-563 247.83,-563 251.67,-563 255.5,-566.83 255.5,-570.67 255.5,-570.67 255.5,-578.33 255.5,-578.33 255.5,-582.17 251.67,-586 247.83,-586"/>
<text text-anchor="middle" x="133" y="-570.8" font-family="Arial" font-size="14.00" fill="#c6c5fe">infrastructure/authorizers/Authorizer.ts</text>
</g>
<!-- usecases/authorize.ts -->
<g id="node26" class="node">
<title>usecases/authorize.ts</title>
<path fill="none" stroke="#c6c5fe" d="M549.83,-586C549.83,-586 418.17,-586 418.17,-586 414.33,-586 410.5,-582.17 410.5,-578.33 410.5,-578.33 410.5,-570.67 410.5,-570.67 410.5,-566.83 414.33,-563 418.17,-563 418.17,-563 549.83,-563 549.83,-563 553.67,-563 557.5,-566.83 557.5,-570.67 557.5,-570.67 557.5,-578.33 557.5,-578.33 557.5,-582.17 553.67,-586 549.83,-586"/>
<text text-anchor="middle" x="484" y="-570.8" font-family="Arial" font-size="14.00" fill="#c6c5fe">usecases/authorize.ts</text>
</g>
<!-- infrastructure/authorizers/Authorizer.ts&#45;&gt;usecases/authorize.ts -->
<g id="edge20" class="edge">
<title>infrastructure/authorizers/Authorizer.ts&#45;&gt;usecases/authorize.ts</title>
<path fill="none" stroke="#757575" d="M255.57,-574.5C302.89,-574.5 355.93,-574.5 398.89,-574.5"/>
<polygon fill="#757575" stroke="#757575" points="398.64,-578 408.64,-574.5 398.63,-571 398.64,-578"/>
</g>
<!-- infrastructure/frameworks/authorization/handleCors.ts -->
<g id="node28" class="node">
<title>infrastructure/frameworks/authorization/handleCors.ts</title>
<path fill="none" stroke="#cfffac" d="M1032.33,-586C1032.33,-586 709.67,-586 709.67,-586 705.83,-586 702,-582.17 702,-578.33 702,-578.33 702,-570.67 702,-570.67 702,-566.83 705.83,-563 709.67,-563 709.67,-563 1032.33,-563 1032.33,-563 1036.17,-563 1040,-566.83 1040,-570.67 1040,-570.67 1040,-578.33 1040,-578.33 1040,-582.17 1036.17,-586 1032.33,-586"/>
<text text-anchor="middle" x="871" y="-570.8" font-family="Arial" font-size="14.00" fill="#cfffac">infrastructure/frameworks/authorization/handleCors.ts</text>
</g>
<!-- usecases/authorize.ts&#45;&gt;infrastructure/frameworks/authorization/handleCors.ts -->
<g id="edge30" class="edge">
<title>usecases/authorize.ts&#45;&gt;infrastructure/frameworks/authorization/handleCors.ts</title>
<path fill="none" stroke="#757575" d="M557.87,-574.5C595.61,-574.5 643.51,-574.5 690.39,-574.5"/>
<polygon fill="#757575" stroke="#757575" points="690.13,-578 700.13,-574.5 690.13,-571 690.13,-578"/>
</g>
<!-- infrastructure/frameworks/addCustomMetric.ts -->
<g id="node27" class="node">
<title>infrastructure/frameworks/addCustomMetric.ts</title>
<path fill="none" stroke="#cfffac" d="M1718.33,-556C1718.33,-556 1438.67,-556 1438.67,-556 1434.83,-556 1431,-552.17 1431,-548.33 1431,-548.33 1431,-540.67 1431,-540.67 1431,-536.83 1434.83,-533 1438.67,-533 1438.67,-533 1718.33,-533 1718.33,-533 1722.17,-533 1726,-536.83 1726,-540.67 1726,-540.67 1726,-548.33 1726,-548.33 1726,-552.17 1722.17,-556 1718.33,-556"/>
<text text-anchor="middle" x="1578.5" y="-540.8" font-family="Arial" font-size="14.00" fill="#cfffac">infrastructure/frameworks/addCustomMetric.ts</text>
</g>
<!-- infrastructure/frameworks/getCleanedItems.ts -->
<g id="node29" class="node">
<title>infrastructure/frameworks/getCleanedItems.ts</title>
<path fill="none" stroke="#cfffac" d="M1715.83,-515C1715.83,-515 1441.17,-515 1441.17,-515 1437.33,-515 1433.5,-511.17 1433.5,-507.33 1433.5,-507.33 1433.5,-499.67 1433.5,-499.67 1433.5,-495.83 1437.33,-492 1441.17,-492 1441.17,-492 1715.83,-492 1715.83,-492 1719.67,-492 1723.5,-495.83 1723.5,-499.67 1723.5,-499.67 1723.5,-507.33 1723.5,-507.33 1723.5,-511.17 1719.67,-515 1715.83,-515"/>
<text text-anchor="middle" x="1578.5" y="-499.8" font-family="Arial" font-size="14.00" fill="#cfffac">infrastructure/frameworks/getCleanedItems.ts</text>
</g>
<!-- infrastructure/repositories/DynamoDbRepository.ts&#45;&gt;application/getExpiryTime.ts -->
<g id="edge23" class="edge">
<title>infrastructure/repositories/DynamoDbRepository.ts&#45;&gt;application/getExpiryTime.ts</title>
<path fill="none" stroke="#757575" d="M1336.05,-556.47C1379.36,-561.68 1430.11,-567.78 1473.87,-573.04"/>
<polygon fill="#757575" stroke="#757575" points="1473.28,-576.49 1483.63,-574.21 1474.11,-569.54 1473.28,-576.49"/>
</g>
<!-- infrastructure/repositories/DynamoDbRepository.ts&#45;&gt;infrastructure/frameworks/addCustomMetric.ts -->
<g id="edge24" class="edge">
<title>infrastructure/repositories/DynamoDbRepository.ts&#45;&gt;infrastructure/frameworks/addCustomMetric.ts</title>
<path fill="none" stroke="#757575" d="M1395.02,-544.5C1403.06,-544.5 1411.13,-544.5 1419.17,-544.5"/>
<polygon fill="#757575" stroke="#757575" points="1418.99,-548 1428.99,-544.5 1418.99,-541 1418.99,-548"/>
</g>
<!-- infrastructure/repositories/DynamoDbRepository.ts&#45;&gt;infrastructure/frameworks/getCleanedItems.ts -->
<g id="edge25" class="edge">
<title>infrastructure/repositories/DynamoDbRepository.ts&#45;&gt;infrastructure/frameworks/getCleanedItems.ts</title>
<path fill="none" stroke="#757575" d="M1336.05,-532.53C1376.92,-527.62 1424.42,-521.91 1466.42,-516.86"/>
<polygon fill="#757575" stroke="#757575" points="1466.81,-520.33 1476.33,-515.66 1465.98,-513.38 1466.81,-520.33"/>
</g>
</g>
</svg>
